<mxfile host="65bd71144e" pages="2">
    <diagram id="cvY6QNaKRdDC70A6ksTA" name="use-cases">
        <mxGraphModel dx="907" dy="682" grid="1" gridSize="10" guides="1" tooltips="1" connect="1" arrows="1" fold="1" page="1" pageScale="1" pageWidth="1169" pageHeight="827" math="0" shadow="0">
            <root>
                <mxCell id="0"/>
                <mxCell id="1" parent="0"/>
                <mxCell id="xMlnUiTXEX7Q_oC-0Y35-67" value="" style="rounded=0;whiteSpace=wrap;html=1;sketch=1;fontFamily=IBM Plex Mono;fontSize=11;fillColor=default;strokeColor=none;" parent="1" vertex="1">
                    <mxGeometry x="350" y="10" width="780" height="810" as="geometry"/>
                </mxCell>
                <mxCell id="xMlnUiTXEX7Q_oC-0Y35-52" style="edgeStyle=none;rounded=0;sketch=1;orthogonalLoop=1;jettySize=auto;html=1;entryX=0.5;entryY=0;entryDx=0;entryDy=0;strokeWidth=1;fontFamily=IBM Plex Mono;fontSize=11;endArrow=block;endFill=1;startSize=6;endSize=10;fillColor=#dae8fc;strokeColor=#6c8ebf;" parent="1" target="xMlnUiTXEX7Q_oC-0Y35-49" edge="1">
                    <mxGeometry relative="1" as="geometry">
                        <mxPoint x="990" y="480" as="sourcePoint"/>
                    </mxGeometry>
                </mxCell>
                <mxCell id="xMlnUiTXEX7Q_oC-0Y35-1" value="&lt;font style=&quot;font-size: 19px;&quot;&gt;Broker&lt;/font&gt;" style="rounded=1;whiteSpace=wrap;html=1;fontFamily=IBM Plex Mono;fontSize=19;fillColor=#f5f5f5;fontColor=#333333;strokeColor=#666666;sketch=1;" parent="1" vertex="1">
                    <mxGeometry x="400" y="430" width="660" height="50" as="geometry"/>
                </mxCell>
                <mxCell id="xMlnUiTXEX7Q_oC-0Y35-5" value="" style="orthogonalLoop=1;jettySize=auto;html=1;fontFamily=IBM Plex Mono;fontSize=19;fillColor=#dae8fc;strokeColor=#6c8ebf;exitX=0.5;exitY=1;exitDx=0;exitDy=0;entryX=0.086;entryY=0.02;entryDx=0;entryDy=0;entryPerimeter=0;endSize=10;strokeWidth=1;startSize=6;rounded=0;sketch=1;" parent="1" source="xMlnUiTXEX7Q_oC-0Y35-2" target="xMlnUiTXEX7Q_oC-0Y35-1" edge="1">
                    <mxGeometry relative="1" as="geometry">
                        <mxPoint x="475" y="350" as="sourcePoint"/>
                        <mxPoint x="475" y="430" as="targetPoint"/>
                    </mxGeometry>
                </mxCell>
                <mxCell id="xMlnUiTXEX7Q_oC-0Y35-20" value="" style="edgeStyle=none;rounded=0;orthogonalLoop=1;jettySize=auto;html=1;fontFamily=IBM Plex Mono;fontSize=15;dashed=1;sketch=1;" parent="1" source="xMlnUiTXEX7Q_oC-0Y35-2" target="xMlnUiTXEX7Q_oC-0Y35-10" edge="1">
                    <mxGeometry relative="1" as="geometry"/>
                </mxCell>
                <mxCell id="xMlnUiTXEX7Q_oC-0Y35-2" value="&lt;font style=&quot;font-size: 19px;&quot;&gt;SCM&lt;/font&gt;" style="rounded=1;whiteSpace=wrap;html=1;fontFamily=IBM Plex Mono;fontSize=19;fillColor=#fff2cc;strokeColor=#d6b656;sketch=1;" parent="1" vertex="1">
                    <mxGeometry x="400" y="180" width="110" height="80" as="geometry"/>
                </mxCell>
                <mxCell id="xMlnUiTXEX7Q_oC-0Y35-4" value="" style="edgeStyle=orthogonalEdgeStyle;rounded=0;orthogonalLoop=1;jettySize=auto;html=1;fontFamily=IBM Plex Mono;fontSize=19;sketch=1;endSize=10;" parent="1" source="xMlnUiTXEX7Q_oC-0Y35-3" target="xMlnUiTXEX7Q_oC-0Y35-2" edge="1">
                    <mxGeometry relative="1" as="geometry"/>
                </mxCell>
                <mxCell id="xMlnUiTXEX7Q_oC-0Y35-3" value="" style="shape=umlActor;verticalLabelPosition=bottom;verticalAlign=top;html=1;outlineConnect=0;sketch=1;fontFamily=IBM Plex Mono;fontSize=19;" parent="1" vertex="1">
                    <mxGeometry x="440" y="80" width="30" height="60" as="geometry"/>
                </mxCell>
                <mxCell id="xMlnUiTXEX7Q_oC-0Y35-6" value="" style="shape=image;verticalLabelPosition=bottom;verticalAlign=top;imageAspect=0;aspect=fixed;image=data:image/svg+xml,PHN2ZyB4bWxuczp4bGluaz0iaHR0cDovL3d3dy53My5vcmcvMTk5OS94bGluayIgeG1sbnM9Imh0dHA6Ly93d3cudzMub3JnLzIwMDAvc3ZnIiB2aWV3Qm94PSIwIDAgMTgzIDI0OSIgZGF0YS1uYW1lPSJMYXllciAxIiBpZD0iTGF5ZXJfMSI+PGRlZnM+PHN0eWxlPi5jbHMtMXtmaWxsOnVybCgjbGluZWFyLWdyYWRpZW50KTt9LmNscy0ye2ZpbGw6dXJsKCNsaW5lYXItZ3JhZGllbnQtMik7fS5jbHMtM3tmaWxsOnVybCgjbGluZWFyLWdyYWRpZW50LTMpO30uY2xzLTR7ZmlsbDp1cmwoI2xpbmVhci1ncmFkaWVudC00KTt9LmNscy01e2ZpbGw6dXJsKCNsaW5lYXItZ3JhZGllbnQtNSk7fTwvc3R5bGU+PGxpbmVhckdyYWRpZW50IGdyYWRpZW50VW5pdHM9InVzZXJTcGFjZU9uVXNlIiB5Mj0iNDMyLjYwMTI4IiB4Mj0iNDQ5LjExNjA0IiB5MT0iMTA5Ljg2NDE3IiB4MT0iLTkzLjM1Njk4IiBpZD0ibGluZWFyLWdyYWRpZW50Ij48c3RvcCBzdG9wLWNvbG9yPSIjMmUzMTkwIiBvZmZzZXQ9IjAiLz48c3RvcCBzdG9wLWNvbG9yPSIjNTBhNzkyIiBvZmZzZXQ9IjAuNTUwNjEiLz48c3RvcCBzdG9wLWNvbG9yPSIjMzliMzRhIiBvZmZzZXQ9IjEiLz48L2xpbmVhckdyYWRpZW50PjxsaW5lYXJHcmFkaWVudCB4bGluazpocmVmPSIjbGluZWFyLWdyYWRpZW50IiB5Mj0iMzYyLjEwNzc4IiB4Mj0iNDkxLjA1NTIxIiB5MT0iMzkuMzcwNjciIHgxPSItNTEuNDE3ODEiIGlkPSJsaW5lYXItZ3JhZGllbnQtMiIvPjxsaW5lYXJHcmFkaWVudCB4bGluazpocmVmPSIjbGluZWFyLWdyYWRpZW50IiB5Mj0iMzQ4LjY2MDM0IiB4Mj0iNDk5LjA1NTU5IiB5MT0iMjUuOTIzMjMiIHgxPSItNDMuNDE3NDMiIGlkPSJsaW5lYXItZ3JhZGllbnQtMyIvPjxsaW5lYXJHcmFkaWVudCB4bGluazpocmVmPSIjbGluZWFyLWdyYWRpZW50IiB5Mj0iMzMyLjEzNTQ4IiB4Mj0iNTA4Ljg4NjgzIiB5MT0iOS4zOTgzNyIgeDE9Ii0zMy41ODYxOCIgaWQ9ImxpbmVhci1ncmFkaWVudC00Ii8+PGxpbmVhckdyYWRpZW50IHhsaW5rOmhyZWY9IiNsaW5lYXItZ3JhZGllbnQiIHkyPSIzMTUuNDcyNTMiIHgyPSI1MTguODAwMjMiIHkxPSItNy4yNjQ1OCIgeDE9Ii0yMy42NzI3OCIgaWQ9ImxpbmVhci1ncmFkaWVudC01Ii8+PC9kZWZzPjxwYXRoIGQ9Ik03MS44ODAxMSwyMTUuNjM1MmE3Ljc0MTY3LDcuNzQxNjcsMCwwLDAtNC45ODY4LDEuMzYsMjcuNDk4ODQsMjcuNDk4ODQsMCwwLDEtMy43Nzc4NCwyLjU2OSwxNi4xMTEwNiwxNi4xMTEwNiwwLDAsMS00LjUzMzM5LDEuMzU5OSw0MC4xNjQ3Nyw0MC4xNjQ3NywwLDAsMS02LjQ5Nzg5LjQ1MzQzQTIxLjg0MDA3LDIxLjg0MDA3LDAsMCwxLDQwLjA3MDcyLDIxOC4wNTNhMjMuMDU2MjQsMjMuMDU2MjQsMCwwLDEtOC4xNjAxNi04Ljk4OTY3LDI3LjYwMTI1LDI3LjYwMTI1LDAsMCwxLTIuOTQ2NzEtMTIuOTIxNywyOC41MzY5NCwyOC41MzY5NCwwLDAsMSwyLjg3MTI0LTEzLjA2OTc2LDIyLjEzNjIyLDIyLjEzNjIyLDAsMCwxLDguMjM1NjMtOC45ODk2N0EyNC4zNTYsMjQuMzU2LDAsMCwxLDUzLjE0MiwxNzAuNzU3ODFhMzAuNTYyLDMwLjU2MiwwLDAsMSw0LjYwOS41MjcyNiwxMy44NTczOCwxMy44NTczOCwwLDAsMSw0LjYwOSwxLjQzNzEzLDE2LjA4ODY1LDE2LjA4ODY1LDAsMCwxLDIuODcxMTIsMS45NjQ1MSwxMC40OTI4NSwxMC40OTI4NSwwLDAsMCwyLjc5NTY0LDEuNzM2MjMsMTAuMjA3MjYsMTAuMjA3MjYsMCwwLDAsNC4wMDQ0OS42ODE1OCw2LjAwNTY3LDYuMDA1NjcsMCwwLDAsNS4yODc0My0yLjY0NjA5LDkuODI2MzksOS44MjYzOSwwLDAsMCwxLjgxMzMyLTUuNjY1MTMsMTAuMTk2NzQsMTAuMTk2NzQsMCwwLDAtMy41NTExOS03Ljc4NCwyNC40MzI1MywyNC40MzI1MywwLDAsMC05Ljk3MTg2LTUuMDYwNjUsNTUuNjM2NzksNTUuNjM2NzksMCwwLDAtMTUuMDM1NzctMS44MTM0NSwzOS41MTEsMzkuNTExLDAsMCwwLTIwLjYyNjkzLDUuMzYzLDM3LjU0NDU5LDM3LjU0NDU5LDAsMCwwLTE0LjA1MTk1LDE0LjgwOTExLDQ1LjUxNzYyLDQ1LjUxNzYyLDAsMCwwLTUuMDYyNCwyMS44MzQyOEE0Ni45Nzg0OCw0Ni45Nzg0OCwwLDAsMCwxNS41OTIsMjE3LjQ0ODUzLDM2Ljg2NzUxLDM2Ljg2NzUxLDAsMCwwLDI5LjExNSwyMzIuNDg1OTNRMzcuODc4LDIzOC4wMDMyNSw0OS44MTc1NiwyMzhhNTYuMTI2OTIsNTYuMTI2OTIsMCwwLDAsMTQuODg0NTgtMS44ODcyOSwzNC4wMzIzOCwzNC4wMzIzOCwwLDAsMCwxMS4xMDUyNC00Ljk4NjgxcTQuMjI5NTItMy4wOTYyLDQuMjMxMTQtNi44NzcyM2E5LjEzNDY1LDkuMTM0NjUsMCwwLDAtMi4xMTU1Ny02LjExODQzQTcuNDkwNjgsNy40OTA2OCwwLDAsMCw3MS44ODAxMSwyMTUuNjM1MloiIGNsYXNzPSJjbHMtMSIvPjxwYXRoIGQ9Ik0xNTguNjE0MzYsNjYuODY5NzJhOC42Nzc2Myw4LjY3NzYzLDAsMCwwLTYuNDk3ODksMi42NDYwOSw5LjA1NDIsOS4wNTQyLDAsMCwwLTIuNTY3MzcsNi41NzE3NHY4Ny40ODcyOGEzNi40NSwzNi40NSwwLDAsMC0yLjk0NjcxLTIuNDg4MjcsMzUuNjE5NDQsMzUuNjE5NDQsMCwwLDAtOS40NDQ2LTQuOTg2ODEsMzQuOTQ1NzUsMzQuOTQ1NzUsMCwwLDAtMTEuOTM3ODgtMS45NjQ1MSwzMy4zMTY1NSwzMy4zMTY1NSwwLDAsMC0xOC40MzU4OSw1LjM2MywzOC4xNDc1OCwzOC4xNDc1OCwwLDAsMC0xMy4yMjA4MSwxNC44MDkxMSw1MC42NjIxOCw1MC42NjIxOCwwLDAsMCwwLDQzLjUyMDYyLDM3LjcwMjQ4LDM3LjcwMjQ4LDAsMCwwLDEzLjM3MiwxNC44MDkxMkEzNC41NTQ1LDM0LjU1NDUsMCwwLDAsMTI1LjgyNDI3LDIzOGEyOS40Nzg0NCwyOS40Nzg0NCwwLDAsMCwxMC42NTM1Ny0xLjg4NzI5LDM1LjI5NjQ1LDM1LjI5NjQ1LDAsMCwwLDguNTM3ODctNC42MTA2LDMxLjgyMTA5LDMxLjgyMTA5LDAsMCwwLDQuNTQ2NTMtNC4wNzcsOS4wMjY1MSw5LjAyNjUxLDAsMCwwLDIuNTU0MjMsNi40MjA4LDkuMzA5MjIsOS4zMDkyMiwwLDAsMCwxMi45OTU3OCwwLDkuMDY0MzQsOS4wNjQzNCwwLDAsMCwyLjU2ODg3LTYuNTc1Vjc2LjA4NzU1YTkuMDAwNCw5LjAwMDQsMCwwLDAtMi41Njg4Ny02LjY0OUE4LjgxNzcsOC44MTc3LDAsMCwwLDE1OC42MTQzNiw2Ni44Njk3MlpNMTM5LjcyNjc5LDIxOC4wNTNhMjAuNDY5MzQsMjAuNDY5MzQsMCwwLDEtMTEuNjM1NzYsMy4zMjQ1NCwyMC4yMDQwNiwyMC4yMDQwNiwwLDAsMS0xMS40ODQ1OC0zLjMyNDU0LDIyLjQyOTMxLDIyLjQyOTMxLDAsMCwxLTcuNzgyMzMtOS4wNjY3NywyOC45MjA1MSwyOC45MjA1MSwwLDAsMS0yLjc5NC0xMi44NDQ2LDI5LjI4MjMyLDI5LjI4MjMyLDAsMCwxLDIuNzk0LTEyLjk5MjU0LDIyLjQzMDU4LDIyLjQzMDU4LDAsMCwxLDcuNzgyMzMtOS4wNjY4OSwyMC4yMjg5NCwyMC4yMjg5NCwwLDAsMSwxMS40ODQ1OC0zLjMyNDQxLDIwLjQ5NDMsMjAuNDk0MywwLDAsMSwxMS42MzU3NiwzLjMyNDQxLDIyLjQ1NjE4LDIyLjQ1NjE4LDAsMCwxLDcuNzgyMzMsOS4wNjY4OSwyOS4zMjkxMiwyOS4zMjkxMiwwLDAsMSwyLjc5NTUyLDEyLjk5MjU0LDI4Ljk2NzI4LDI4Ljk2NzI4LDAsMCwxLTIuNzk1NTIsMTIuODQ0NkEyMi40NTQ5MSwyMi40NTQ5MSwwLDAsMSwxMzkuNzI2NzksMjE4LjA1M1oiIGNsYXNzPSJjbHMtMiIvPjxwYXRoIGQ9Ik00Mi40MjI1NCwxMjMuNjI5NTlhODQuMDQ3NTMsODQuMDQ3NTMsMCwwLDEtOC44Mzk3NC0xNS41MTE4NSw4MC4wMjUwNiw4MC4wMjUwNiwwLDAsMS00LjA1NjkzLTExLjQ2MTkyYy0uNzMwODgtMi43MDgyOS0xLjI0NDUxLTUuNDY1NjQtMS43MDcwNy04LjA1Nzc5YTYzLjE5MTE4LDYzLjE5MTE4LDAsMCwxLS44ODAwNy05LjQ0NzQ4QTY4LjQwNzMxLDY4LjQwNzMxLDAsMCwxLDI4LjE0ODIsNjQuMDIwMTdjLjUwMTYxLTIuNTQ4MSwxLjAyMTI0LTUuMTg0MywxLjY4OTA1LTcuNzM2NEE2Ni4zMjE3Miw2Ni4zMjE3MiwwLDAsMSwzMy41OTI4MSw0NS43NjVjMS4zNjk2Ny0zLjAyODY4LDIuNzAzMjktNS42OTQ5Miw0LjA3Ni04LjE0OTlBODUuNjgxNDIsODUuNjgxNDIsMCwwLDEsNDkuMDcwNjIsMjIuMTIxMjdhNi44MzkxMiw2LjgzOTEyLDAsMCwwLDEuNTM1ODYtNy4wMzk1Niw4LjE3OSw4LjE3OSwwLDAsMC01Ljg2NTEyLTUuMTM1MjMsOS4zOTIzMyw5LjM5MjMzLDAsMCwwLTguMzg0MTksMS45OTI0MiwzNC4zMTM2NywzNC4zMTM2NywwLDAsMC01LjIzNzM2LDUuOTA3MTdsLS44MzcsMS4xMDAzNGE5OC40OTUsOTguNDk1LDAsMCwwLTguOTg0OTEsMTMuNTk0NTFjLTEuMTU2NDEsMi4xNTk2My0yLjI3Njc3LDQuMjgzMjEtMy4yNzIsNi41MjQ5M0MxNi43MjczMyw0MS45OTE0MSwxNS42NDYsNDQuOTM4LDE0LjQ2NjU4LDQ4LjIxMmE4MC42NTg4NCw4MC42NTg4NCwwLDAsMC0yLjI4MDc3LDcuOTc3NjlsLS4yMjQyNy44OTgxYy0uMjMyMjkuOTI3MTItLjM3MjQ2LDEuODUzMjUtLjUyMjY0LDIuODQwNDUtLjEwNjEzLjY5Nzg0LS4yMTIyNiwxLjM5NTY5LS4zNjY0NCwyLjA4MjUzYTQ3Ljg3MjQyLDQ3Ljg3MjQyLDAsMCwwLS44MSw1LjYxMTgxYy0uMTA1MTMsMS4wMTQyNC0uMjEwMjUsMi4wMjg0Ny0uMzUzNDMsMy4wMzk3YTI1LjI4ODg0LDI1LjI4ODg0LDAsMCwwLS4xMDgxMyw0LjQ1ODQxYy4wMi41NzQ3LjA0MDA1LDEuMTQ5NC4wNDAwNSwxLjY3NmE2Mi42NzAxNyw2Mi42NzAxNywwLDAsMCwuNzU2OTIsMTEuODUyNGMuMDg4MTEuNTY5NjkuMTY5MiwxLjE0MjM5LjI1MDMsMS43MTYwOGwuMDQyMDUuMjk5MzdjLjEzMjE2LjkzMTEzLjI2NTMzLDEuODYzMjYuNDIyNTIsMi43ODgzOWE3OC43MTA0NSw3OC43MTA0NSwwLDAsMCwzLjcyNzUzLDEzLjg5MTg3YzEuMDM5MjYsMi44MzA0NCwxLjk5MzQyLDUuMzc5NTQsMy4xNTA4Miw3Ljg5NzZhOTQuMTIyNDgsOTQuMTIyNDgsMCwwLDAsNy4zODQsMTMuMTE1OTMsMTAyLjAxODY0LDEwMi4wMTg2NCwwLDAsMCwxMC43MzYwNSwxMy41OTc1Miw5LjgyMTU3LDkuODIxNTcsMCwwLDAsNi42NjcxLDIuNTgxMTQsNi44NDE0NCw2Ljg0MTQ0LDAsMCwwLDEuOTgxNC0uMjcwMzNjMy4xMDI3Ny0uOTQ0MTUsNS4zMjA0Ny0yLjg5ODUyLDYuMDg0NC01LjM2MzUyYTcuMTc2NCw3LjE3NjQsMCwwLDAtMS44NjAyNi03LjAzMTU0QTEwMS40NTQxOCwxMDEuNDU0MTgsMCwwLDEsNDIuNDIyNTQsMTIzLjYyOTU5WiIgY2xhc3M9ImNscy0zIi8+PHBhdGggZD0iTTg1LjI5OTYzLDExMy45Njk4NWwtLjU5NTYuNDg1NDcuNTY4NTctLjUxODUxYy0uNTYxNjgtLjY5Mjg0LTEuMTI0MzctMS4zODQ2OC0xLjY0NS0yLjA5OTU1YTYxLjA3MTI3LDYxLjA3MTI3LDAsMCwxLTQuNzgwODEtNy44MDE0OCw2NS41Niw2NS41NiwwLDAsMS0zLjA1OTcxLTYuNTk4LDU4LjAzMzkxLDU4LjAzMzkxLDAsMCwxLTEuOTc5NDEtNi41ODNsLS4yMjcyOC0uODkzMDlhMzAuNTc0NDQsMzAuNTc0NDQsMCwwLDEtMS4wNzYzLTUuNjI5ODRjLS4wNTAwNi0uODc0MDYtLjExNzE1LTEuNzQ2MTItLjE4NTIzLTIuNjMxMTlhNDIuNDYxNjYsNDIuNDYxNjYsMCwwLDEtLjA4NDEtOC40NjQyOUw3Mi40NjksNzEuMjZBNjAuMzY4LDYwLjM2OCwwLDAsMSw3My42Mjg0NSw2My45MDRhNjAuMjQ4ODEsNjAuMjQ4ODEsMCwwLDEsNS4wNDAxMy0xMy42MzQ1N0E2NS43MzMsNjUuNzMzLDAsMCwxLDg2LjM5OCwzOC41NzEyNWMxLjU0ODg4LTEuODc3MjgsMi45ODE2Mi00LjIwMzExLDEuODY4MjctNy4yMTk3N2E3LjczOTI4LDcuNzM5MjgsMCwwLDAtNS45MDYxOC01LjIyMTM0Yy0zLjU2ODMzLS43Njg5NC02LjU2NS0uMDEzLTguNjYxNTIsMi4xODE2NUE2NS4zMDE5NCw2NS4zMDE5NCwwLDAsMCw2NC45OCw0MC4yNDYyOWE3NC4zNzU4Niw3NC4zNzU4NiwwLDAsMC02LjM0NjcxLDEzLjk0MjkzQTY5Ljk5MjI0LDY5Ljk5MjI0LDAsMCwwLDU1LjQ3ODQsNjcuNzgxNzRsLS4xMjYxNS45MTAxYTMxLjY3MjcyLDMxLjY3MjcyLDAsMCwwLS40MDY0OSw4LjM4MTE5YzAsLjQyODUyLS4wMTkuODczMDYtLjA0MDA1LDEuMzUyNjRhMTcuNzA4MTQsMTcuNzA4MTQsMCwwLDAsLjEwNzEzLDMuNjY1NDVjLjE3MDIsMS4wNDcyNy4yOTUzNiwyLjA5NzU1LjQzMjUyLDMuMjM1OTMuMTkzMjQsMS42MTUuMzkzNDgsMy4yODYuNzQ5OTEsNC45NDkuMTI2MTYuNTg3NzEuMjQxMywxLjE3NzQzLjM2MTQ0LDEuNzkxMTdBNDAuNjc5MzUsNDAuNjc5MzUsMCwwLDAsNTcuNjQzLDk2LjY1OTgyYTg3Ljc1NzU3LDg3Ljc1NzU3LDAsMCwwLDQuMjQ2MTYsMTEuMDY3NDUsNzkuODMwNCw3OS44MzA0LDAsMCwwLDExLjEzNTUzLDE3LjE3Njg2LDkuMDM0Niw5LjAzNDYsMCwwLDAsNy4xMjM2NSwzLjQ3ODIzaC4wMDRhMTEuMTM4NjYsMTEuMTM4NjYsMCwwLDAsMi4yODA3Ny0uMjQ2Myw4LjEzNzQ1LDguMTM3NDUsMCwwLDAsNS43ODctNC40Njc0Myw2LjYyMTQ4LDYuNjIxNDgsMCwwLDAtLjQ4NDU5LTYuNDgyODdBMzguOTM0MDcsMzguOTM0MDcsMCwwLDAsODUuMjk5NjMsMTEzLjk2OTg1WiIgY2xhc3M9ImNscy00Ii8+PHBhdGggZD0iTTExOS41MTExOSw4OS4xNzg3M2EzNi4xMzA4MiwzNi4xMzA4MiwwLDAsMS0yLjA3MzUxLTkuNDMwNDUsMzkuNTcyMjIsMzkuNTcyMjIsMCwwLDEsLjUzODY1LTEwLjI4MzVsLjA2NTA4LS4zMjQzOWEyNS44NzE3NSwyNS44NzE3NSwwLDAsMSwxLjE4MTQzLTQuNTYzNTUsNDUuODE3NzMsNDUuODE3NzMsMCwwLDEsNS4xOTczMi05Ljg1OWMxLjc5ODE4LTIuNTI3MDcsMi4xMzU1OS00Ljk3MSwxLjAwNDIyLTcuMjYxODNhOC4zMzkzOCw4LjMzOTM4LDAsMCwwLTcuMTkzNzQtNC43Njg3OSw4LjU1MTk0LDguNTUxOTQsMCwwLDAtNy43NDA0LDMuMDk5NzcsNTEuMTY0NTgsNTEuMTY0NTgsMCwwLDAtNC44NDE4OSw3Ljg3MzU2LDQ5Ljk4Mjc4LDQ5Ljk4Mjc4LDAsMCwwLTQuNjU3NjYsMTMuMTI0OTUsNDEuNzc0NDgsNDEuNzc0NDgsMCwwLDAtLjkzMTEzLDkuNzQwODMsNTAuNjMwNjgsNTAuNjMwNjgsMCwwLDAsMS4zNzk2OCwxMS44NDk0LDUxLjQyODA5LDUxLjQyODA5LDAsMCwwLDMuMzI0LDkuNDMwNDUsNTcuOTY0NjIsNTcuOTY0NjIsMCwwLDAsNC42Mzg2Myw4LjI4NDA3LDkuNzczODIsOS43NzM4MiwwLDAsMCw2LjgxODI5LDQuNzE0NzMsOS4wNTYwNyw5LjA1NjA3LDAsMCwwLDEuNDUwNzYuMTE1MTQsOS4yODQ1NSw5LjI4NDU1LDAsMCwwLDUuNDgyNjYtMS43OTIxOCw3LjA4ODI5LDcuMDg4MjksMCwwLDAsMi45OTQ2NC01LjEyMzIzLDguNzE5MjgsOC43MTkyOCwwLDAsMC0xLjk0NDM2LTUuODQ2MUEzNC42MDIwNiwzNC42MDIwNiwwLDAsMSwxMTkuNTExMTksODkuMTc4NzNaIiBjbGFzcz0iY2xzLTUiLz48L3N2Zz4=;sketch=1;fontFamily=IBM Plex Mono;fontSize=19;" parent="1" vertex="1">
                    <mxGeometry x="427" y="310" width="23" height="31.3" as="geometry"/>
                </mxCell>
                <mxCell id="xMlnUiTXEX7Q_oC-0Y35-7" value="&lt;font style=&quot;font-size: 15px;&quot;&gt;Trigger&lt;/font&gt;" style="rounded=1;whiteSpace=wrap;html=1;fontFamily=IBM Plex Mono;fontSize=19;fillColor=#f5f5f5;fontColor=#333333;strokeColor=#666666;sketch=1;" parent="1" vertex="1">
                    <mxGeometry x="551.5" y="380" width="81.5" height="40" as="geometry"/>
                </mxCell>
                <mxCell id="xMlnUiTXEX7Q_oC-0Y35-11" style="edgeStyle=none;orthogonalLoop=1;jettySize=auto;html=1;fontFamily=IBM Plex Mono;fontSize=19;fillColor=#dae8fc;strokeColor=#6c8ebf;entryX=0.182;entryY=1;entryDx=0;entryDy=0;entryPerimeter=0;exitX=0.213;exitY=-0.046;exitDx=0;exitDy=0;exitPerimeter=0;endSize=10;strokeWidth=1;startSize=6;rounded=0;sketch=1;" parent="1" source="xMlnUiTXEX7Q_oC-0Y35-8" target="xMlnUiTXEX7Q_oC-0Y35-10" edge="1">
                    <mxGeometry relative="1" as="geometry">
                        <mxPoint x="595" y="329" as="sourcePoint"/>
                        <mxPoint x="594" y="250" as="targetPoint"/>
                    </mxGeometry>
                </mxCell>
                <mxCell id="xMlnUiTXEX7Q_oC-0Y35-8" value="&lt;font style=&quot;font-size: 15px;&quot;&gt;Policies&lt;/font&gt;" style="rounded=1;whiteSpace=wrap;html=1;fontFamily=IBM Plex Mono;fontSize=19;fillColor=#f5f5f5;fontColor=#333333;strokeColor=#666666;sketch=1;" parent="1" vertex="1">
                    <mxGeometry x="551.5" y="330" width="81.5" height="40" as="geometry"/>
                </mxCell>
                <mxCell id="xMlnUiTXEX7Q_oC-0Y35-12" value="" style="shape=image;verticalLabelPosition=bottom;verticalAlign=top;imageAspect=0;aspect=fixed;image=data:image/svg+xml,PHN2ZyB4bWxuczp4bGluaz0iaHR0cDovL3d3dy53My5vcmcvMTk5OS94bGluayIgeG1sbnM9Imh0dHA6Ly93d3cudzMub3JnLzIwMDAvc3ZnIiB2aWV3Qm94PSIwIDAgMTgzIDI0OSIgZGF0YS1uYW1lPSJMYXllciAxIiBpZD0iTGF5ZXJfMSI+PGRlZnM+PHN0eWxlPi5jbHMtMXtmaWxsOnVybCgjbGluZWFyLWdyYWRpZW50KTt9LmNscy0ye2ZpbGw6dXJsKCNsaW5lYXItZ3JhZGllbnQtMik7fS5jbHMtM3tmaWxsOnVybCgjbGluZWFyLWdyYWRpZW50LTMpO30uY2xzLTR7ZmlsbDp1cmwoI2xpbmVhci1ncmFkaWVudC00KTt9LmNscy01e2ZpbGw6dXJsKCNsaW5lYXItZ3JhZGllbnQtNSk7fTwvc3R5bGU+PGxpbmVhckdyYWRpZW50IGdyYWRpZW50VW5pdHM9InVzZXJTcGFjZU9uVXNlIiB5Mj0iNDMyLjYwMTI4IiB4Mj0iNDQ5LjExNjA0IiB5MT0iMTA5Ljg2NDE3IiB4MT0iLTkzLjM1Njk4IiBpZD0ibGluZWFyLWdyYWRpZW50Ij48c3RvcCBzdG9wLWNvbG9yPSIjMmUzMTkwIiBvZmZzZXQ9IjAiLz48c3RvcCBzdG9wLWNvbG9yPSIjNTBhNzkyIiBvZmZzZXQ9IjAuNTUwNjEiLz48c3RvcCBzdG9wLWNvbG9yPSIjMzliMzRhIiBvZmZzZXQ9IjEiLz48L2xpbmVhckdyYWRpZW50PjxsaW5lYXJHcmFkaWVudCB4bGluazpocmVmPSIjbGluZWFyLWdyYWRpZW50IiB5Mj0iMzYyLjEwNzc4IiB4Mj0iNDkxLjA1NTIxIiB5MT0iMzkuMzcwNjciIHgxPSItNTEuNDE3ODEiIGlkPSJsaW5lYXItZ3JhZGllbnQtMiIvPjxsaW5lYXJHcmFkaWVudCB4bGluazpocmVmPSIjbGluZWFyLWdyYWRpZW50IiB5Mj0iMzQ4LjY2MDM0IiB4Mj0iNDk5LjA1NTU5IiB5MT0iMjUuOTIzMjMiIHgxPSItNDMuNDE3NDMiIGlkPSJsaW5lYXItZ3JhZGllbnQtMyIvPjxsaW5lYXJHcmFkaWVudCB4bGluazpocmVmPSIjbGluZWFyLWdyYWRpZW50IiB5Mj0iMzMyLjEzNTQ4IiB4Mj0iNTA4Ljg4NjgzIiB5MT0iOS4zOTgzNyIgeDE9Ii0zMy41ODYxOCIgaWQ9ImxpbmVhci1ncmFkaWVudC00Ii8+PGxpbmVhckdyYWRpZW50IHhsaW5rOmhyZWY9IiNsaW5lYXItZ3JhZGllbnQiIHkyPSIzMTUuNDcyNTMiIHgyPSI1MTguODAwMjMiIHkxPSItNy4yNjQ1OCIgeDE9Ii0yMy42NzI3OCIgaWQ9ImxpbmVhci1ncmFkaWVudC01Ii8+PC9kZWZzPjxwYXRoIGQ9Ik03MS44ODAxMSwyMTUuNjM1MmE3Ljc0MTY3LDcuNzQxNjcsMCwwLDAtNC45ODY4LDEuMzYsMjcuNDk4ODQsMjcuNDk4ODQsMCwwLDEtMy43Nzc4NCwyLjU2OSwxNi4xMTEwNiwxNi4xMTEwNiwwLDAsMS00LjUzMzM5LDEuMzU5OSw0MC4xNjQ3Nyw0MC4xNjQ3NywwLDAsMS02LjQ5Nzg5LjQ1MzQzQTIxLjg0MDA3LDIxLjg0MDA3LDAsMCwxLDQwLjA3MDcyLDIxOC4wNTNhMjMuMDU2MjQsMjMuMDU2MjQsMCwwLDEtOC4xNjAxNi04Ljk4OTY3LDI3LjYwMTI1LDI3LjYwMTI1LDAsMCwxLTIuOTQ2NzEtMTIuOTIxNywyOC41MzY5NCwyOC41MzY5NCwwLDAsMSwyLjg3MTI0LTEzLjA2OTc2LDIyLjEzNjIyLDIyLjEzNjIyLDAsMCwxLDguMjM1NjMtOC45ODk2N0EyNC4zNTYsMjQuMzU2LDAsMCwxLDUzLjE0MiwxNzAuNzU3ODFhMzAuNTYyLDMwLjU2MiwwLDAsMSw0LjYwOS41MjcyNiwxMy44NTczOCwxMy44NTczOCwwLDAsMSw0LjYwOSwxLjQzNzEzLDE2LjA4ODY1LDE2LjA4ODY1LDAsMCwxLDIuODcxMTIsMS45NjQ1MSwxMC40OTI4NSwxMC40OTI4NSwwLDAsMCwyLjc5NTY0LDEuNzM2MjMsMTAuMjA3MjYsMTAuMjA3MjYsMCwwLDAsNC4wMDQ0OS42ODE1OCw2LjAwNTY3LDYuMDA1NjcsMCwwLDAsNS4yODc0My0yLjY0NjA5LDkuODI2MzksOS44MjYzOSwwLDAsMCwxLjgxMzMyLTUuNjY1MTMsMTAuMTk2NzQsMTAuMTk2NzQsMCwwLDAtMy41NTExOS03Ljc4NCwyNC40MzI1MywyNC40MzI1MywwLDAsMC05Ljk3MTg2LTUuMDYwNjUsNTUuNjM2NzksNTUuNjM2NzksMCwwLDAtMTUuMDM1NzctMS44MTM0NSwzOS41MTEsMzkuNTExLDAsMCwwLTIwLjYyNjkzLDUuMzYzLDM3LjU0NDU5LDM3LjU0NDU5LDAsMCwwLTE0LjA1MTk1LDE0LjgwOTExLDQ1LjUxNzYyLDQ1LjUxNzYyLDAsMCwwLTUuMDYyNCwyMS44MzQyOEE0Ni45Nzg0OCw0Ni45Nzg0OCwwLDAsMCwxNS41OTIsMjE3LjQ0ODUzLDM2Ljg2NzUxLDM2Ljg2NzUxLDAsMCwwLDI5LjExNSwyMzIuNDg1OTNRMzcuODc4LDIzOC4wMDMyNSw0OS44MTc1NiwyMzhhNTYuMTI2OTIsNTYuMTI2OTIsMCwwLDAsMTQuODg0NTgtMS44ODcyOSwzNC4wMzIzOCwzNC4wMzIzOCwwLDAsMCwxMS4xMDUyNC00Ljk4NjgxcTQuMjI5NTItMy4wOTYyLDQuMjMxMTQtNi44NzcyM2E5LjEzNDY1LDkuMTM0NjUsMCwwLDAtMi4xMTU1Ny02LjExODQzQTcuNDkwNjgsNy40OTA2OCwwLDAsMCw3MS44ODAxMSwyMTUuNjM1MloiIGNsYXNzPSJjbHMtMSIvPjxwYXRoIGQ9Ik0xNTguNjE0MzYsNjYuODY5NzJhOC42Nzc2Myw4LjY3NzYzLDAsMCwwLTYuNDk3ODksMi42NDYwOSw5LjA1NDIsOS4wNTQyLDAsMCwwLTIuNTY3MzcsNi41NzE3NHY4Ny40ODcyOGEzNi40NSwzNi40NSwwLDAsMC0yLjk0NjcxLTIuNDg4MjcsMzUuNjE5NDQsMzUuNjE5NDQsMCwwLDAtOS40NDQ2LTQuOTg2ODEsMzQuOTQ1NzUsMzQuOTQ1NzUsMCwwLDAtMTEuOTM3ODgtMS45NjQ1MSwzMy4zMTY1NSwzMy4zMTY1NSwwLDAsMC0xOC40MzU4OSw1LjM2MywzOC4xNDc1OCwzOC4xNDc1OCwwLDAsMC0xMy4yMjA4MSwxNC44MDkxMSw1MC42NjIxOCw1MC42NjIxOCwwLDAsMCwwLDQzLjUyMDYyLDM3LjcwMjQ4LDM3LjcwMjQ4LDAsMCwwLDEzLjM3MiwxNC44MDkxMkEzNC41NTQ1LDM0LjU1NDUsMCwwLDAsMTI1LjgyNDI3LDIzOGEyOS40Nzg0NCwyOS40Nzg0NCwwLDAsMCwxMC42NTM1Ny0xLjg4NzI5LDM1LjI5NjQ1LDM1LjI5NjQ1LDAsMCwwLDguNTM3ODctNC42MTA2LDMxLjgyMTA5LDMxLjgyMTA5LDAsMCwwLDQuNTQ2NTMtNC4wNzcsOS4wMjY1MSw5LjAyNjUxLDAsMCwwLDIuNTU0MjMsNi40MjA4LDkuMzA5MjIsOS4zMDkyMiwwLDAsMCwxMi45OTU3OCwwLDkuMDY0MzQsOS4wNjQzNCwwLDAsMCwyLjU2ODg3LTYuNTc1Vjc2LjA4NzU1YTkuMDAwNCw5LjAwMDQsMCwwLDAtMi41Njg4Ny02LjY0OUE4LjgxNzcsOC44MTc3LDAsMCwwLDE1OC42MTQzNiw2Ni44Njk3MlpNMTM5LjcyNjc5LDIxOC4wNTNhMjAuNDY5MzQsMjAuNDY5MzQsMCwwLDEtMTEuNjM1NzYsMy4zMjQ1NCwyMC4yMDQwNiwyMC4yMDQwNiwwLDAsMS0xMS40ODQ1OC0zLjMyNDU0LDIyLjQyOTMxLDIyLjQyOTMxLDAsMCwxLTcuNzgyMzMtOS4wNjY3NywyOC45MjA1MSwyOC45MjA1MSwwLDAsMS0yLjc5NC0xMi44NDQ2LDI5LjI4MjMyLDI5LjI4MjMyLDAsMCwxLDIuNzk0LTEyLjk5MjU0LDIyLjQzMDU4LDIyLjQzMDU4LDAsMCwxLDcuNzgyMzMtOS4wNjY4OSwyMC4yMjg5NCwyMC4yMjg5NCwwLDAsMSwxMS40ODQ1OC0zLjMyNDQxLDIwLjQ5NDMsMjAuNDk0MywwLDAsMSwxMS42MzU3NiwzLjMyNDQxLDIyLjQ1NjE4LDIyLjQ1NjE4LDAsMCwxLDcuNzgyMzMsOS4wNjY4OSwyOS4zMjkxMiwyOS4zMjkxMiwwLDAsMSwyLjc5NTUyLDEyLjk5MjU0LDI4Ljk2NzI4LDI4Ljk2NzI4LDAsMCwxLTIuNzk1NTIsMTIuODQ0NkEyMi40NTQ5MSwyMi40NTQ5MSwwLDAsMSwxMzkuNzI2NzksMjE4LjA1M1oiIGNsYXNzPSJjbHMtMiIvPjxwYXRoIGQ9Ik00Mi40MjI1NCwxMjMuNjI5NTlhODQuMDQ3NTMsODQuMDQ3NTMsMCwwLDEtOC44Mzk3NC0xNS41MTE4NSw4MC4wMjUwNiw4MC4wMjUwNiwwLDAsMS00LjA1NjkzLTExLjQ2MTkyYy0uNzMwODgtMi43MDgyOS0xLjI0NDUxLTUuNDY1NjQtMS43MDcwNy04LjA1Nzc5YTYzLjE5MTE4LDYzLjE5MTE4LDAsMCwxLS44ODAwNy05LjQ0NzQ4QTY4LjQwNzMxLDY4LjQwNzMxLDAsMCwxLDI4LjE0ODIsNjQuMDIwMTdjLjUwMTYxLTIuNTQ4MSwxLjAyMTI0LTUuMTg0MywxLjY4OTA1LTcuNzM2NEE2Ni4zMjE3Miw2Ni4zMjE3MiwwLDAsMSwzMy41OTI4MSw0NS43NjVjMS4zNjk2Ny0zLjAyODY4LDIuNzAzMjktNS42OTQ5Miw0LjA3Ni04LjE0OTlBODUuNjgxNDIsODUuNjgxNDIsMCwwLDEsNDkuMDcwNjIsMjIuMTIxMjdhNi44MzkxMiw2LjgzOTEyLDAsMCwwLDEuNTM1ODYtNy4wMzk1Niw4LjE3OSw4LjE3OSwwLDAsMC01Ljg2NTEyLTUuMTM1MjMsOS4zOTIzMyw5LjM5MjMzLDAsMCwwLTguMzg0MTksMS45OTI0MiwzNC4zMTM2NywzNC4zMTM2NywwLDAsMC01LjIzNzM2LDUuOTA3MTdsLS44MzcsMS4xMDAzNGE5OC40OTUsOTguNDk1LDAsMCwwLTguOTg0OTEsMTMuNTk0NTFjLTEuMTU2NDEsMi4xNTk2My0yLjI3Njc3LDQuMjgzMjEtMy4yNzIsNi41MjQ5M0MxNi43MjczMyw0MS45OTE0MSwxNS42NDYsNDQuOTM4LDE0LjQ2NjU4LDQ4LjIxMmE4MC42NTg4NCw4MC42NTg4NCwwLDAsMC0yLjI4MDc3LDcuOTc3NjlsLS4yMjQyNy44OTgxYy0uMjMyMjkuOTI3MTItLjM3MjQ2LDEuODUzMjUtLjUyMjY0LDIuODQwNDUtLjEwNjEzLjY5Nzg0LS4yMTIyNiwxLjM5NTY5LS4zNjY0NCwyLjA4MjUzYTQ3Ljg3MjQyLDQ3Ljg3MjQyLDAsMCwwLS44MSw1LjYxMTgxYy0uMTA1MTMsMS4wMTQyNC0uMjEwMjUsMi4wMjg0Ny0uMzUzNDMsMy4wMzk3YTI1LjI4ODg0LDI1LjI4ODg0LDAsMCwwLS4xMDgxMyw0LjQ1ODQxYy4wMi41NzQ3LjA0MDA1LDEuMTQ5NC4wNDAwNSwxLjY3NmE2Mi42NzAxNyw2Mi42NzAxNywwLDAsMCwuNzU2OTIsMTEuODUyNGMuMDg4MTEuNTY5NjkuMTY5MiwxLjE0MjM5LjI1MDMsMS43MTYwOGwuMDQyMDUuMjk5MzdjLjEzMjE2LjkzMTEzLjI2NTMzLDEuODYzMjYuNDIyNTIsMi43ODgzOWE3OC43MTA0NSw3OC43MTA0NSwwLDAsMCwzLjcyNzUzLDEzLjg5MTg3YzEuMDM5MjYsMi44MzA0NCwxLjk5MzQyLDUuMzc5NTQsMy4xNTA4Miw3Ljg5NzZhOTQuMTIyNDgsOTQuMTIyNDgsMCwwLDAsNy4zODQsMTMuMTE1OTMsMTAyLjAxODY0LDEwMi4wMTg2NCwwLDAsMCwxMC43MzYwNSwxMy41OTc1Miw5LjgyMTU3LDkuODIxNTcsMCwwLDAsNi42NjcxLDIuNTgxMTQsNi44NDE0NCw2Ljg0MTQ0LDAsMCwwLDEuOTgxNC0uMjcwMzNjMy4xMDI3Ny0uOTQ0MTUsNS4zMjA0Ny0yLjg5ODUyLDYuMDg0NC01LjM2MzUyYTcuMTc2NCw3LjE3NjQsMCwwLDAtMS44NjAyNi03LjAzMTU0QTEwMS40NTQxOCwxMDEuNDU0MTgsMCwwLDEsNDIuNDIyNTQsMTIzLjYyOTU5WiIgY2xhc3M9ImNscy0zIi8+PHBhdGggZD0iTTg1LjI5OTYzLDExMy45Njk4NWwtLjU5NTYuNDg1NDcuNTY4NTctLjUxODUxYy0uNTYxNjgtLjY5Mjg0LTEuMTI0MzctMS4zODQ2OC0xLjY0NS0yLjA5OTU1YTYxLjA3MTI3LDYxLjA3MTI3LDAsMCwxLTQuNzgwODEtNy44MDE0OCw2NS41Niw2NS41NiwwLDAsMS0zLjA1OTcxLTYuNTk4LDU4LjAzMzkxLDU4LjAzMzkxLDAsMCwxLTEuOTc5NDEtNi41ODNsLS4yMjcyOC0uODkzMDlhMzAuNTc0NDQsMzAuNTc0NDQsMCwwLDEtMS4wNzYzLTUuNjI5ODRjLS4wNTAwNi0uODc0MDYtLjExNzE1LTEuNzQ2MTItLjE4NTIzLTIuNjMxMTlhNDIuNDYxNjYsNDIuNDYxNjYsMCwwLDEtLjA4NDEtOC40NjQyOUw3Mi40NjksNzEuMjZBNjAuMzY4LDYwLjM2OCwwLDAsMSw3My42Mjg0NSw2My45MDRhNjAuMjQ4ODEsNjAuMjQ4ODEsMCwwLDEsNS4wNDAxMy0xMy42MzQ1N0E2NS43MzMsNjUuNzMzLDAsMCwxLDg2LjM5OCwzOC41NzEyNWMxLjU0ODg4LTEuODc3MjgsMi45ODE2Mi00LjIwMzExLDEuODY4MjctNy4yMTk3N2E3LjczOTI4LDcuNzM5MjgsMCwwLDAtNS45MDYxOC01LjIyMTM0Yy0zLjU2ODMzLS43Njg5NC02LjU2NS0uMDEzLTguNjYxNTIsMi4xODE2NUE2NS4zMDE5NCw2NS4zMDE5NCwwLDAsMCw2NC45OCw0MC4yNDYyOWE3NC4zNzU4Niw3NC4zNzU4NiwwLDAsMC02LjM0NjcxLDEzLjk0MjkzQTY5Ljk5MjI0LDY5Ljk5MjI0LDAsMCwwLDU1LjQ3ODQsNjcuNzgxNzRsLS4xMjYxNS45MTAxYTMxLjY3MjcyLDMxLjY3MjcyLDAsMCwwLS40MDY0OSw4LjM4MTE5YzAsLjQyODUyLS4wMTkuODczMDYtLjA0MDA1LDEuMzUyNjRhMTcuNzA4MTQsMTcuNzA4MTQsMCwwLDAsLjEwNzEzLDMuNjY1NDVjLjE3MDIsMS4wNDcyNy4yOTUzNiwyLjA5NzU1LjQzMjUyLDMuMjM1OTMuMTkzMjQsMS42MTUuMzkzNDgsMy4yODYuNzQ5OTEsNC45NDkuMTI2MTYuNTg3NzEuMjQxMywxLjE3NzQzLjM2MTQ0LDEuNzkxMTdBNDAuNjc5MzUsNDAuNjc5MzUsMCwwLDAsNTcuNjQzLDk2LjY1OTgyYTg3Ljc1NzU3LDg3Ljc1NzU3LDAsMCwwLDQuMjQ2MTYsMTEuMDY3NDUsNzkuODMwNCw3OS44MzA0LDAsMCwwLDExLjEzNTUzLDE3LjE3Njg2LDkuMDM0Niw5LjAzNDYsMCwwLDAsNy4xMjM2NSwzLjQ3ODIzaC4wMDRhMTEuMTM4NjYsMTEuMTM4NjYsMCwwLDAsMi4yODA3Ny0uMjQ2Myw4LjEzNzQ1LDguMTM3NDUsMCwwLDAsNS43ODctNC40Njc0Myw2LjYyMTQ4LDYuNjIxNDgsMCwwLDAtLjQ4NDU5LTYuNDgyODdBMzguOTM0MDcsMzguOTM0MDcsMCwwLDAsODUuMjk5NjMsMTEzLjk2OTg1WiIgY2xhc3M9ImNscy00Ii8+PHBhdGggZD0iTTExOS41MTExOSw4OS4xNzg3M2EzNi4xMzA4MiwzNi4xMzA4MiwwLDAsMS0yLjA3MzUxLTkuNDMwNDUsMzkuNTcyMjIsMzkuNTcyMjIsMCwwLDEsLjUzODY1LTEwLjI4MzVsLjA2NTA4LS4zMjQzOWEyNS44NzE3NSwyNS44NzE3NSwwLDAsMSwxLjE4MTQzLTQuNTYzNTUsNDUuODE3NzMsNDUuODE3NzMsMCwwLDEsNS4xOTczMi05Ljg1OWMxLjc5ODE4LTIuNTI3MDcsMi4xMzU1OS00Ljk3MSwxLjAwNDIyLTcuMjYxODNhOC4zMzkzOCw4LjMzOTM4LDAsMCwwLTcuMTkzNzQtNC43Njg3OSw4LjU1MTk0LDguNTUxOTQsMCwwLDAtNy43NDA0LDMuMDk5NzcsNTEuMTY0NTgsNTEuMTY0NTgsMCwwLDAtNC44NDE4OSw3Ljg3MzU2LDQ5Ljk4Mjc4LDQ5Ljk4Mjc4LDAsMCwwLTQuNjU3NjYsMTMuMTI0OTUsNDEuNzc0NDgsNDEuNzc0NDgsMCwwLDAtLjkzMTEzLDkuNzQwODMsNTAuNjMwNjgsNTAuNjMwNjgsMCwwLDAsMS4zNzk2OCwxMS44NDk0LDUxLjQyODA5LDUxLjQyODA5LDAsMCwwLDMuMzI0LDkuNDMwNDUsNTcuOTY0NjIsNTcuOTY0NjIsMCwwLDAsNC42Mzg2Myw4LjI4NDA3LDkuNzczODIsOS43NzM4MiwwLDAsMCw2LjgxODI5LDQuNzE0NzMsOS4wNTYwNyw5LjA1NjA3LDAsMCwwLDEuNDUwNzYuMTE1MTQsOS4yODQ1NSw5LjI4NDU1LDAsMCwwLDUuNDgyNjYtMS43OTIxOCw3LjA4ODI5LDcuMDg4MjksMCwwLDAsMi45OTQ2NC01LjEyMzIzLDguNzE5MjgsOC43MTkyOCwwLDAsMC0xLjk0NDM2LTUuODQ2MUEzNC42MDIwNiwzNC42MDIwNiwwLDAsMSwxMTkuNTExMTksODkuMTc4NzNaIiBjbGFzcz0iY2xzLTUiLz48L3N2Zz4=;sketch=1;fontFamily=IBM Plex Mono;fontSize=19;" parent="1" vertex="1">
                    <mxGeometry x="540" y="279.5" width="23" height="31.3" as="geometry"/>
                </mxCell>
                <mxCell id="xMlnUiTXEX7Q_oC-0Y35-24" style="edgeStyle=none;rounded=0;orthogonalLoop=1;jettySize=auto;html=1;entryX=0;entryY=0.5;entryDx=0;entryDy=0;entryPerimeter=0;fontFamily=IBM Plex Mono;fontSize=11;dashed=1;sketch=1;" parent="1" source="xMlnUiTXEX7Q_oC-0Y35-10" target="xMlnUiTXEX7Q_oC-0Y35-23" edge="1">
                    <mxGeometry relative="1" as="geometry"/>
                </mxCell>
                <mxCell id="xMlnUiTXEX7Q_oC-0Y35-10" value="&lt;font style=&quot;font-size: 19px;&quot;&gt;Build,&lt;br&gt;Test, Sign&lt;br&gt;&lt;/font&gt;" style="rounded=1;whiteSpace=wrap;html=1;fontFamily=IBM Plex Mono;fontSize=19;fillColor=#e1d5e7;strokeColor=#9673a6;sketch=1;gradientColor=none;" parent="1" vertex="1">
                    <mxGeometry x="548.75" y="180" width="111.25" height="80" as="geometry"/>
                </mxCell>
                <mxCell id="xMlnUiTXEX7Q_oC-0Y35-16" value="" style="shape=image;verticalLabelPosition=bottom;verticalAlign=top;imageAspect=0;aspect=fixed;image=data:image/svg+xml,PHN2ZyB4bWxuczp4bGluaz0iaHR0cDovL3d3dy53My5vcmcvMTk5OS94bGluayIgeG1sbnM9Imh0dHA6Ly93d3cudzMub3JnLzIwMDAvc3ZnIiB2aWV3Qm94PSIwIDAgMTgzIDI0OSIgZGF0YS1uYW1lPSJMYXllciAxIiBpZD0iTGF5ZXJfMSI+PGRlZnM+PHN0eWxlPi5jbHMtMXtmaWxsOnVybCgjbGluZWFyLWdyYWRpZW50KTt9LmNscy0ye2ZpbGw6dXJsKCNsaW5lYXItZ3JhZGllbnQtMik7fS5jbHMtM3tmaWxsOnVybCgjbGluZWFyLWdyYWRpZW50LTMpO30uY2xzLTR7ZmlsbDp1cmwoI2xpbmVhci1ncmFkaWVudC00KTt9LmNscy01e2ZpbGw6dXJsKCNsaW5lYXItZ3JhZGllbnQtNSk7fTwvc3R5bGU+PGxpbmVhckdyYWRpZW50IGdyYWRpZW50VW5pdHM9InVzZXJTcGFjZU9uVXNlIiB5Mj0iNDMyLjYwMTI4IiB4Mj0iNDQ5LjExNjA0IiB5MT0iMTA5Ljg2NDE3IiB4MT0iLTkzLjM1Njk4IiBpZD0ibGluZWFyLWdyYWRpZW50Ij48c3RvcCBzdG9wLWNvbG9yPSIjMmUzMTkwIiBvZmZzZXQ9IjAiLz48c3RvcCBzdG9wLWNvbG9yPSIjNTBhNzkyIiBvZmZzZXQ9IjAuNTUwNjEiLz48c3RvcCBzdG9wLWNvbG9yPSIjMzliMzRhIiBvZmZzZXQ9IjEiLz48L2xpbmVhckdyYWRpZW50PjxsaW5lYXJHcmFkaWVudCB4bGluazpocmVmPSIjbGluZWFyLWdyYWRpZW50IiB5Mj0iMzYyLjEwNzc4IiB4Mj0iNDkxLjA1NTIxIiB5MT0iMzkuMzcwNjciIHgxPSItNTEuNDE3ODEiIGlkPSJsaW5lYXItZ3JhZGllbnQtMiIvPjxsaW5lYXJHcmFkaWVudCB4bGluazpocmVmPSIjbGluZWFyLWdyYWRpZW50IiB5Mj0iMzQ4LjY2MDM0IiB4Mj0iNDk5LjA1NTU5IiB5MT0iMjUuOTIzMjMiIHgxPSItNDMuNDE3NDMiIGlkPSJsaW5lYXItZ3JhZGllbnQtMyIvPjxsaW5lYXJHcmFkaWVudCB4bGluazpocmVmPSIjbGluZWFyLWdyYWRpZW50IiB5Mj0iMzMyLjEzNTQ4IiB4Mj0iNTA4Ljg4NjgzIiB5MT0iOS4zOTgzNyIgeDE9Ii0zMy41ODYxOCIgaWQ9ImxpbmVhci1ncmFkaWVudC00Ii8+PGxpbmVhckdyYWRpZW50IHhsaW5rOmhyZWY9IiNsaW5lYXItZ3JhZGllbnQiIHkyPSIzMTUuNDcyNTMiIHgyPSI1MTguODAwMjMiIHkxPSItNy4yNjQ1OCIgeDE9Ii0yMy42NzI3OCIgaWQ9ImxpbmVhci1ncmFkaWVudC01Ii8+PC9kZWZzPjxwYXRoIGQ9Ik03MS44ODAxMSwyMTUuNjM1MmE3Ljc0MTY3LDcuNzQxNjcsMCwwLDAtNC45ODY4LDEuMzYsMjcuNDk4ODQsMjcuNDk4ODQsMCwwLDEtMy43Nzc4NCwyLjU2OSwxNi4xMTEwNiwxNi4xMTEwNiwwLDAsMS00LjUzMzM5LDEuMzU5OSw0MC4xNjQ3Nyw0MC4xNjQ3NywwLDAsMS02LjQ5Nzg5LjQ1MzQzQTIxLjg0MDA3LDIxLjg0MDA3LDAsMCwxLDQwLjA3MDcyLDIxOC4wNTNhMjMuMDU2MjQsMjMuMDU2MjQsMCwwLDEtOC4xNjAxNi04Ljk4OTY3LDI3LjYwMTI1LDI3LjYwMTI1LDAsMCwxLTIuOTQ2NzEtMTIuOTIxNywyOC41MzY5NCwyOC41MzY5NCwwLDAsMSwyLjg3MTI0LTEzLjA2OTc2LDIyLjEzNjIyLDIyLjEzNjIyLDAsMCwxLDguMjM1NjMtOC45ODk2N0EyNC4zNTYsMjQuMzU2LDAsMCwxLDUzLjE0MiwxNzAuNzU3ODFhMzAuNTYyLDMwLjU2MiwwLDAsMSw0LjYwOS41MjcyNiwxMy44NTczOCwxMy44NTczOCwwLDAsMSw0LjYwOSwxLjQzNzEzLDE2LjA4ODY1LDE2LjA4ODY1LDAsMCwxLDIuODcxMTIsMS45NjQ1MSwxMC40OTI4NSwxMC40OTI4NSwwLDAsMCwyLjc5NTY0LDEuNzM2MjMsMTAuMjA3MjYsMTAuMjA3MjYsMCwwLDAsNC4wMDQ0OS42ODE1OCw2LjAwNTY3LDYuMDA1NjcsMCwwLDAsNS4yODc0My0yLjY0NjA5LDkuODI2MzksOS44MjYzOSwwLDAsMCwxLjgxMzMyLTUuNjY1MTMsMTAuMTk2NzQsMTAuMTk2NzQsMCwwLDAtMy41NTExOS03Ljc4NCwyNC40MzI1MywyNC40MzI1MywwLDAsMC05Ljk3MTg2LTUuMDYwNjUsNTUuNjM2NzksNTUuNjM2NzksMCwwLDAtMTUuMDM1NzctMS44MTM0NSwzOS41MTEsMzkuNTExLDAsMCwwLTIwLjYyNjkzLDUuMzYzLDM3LjU0NDU5LDM3LjU0NDU5LDAsMCwwLTE0LjA1MTk1LDE0LjgwOTExLDQ1LjUxNzYyLDQ1LjUxNzYyLDAsMCwwLTUuMDYyNCwyMS44MzQyOEE0Ni45Nzg0OCw0Ni45Nzg0OCwwLDAsMCwxNS41OTIsMjE3LjQ0ODUzLDM2Ljg2NzUxLDM2Ljg2NzUxLDAsMCwwLDI5LjExNSwyMzIuNDg1OTNRMzcuODc4LDIzOC4wMDMyNSw0OS44MTc1NiwyMzhhNTYuMTI2OTIsNTYuMTI2OTIsMCwwLDAsMTQuODg0NTgtMS44ODcyOSwzNC4wMzIzOCwzNC4wMzIzOCwwLDAsMCwxMS4xMDUyNC00Ljk4NjgxcTQuMjI5NTItMy4wOTYyLDQuMjMxMTQtNi44NzcyM2E5LjEzNDY1LDkuMTM0NjUsMCwwLDAtMi4xMTU1Ny02LjExODQzQTcuNDkwNjgsNy40OTA2OCwwLDAsMCw3MS44ODAxMSwyMTUuNjM1MloiIGNsYXNzPSJjbHMtMSIvPjxwYXRoIGQ9Ik0xNTguNjE0MzYsNjYuODY5NzJhOC42Nzc2Myw4LjY3NzYzLDAsMCwwLTYuNDk3ODksMi42NDYwOSw5LjA1NDIsOS4wNTQyLDAsMCwwLTIuNTY3MzcsNi41NzE3NHY4Ny40ODcyOGEzNi40NSwzNi40NSwwLDAsMC0yLjk0NjcxLTIuNDg4MjcsMzUuNjE5NDQsMzUuNjE5NDQsMCwwLDAtOS40NDQ2LTQuOTg2ODEsMzQuOTQ1NzUsMzQuOTQ1NzUsMCwwLDAtMTEuOTM3ODgtMS45NjQ1MSwzMy4zMTY1NSwzMy4zMTY1NSwwLDAsMC0xOC40MzU4OSw1LjM2MywzOC4xNDc1OCwzOC4xNDc1OCwwLDAsMC0xMy4yMjA4MSwxNC44MDkxMSw1MC42NjIxOCw1MC42NjIxOCwwLDAsMCwwLDQzLjUyMDYyLDM3LjcwMjQ4LDM3LjcwMjQ4LDAsMCwwLDEzLjM3MiwxNC44MDkxMkEzNC41NTQ1LDM0LjU1NDUsMCwwLDAsMTI1LjgyNDI3LDIzOGEyOS40Nzg0NCwyOS40Nzg0NCwwLDAsMCwxMC42NTM1Ny0xLjg4NzI5LDM1LjI5NjQ1LDM1LjI5NjQ1LDAsMCwwLDguNTM3ODctNC42MTA2LDMxLjgyMTA5LDMxLjgyMTA5LDAsMCwwLDQuNTQ2NTMtNC4wNzcsOS4wMjY1MSw5LjAyNjUxLDAsMCwwLDIuNTU0MjMsNi40MjA4LDkuMzA5MjIsOS4zMDkyMiwwLDAsMCwxMi45OTU3OCwwLDkuMDY0MzQsOS4wNjQzNCwwLDAsMCwyLjU2ODg3LTYuNTc1Vjc2LjA4NzU1YTkuMDAwNCw5LjAwMDQsMCwwLDAtMi41Njg4Ny02LjY0OUE4LjgxNzcsOC44MTc3LDAsMCwwLDE1OC42MTQzNiw2Ni44Njk3MlpNMTM5LjcyNjc5LDIxOC4wNTNhMjAuNDY5MzQsMjAuNDY5MzQsMCwwLDEtMTEuNjM1NzYsMy4zMjQ1NCwyMC4yMDQwNiwyMC4yMDQwNiwwLDAsMS0xMS40ODQ1OC0zLjMyNDU0LDIyLjQyOTMxLDIyLjQyOTMxLDAsMCwxLTcuNzgyMzMtOS4wNjY3NywyOC45MjA1MSwyOC45MjA1MSwwLDAsMS0yLjc5NC0xMi44NDQ2LDI5LjI4MjMyLDI5LjI4MjMyLDAsMCwxLDIuNzk0LTEyLjk5MjU0LDIyLjQzMDU4LDIyLjQzMDU4LDAsMCwxLDcuNzgyMzMtOS4wNjY4OSwyMC4yMjg5NCwyMC4yMjg5NCwwLDAsMSwxMS40ODQ1OC0zLjMyNDQxLDIwLjQ5NDMsMjAuNDk0MywwLDAsMSwxMS42MzU3NiwzLjMyNDQxLDIyLjQ1NjE4LDIyLjQ1NjE4LDAsMCwxLDcuNzgyMzMsOS4wNjY4OSwyOS4zMjkxMiwyOS4zMjkxMiwwLDAsMSwyLjc5NTUyLDEyLjk5MjU0LDI4Ljk2NzI4LDI4Ljk2NzI4LDAsMCwxLTIuNzk1NTIsMTIuODQ0NkEyMi40NTQ5MSwyMi40NTQ5MSwwLDAsMSwxMzkuNzI2NzksMjE4LjA1M1oiIGNsYXNzPSJjbHMtMiIvPjxwYXRoIGQ9Ik00Mi40MjI1NCwxMjMuNjI5NTlhODQuMDQ3NTMsODQuMDQ3NTMsMCwwLDEtOC44Mzk3NC0xNS41MTE4NSw4MC4wMjUwNiw4MC4wMjUwNiwwLDAsMS00LjA1NjkzLTExLjQ2MTkyYy0uNzMwODgtMi43MDgyOS0xLjI0NDUxLTUuNDY1NjQtMS43MDcwNy04LjA1Nzc5YTYzLjE5MTE4LDYzLjE5MTE4LDAsMCwxLS44ODAwNy05LjQ0NzQ4QTY4LjQwNzMxLDY4LjQwNzMxLDAsMCwxLDI4LjE0ODIsNjQuMDIwMTdjLjUwMTYxLTIuNTQ4MSwxLjAyMTI0LTUuMTg0MywxLjY4OTA1LTcuNzM2NEE2Ni4zMjE3Miw2Ni4zMjE3MiwwLDAsMSwzMy41OTI4MSw0NS43NjVjMS4zNjk2Ny0zLjAyODY4LDIuNzAzMjktNS42OTQ5Miw0LjA3Ni04LjE0OTlBODUuNjgxNDIsODUuNjgxNDIsMCwwLDEsNDkuMDcwNjIsMjIuMTIxMjdhNi44MzkxMiw2LjgzOTEyLDAsMCwwLDEuNTM1ODYtNy4wMzk1Niw4LjE3OSw4LjE3OSwwLDAsMC01Ljg2NTEyLTUuMTM1MjMsOS4zOTIzMyw5LjM5MjMzLDAsMCwwLTguMzg0MTksMS45OTI0MiwzNC4zMTM2NywzNC4zMTM2NywwLDAsMC01LjIzNzM2LDUuOTA3MTdsLS44MzcsMS4xMDAzNGE5OC40OTUsOTguNDk1LDAsMCwwLTguOTg0OTEsMTMuNTk0NTFjLTEuMTU2NDEsMi4xNTk2My0yLjI3Njc3LDQuMjgzMjEtMy4yNzIsNi41MjQ5M0MxNi43MjczMyw0MS45OTE0MSwxNS42NDYsNDQuOTM4LDE0LjQ2NjU4LDQ4LjIxMmE4MC42NTg4NCw4MC42NTg4NCwwLDAsMC0yLjI4MDc3LDcuOTc3NjlsLS4yMjQyNy44OTgxYy0uMjMyMjkuOTI3MTItLjM3MjQ2LDEuODUzMjUtLjUyMjY0LDIuODQwNDUtLjEwNjEzLjY5Nzg0LS4yMTIyNiwxLjM5NTY5LS4zNjY0NCwyLjA4MjUzYTQ3Ljg3MjQyLDQ3Ljg3MjQyLDAsMCwwLS44MSw1LjYxMTgxYy0uMTA1MTMsMS4wMTQyNC0uMjEwMjUsMi4wMjg0Ny0uMzUzNDMsMy4wMzk3YTI1LjI4ODg0LDI1LjI4ODg0LDAsMCwwLS4xMDgxMyw0LjQ1ODQxYy4wMi41NzQ3LjA0MDA1LDEuMTQ5NC4wNDAwNSwxLjY3NmE2Mi42NzAxNyw2Mi42NzAxNywwLDAsMCwuNzU2OTIsMTEuODUyNGMuMDg4MTEuNTY5NjkuMTY5MiwxLjE0MjM5LjI1MDMsMS43MTYwOGwuMDQyMDUuMjk5MzdjLjEzMjE2LjkzMTEzLjI2NTMzLDEuODYzMjYuNDIyNTIsMi43ODgzOWE3OC43MTA0NSw3OC43MTA0NSwwLDAsMCwzLjcyNzUzLDEzLjg5MTg3YzEuMDM5MjYsMi44MzA0NCwxLjk5MzQyLDUuMzc5NTQsMy4xNTA4Miw3Ljg5NzZhOTQuMTIyNDgsOTQuMTIyNDgsMCwwLDAsNy4zODQsMTMuMTE1OTMsMTAyLjAxODY0LDEwMi4wMTg2NCwwLDAsMCwxMC43MzYwNSwxMy41OTc1Miw5LjgyMTU3LDkuODIxNTcsMCwwLDAsNi42NjcxLDIuNTgxMTQsNi44NDE0NCw2Ljg0MTQ0LDAsMCwwLDEuOTgxNC0uMjcwMzNjMy4xMDI3Ny0uOTQ0MTUsNS4zMjA0Ny0yLjg5ODUyLDYuMDg0NC01LjM2MzUyYTcuMTc2NCw3LjE3NjQsMCwwLDAtMS44NjAyNi03LjAzMTU0QTEwMS40NTQxOCwxMDEuNDU0MTgsMCwwLDEsNDIuNDIyNTQsMTIzLjYyOTU5WiIgY2xhc3M9ImNscy0zIi8+PHBhdGggZD0iTTg1LjI5OTYzLDExMy45Njk4NWwtLjU5NTYuNDg1NDcuNTY4NTctLjUxODUxYy0uNTYxNjgtLjY5Mjg0LTEuMTI0MzctMS4zODQ2OC0xLjY0NS0yLjA5OTU1YTYxLjA3MTI3LDYxLjA3MTI3LDAsMCwxLTQuNzgwODEtNy44MDE0OCw2NS41Niw2NS41NiwwLDAsMS0zLjA1OTcxLTYuNTk4LDU4LjAzMzkxLDU4LjAzMzkxLDAsMCwxLTEuOTc5NDEtNi41ODNsLS4yMjcyOC0uODkzMDlhMzAuNTc0NDQsMzAuNTc0NDQsMCwwLDEtMS4wNzYzLTUuNjI5ODRjLS4wNTAwNi0uODc0MDYtLjExNzE1LTEuNzQ2MTItLjE4NTIzLTIuNjMxMTlhNDIuNDYxNjYsNDIuNDYxNjYsMCwwLDEtLjA4NDEtOC40NjQyOUw3Mi40NjksNzEuMjZBNjAuMzY4LDYwLjM2OCwwLDAsMSw3My42Mjg0NSw2My45MDRhNjAuMjQ4ODEsNjAuMjQ4ODEsMCwwLDEsNS4wNDAxMy0xMy42MzQ1N0E2NS43MzMsNjUuNzMzLDAsMCwxLDg2LjM5OCwzOC41NzEyNWMxLjU0ODg4LTEuODc3MjgsMi45ODE2Mi00LjIwMzExLDEuODY4MjctNy4yMTk3N2E3LjczOTI4LDcuNzM5MjgsMCwwLDAtNS45MDYxOC01LjIyMTM0Yy0zLjU2ODMzLS43Njg5NC02LjU2NS0uMDEzLTguNjYxNTIsMi4xODE2NUE2NS4zMDE5NCw2NS4zMDE5NCwwLDAsMCw2NC45OCw0MC4yNDYyOWE3NC4zNzU4Niw3NC4zNzU4NiwwLDAsMC02LjM0NjcxLDEzLjk0MjkzQTY5Ljk5MjI0LDY5Ljk5MjI0LDAsMCwwLDU1LjQ3ODQsNjcuNzgxNzRsLS4xMjYxNS45MTAxYTMxLjY3MjcyLDMxLjY3MjcyLDAsMCwwLS40MDY0OSw4LjM4MTE5YzAsLjQyODUyLS4wMTkuODczMDYtLjA0MDA1LDEuMzUyNjRhMTcuNzA4MTQsMTcuNzA4MTQsMCwwLDAsLjEwNzEzLDMuNjY1NDVjLjE3MDIsMS4wNDcyNy4yOTUzNiwyLjA5NzU1LjQzMjUyLDMuMjM1OTMuMTkzMjQsMS42MTUuMzkzNDgsMy4yODYuNzQ5OTEsNC45NDkuMTI2MTYuNTg3NzEuMjQxMywxLjE3NzQzLjM2MTQ0LDEuNzkxMTdBNDAuNjc5MzUsNDAuNjc5MzUsMCwwLDAsNTcuNjQzLDk2LjY1OTgyYTg3Ljc1NzU3LDg3Ljc1NzU3LDAsMCwwLDQuMjQ2MTYsMTEuMDY3NDUsNzkuODMwNCw3OS44MzA0LDAsMCwwLDExLjEzNTUzLDE3LjE3Njg2LDkuMDM0Niw5LjAzNDYsMCwwLDAsNy4xMjM2NSwzLjQ3ODIzaC4wMDRhMTEuMTM4NjYsMTEuMTM4NjYsMCwwLDAsMi4yODA3Ny0uMjQ2Myw4LjEzNzQ1LDguMTM3NDUsMCwwLDAsNS43ODctNC40Njc0Myw2LjYyMTQ4LDYuNjIxNDgsMCwwLDAtLjQ4NDU5LTYuNDgyODdBMzguOTM0MDcsMzguOTM0MDcsMCwwLDAsODUuMjk5NjMsMTEzLjk2OTg1WiIgY2xhc3M9ImNscy00Ii8+PHBhdGggZD0iTTExOS41MTExOSw4OS4xNzg3M2EzNi4xMzA4MiwzNi4xMzA4MiwwLDAsMS0yLjA3MzUxLTkuNDMwNDUsMzkuNTcyMjIsMzkuNTcyMjIsMCwwLDEsLjUzODY1LTEwLjI4MzVsLjA2NTA4LS4zMjQzOWEyNS44NzE3NSwyNS44NzE3NSwwLDAsMSwxLjE4MTQzLTQuNTYzNTUsNDUuODE3NzMsNDUuODE3NzMsMCwwLDEsNS4xOTczMi05Ljg1OWMxLjc5ODE4LTIuNTI3MDcsMi4xMzU1OS00Ljk3MSwxLjAwNDIyLTcuMjYxODNhOC4zMzkzOCw4LjMzOTM4LDAsMCwwLTcuMTkzNzQtNC43Njg3OSw4LjU1MTk0LDguNTUxOTQsMCwwLDAtNy43NDA0LDMuMDk5NzcsNTEuMTY0NTgsNTEuMTY0NTgsMCwwLDAtNC44NDE4OSw3Ljg3MzU2LDQ5Ljk4Mjc4LDQ5Ljk4Mjc4LDAsMCwwLTQuNjU3NjYsMTMuMTI0OTUsNDEuNzc0NDgsNDEuNzc0NDgsMCwwLDAtLjkzMTEzLDkuNzQwODMsNTAuNjMwNjgsNTAuNjMwNjgsMCwwLDAsMS4zNzk2OCwxMS44NDk0LDUxLjQyODA5LDUxLjQyODA5LDAsMCwwLDMuMzI0LDkuNDMwNDUsNTcuOTY0NjIsNTcuOTY0NjIsMCwwLDAsNC42Mzg2Myw4LjI4NDA3LDkuNzczODIsOS43NzM4MiwwLDAsMCw2LjgxODI5LDQuNzE0NzMsOS4wNTYwNyw5LjA1NjA3LDAsMCwwLDEuNDUwNzYuMTE1MTQsOS4yODQ1NSw5LjI4NDU1LDAsMCwwLDUuNDgyNjYtMS43OTIxOCw3LjA4ODI5LDcuMDg4MjksMCwwLDAsMi45OTQ2NC01LjEyMzIzLDguNzE5MjgsOC43MTkyOCwwLDAsMC0xLjk0NDM2LTUuODQ2MUEzNC42MDIwNiwzNC42MDIwNiwwLDAsMSwxMTkuNTExMTksODkuMTc4NzNaIiBjbGFzcz0iY2xzLTUiLz48L3N2Zz4=;sketch=1;fontFamily=IBM Plex Mono;fontSize=19;" parent="1" vertex="1">
                    <mxGeometry x="620" y="279.5" width="23" height="31.3" as="geometry"/>
                </mxCell>
                <mxCell id="xMlnUiTXEX7Q_oC-0Y35-23" value="Artifact&lt;br style=&quot;font-size: 11px;&quot;&gt;Registry" style="shape=cylinder3;whiteSpace=wrap;html=1;boundedLbl=1;backgroundOutline=1;size=15;sketch=1;fontFamily=IBM Plex Mono;fontSize=11;fillColor=#d5e8d4;strokeColor=#82b366;" parent="1" vertex="1">
                    <mxGeometry x="690" y="180" width="60" height="80" as="geometry"/>
                </mxCell>
                <mxCell id="xMlnUiTXEX7Q_oC-0Y35-25" style="edgeStyle=none;orthogonalLoop=1;jettySize=auto;html=1;fontFamily=IBM Plex Mono;fontSize=15;fillColor=#dae8fc;strokeColor=#6c8ebf;entryX=0.488;entryY=-0.02;entryDx=0;entryDy=0;entryPerimeter=0;exitX=0.5;exitY=1;exitDx=0;exitDy=0;exitPerimeter=0;endSize=10;strokeWidth=1;startSize=6;rounded=0;sketch=1;" parent="1" source="xMlnUiTXEX7Q_oC-0Y35-23" target="xMlnUiTXEX7Q_oC-0Y35-1" edge="1">
                    <mxGeometry relative="1" as="geometry">
                        <mxPoint x="779.8199999999999" y="260" as="sourcePoint"/>
                        <mxPoint x="779.7099999999998" y="429.28" as="targetPoint"/>
                    </mxGeometry>
                </mxCell>
                <mxCell id="xMlnUiTXEX7Q_oC-0Y35-26" value="" style="shape=image;verticalLabelPosition=bottom;verticalAlign=top;imageAspect=0;aspect=fixed;image=data:image/svg+xml,PHN2ZyB4bWxuczp4bGluaz0iaHR0cDovL3d3dy53My5vcmcvMTk5OS94bGluayIgeG1sbnM9Imh0dHA6Ly93d3cudzMub3JnLzIwMDAvc3ZnIiB2aWV3Qm94PSIwIDAgMTgzIDI0OSIgZGF0YS1uYW1lPSJMYXllciAxIiBpZD0iTGF5ZXJfMSI+PGRlZnM+PHN0eWxlPi5jbHMtMXtmaWxsOnVybCgjbGluZWFyLWdyYWRpZW50KTt9LmNscy0ye2ZpbGw6dXJsKCNsaW5lYXItZ3JhZGllbnQtMik7fS5jbHMtM3tmaWxsOnVybCgjbGluZWFyLWdyYWRpZW50LTMpO30uY2xzLTR7ZmlsbDp1cmwoI2xpbmVhci1ncmFkaWVudC00KTt9LmNscy01e2ZpbGw6dXJsKCNsaW5lYXItZ3JhZGllbnQtNSk7fTwvc3R5bGU+PGxpbmVhckdyYWRpZW50IGdyYWRpZW50VW5pdHM9InVzZXJTcGFjZU9uVXNlIiB5Mj0iNDMyLjYwMTI4IiB4Mj0iNDQ5LjExNjA0IiB5MT0iMTA5Ljg2NDE3IiB4MT0iLTkzLjM1Njk4IiBpZD0ibGluZWFyLWdyYWRpZW50Ij48c3RvcCBzdG9wLWNvbG9yPSIjMmUzMTkwIiBvZmZzZXQ9IjAiLz48c3RvcCBzdG9wLWNvbG9yPSIjNTBhNzkyIiBvZmZzZXQ9IjAuNTUwNjEiLz48c3RvcCBzdG9wLWNvbG9yPSIjMzliMzRhIiBvZmZzZXQ9IjEiLz48L2xpbmVhckdyYWRpZW50PjxsaW5lYXJHcmFkaWVudCB4bGluazpocmVmPSIjbGluZWFyLWdyYWRpZW50IiB5Mj0iMzYyLjEwNzc4IiB4Mj0iNDkxLjA1NTIxIiB5MT0iMzkuMzcwNjciIHgxPSItNTEuNDE3ODEiIGlkPSJsaW5lYXItZ3JhZGllbnQtMiIvPjxsaW5lYXJHcmFkaWVudCB4bGluazpocmVmPSIjbGluZWFyLWdyYWRpZW50IiB5Mj0iMzQ4LjY2MDM0IiB4Mj0iNDk5LjA1NTU5IiB5MT0iMjUuOTIzMjMiIHgxPSItNDMuNDE3NDMiIGlkPSJsaW5lYXItZ3JhZGllbnQtMyIvPjxsaW5lYXJHcmFkaWVudCB4bGluazpocmVmPSIjbGluZWFyLWdyYWRpZW50IiB5Mj0iMzMyLjEzNTQ4IiB4Mj0iNTA4Ljg4NjgzIiB5MT0iOS4zOTgzNyIgeDE9Ii0zMy41ODYxOCIgaWQ9ImxpbmVhci1ncmFkaWVudC00Ii8+PGxpbmVhckdyYWRpZW50IHhsaW5rOmhyZWY9IiNsaW5lYXItZ3JhZGllbnQiIHkyPSIzMTUuNDcyNTMiIHgyPSI1MTguODAwMjMiIHkxPSItNy4yNjQ1OCIgeDE9Ii0yMy42NzI3OCIgaWQ9ImxpbmVhci1ncmFkaWVudC01Ii8+PC9kZWZzPjxwYXRoIGQ9Ik03MS44ODAxMSwyMTUuNjM1MmE3Ljc0MTY3LDcuNzQxNjcsMCwwLDAtNC45ODY4LDEuMzYsMjcuNDk4ODQsMjcuNDk4ODQsMCwwLDEtMy43Nzc4NCwyLjU2OSwxNi4xMTEwNiwxNi4xMTEwNiwwLDAsMS00LjUzMzM5LDEuMzU5OSw0MC4xNjQ3Nyw0MC4xNjQ3NywwLDAsMS02LjQ5Nzg5LjQ1MzQzQTIxLjg0MDA3LDIxLjg0MDA3LDAsMCwxLDQwLjA3MDcyLDIxOC4wNTNhMjMuMDU2MjQsMjMuMDU2MjQsMCwwLDEtOC4xNjAxNi04Ljk4OTY3LDI3LjYwMTI1LDI3LjYwMTI1LDAsMCwxLTIuOTQ2NzEtMTIuOTIxNywyOC41MzY5NCwyOC41MzY5NCwwLDAsMSwyLjg3MTI0LTEzLjA2OTc2LDIyLjEzNjIyLDIyLjEzNjIyLDAsMCwxLDguMjM1NjMtOC45ODk2N0EyNC4zNTYsMjQuMzU2LDAsMCwxLDUzLjE0MiwxNzAuNzU3ODFhMzAuNTYyLDMwLjU2MiwwLDAsMSw0LjYwOS41MjcyNiwxMy44NTczOCwxMy44NTczOCwwLDAsMSw0LjYwOSwxLjQzNzEzLDE2LjA4ODY1LDE2LjA4ODY1LDAsMCwxLDIuODcxMTIsMS45NjQ1MSwxMC40OTI4NSwxMC40OTI4NSwwLDAsMCwyLjc5NTY0LDEuNzM2MjMsMTAuMjA3MjYsMTAuMjA3MjYsMCwwLDAsNC4wMDQ0OS42ODE1OCw2LjAwNTY3LDYuMDA1NjcsMCwwLDAsNS4yODc0My0yLjY0NjA5LDkuODI2MzksOS44MjYzOSwwLDAsMCwxLjgxMzMyLTUuNjY1MTMsMTAuMTk2NzQsMTAuMTk2NzQsMCwwLDAtMy41NTExOS03Ljc4NCwyNC40MzI1MywyNC40MzI1MywwLDAsMC05Ljk3MTg2LTUuMDYwNjUsNTUuNjM2NzksNTUuNjM2NzksMCwwLDAtMTUuMDM1NzctMS44MTM0NSwzOS41MTEsMzkuNTExLDAsMCwwLTIwLjYyNjkzLDUuMzYzLDM3LjU0NDU5LDM3LjU0NDU5LDAsMCwwLTE0LjA1MTk1LDE0LjgwOTExLDQ1LjUxNzYyLDQ1LjUxNzYyLDAsMCwwLTUuMDYyNCwyMS44MzQyOEE0Ni45Nzg0OCw0Ni45Nzg0OCwwLDAsMCwxNS41OTIsMjE3LjQ0ODUzLDM2Ljg2NzUxLDM2Ljg2NzUxLDAsMCwwLDI5LjExNSwyMzIuNDg1OTNRMzcuODc4LDIzOC4wMDMyNSw0OS44MTc1NiwyMzhhNTYuMTI2OTIsNTYuMTI2OTIsMCwwLDAsMTQuODg0NTgtMS44ODcyOSwzNC4wMzIzOCwzNC4wMzIzOCwwLDAsMCwxMS4xMDUyNC00Ljk4NjgxcTQuMjI5NTItMy4wOTYyLDQuMjMxMTQtNi44NzcyM2E5LjEzNDY1LDkuMTM0NjUsMCwwLDAtMi4xMTU1Ny02LjExODQzQTcuNDkwNjgsNy40OTA2OCwwLDAsMCw3MS44ODAxMSwyMTUuNjM1MloiIGNsYXNzPSJjbHMtMSIvPjxwYXRoIGQ9Ik0xNTguNjE0MzYsNjYuODY5NzJhOC42Nzc2Myw4LjY3NzYzLDAsMCwwLTYuNDk3ODksMi42NDYwOSw5LjA1NDIsOS4wNTQyLDAsMCwwLTIuNTY3MzcsNi41NzE3NHY4Ny40ODcyOGEzNi40NSwzNi40NSwwLDAsMC0yLjk0NjcxLTIuNDg4MjcsMzUuNjE5NDQsMzUuNjE5NDQsMCwwLDAtOS40NDQ2LTQuOTg2ODEsMzQuOTQ1NzUsMzQuOTQ1NzUsMCwwLDAtMTEuOTM3ODgtMS45NjQ1MSwzMy4zMTY1NSwzMy4zMTY1NSwwLDAsMC0xOC40MzU4OSw1LjM2MywzOC4xNDc1OCwzOC4xNDc1OCwwLDAsMC0xMy4yMjA4MSwxNC44MDkxMSw1MC42NjIxOCw1MC42NjIxOCwwLDAsMCwwLDQzLjUyMDYyLDM3LjcwMjQ4LDM3LjcwMjQ4LDAsMCwwLDEzLjM3MiwxNC44MDkxMkEzNC41NTQ1LDM0LjU1NDUsMCwwLDAsMTI1LjgyNDI3LDIzOGEyOS40Nzg0NCwyOS40Nzg0NCwwLDAsMCwxMC42NTM1Ny0xLjg4NzI5LDM1LjI5NjQ1LDM1LjI5NjQ1LDAsMCwwLDguNTM3ODctNC42MTA2LDMxLjgyMTA5LDMxLjgyMTA5LDAsMCwwLDQuNTQ2NTMtNC4wNzcsOS4wMjY1MSw5LjAyNjUxLDAsMCwwLDIuNTU0MjMsNi40MjA4LDkuMzA5MjIsOS4zMDkyMiwwLDAsMCwxMi45OTU3OCwwLDkuMDY0MzQsOS4wNjQzNCwwLDAsMCwyLjU2ODg3LTYuNTc1Vjc2LjA4NzU1YTkuMDAwNCw5LjAwMDQsMCwwLDAtMi41Njg4Ny02LjY0OUE4LjgxNzcsOC44MTc3LDAsMCwwLDE1OC42MTQzNiw2Ni44Njk3MlpNMTM5LjcyNjc5LDIxOC4wNTNhMjAuNDY5MzQsMjAuNDY5MzQsMCwwLDEtMTEuNjM1NzYsMy4zMjQ1NCwyMC4yMDQwNiwyMC4yMDQwNiwwLDAsMS0xMS40ODQ1OC0zLjMyNDU0LDIyLjQyOTMxLDIyLjQyOTMxLDAsMCwxLTcuNzgyMzMtOS4wNjY3NywyOC45MjA1MSwyOC45MjA1MSwwLDAsMS0yLjc5NC0xMi44NDQ2LDI5LjI4MjMyLDI5LjI4MjMyLDAsMCwxLDIuNzk0LTEyLjk5MjU0LDIyLjQzMDU4LDIyLjQzMDU4LDAsMCwxLDcuNzgyMzMtOS4wNjY4OSwyMC4yMjg5NCwyMC4yMjg5NCwwLDAsMSwxMS40ODQ1OC0zLjMyNDQxLDIwLjQ5NDMsMjAuNDk0MywwLDAsMSwxMS42MzU3NiwzLjMyNDQxLDIyLjQ1NjE4LDIyLjQ1NjE4LDAsMCwxLDcuNzgyMzMsOS4wNjY4OSwyOS4zMjkxMiwyOS4zMjkxMiwwLDAsMSwyLjc5NTUyLDEyLjk5MjU0LDI4Ljk2NzI4LDI4Ljk2NzI4LDAsMCwxLTIuNzk1NTIsMTIuODQ0NkEyMi40NTQ5MSwyMi40NTQ5MSwwLDAsMSwxMzkuNzI2NzksMjE4LjA1M1oiIGNsYXNzPSJjbHMtMiIvPjxwYXRoIGQ9Ik00Mi40MjI1NCwxMjMuNjI5NTlhODQuMDQ3NTMsODQuMDQ3NTMsMCwwLDEtOC44Mzk3NC0xNS41MTE4NSw4MC4wMjUwNiw4MC4wMjUwNiwwLDAsMS00LjA1NjkzLTExLjQ2MTkyYy0uNzMwODgtMi43MDgyOS0xLjI0NDUxLTUuNDY1NjQtMS43MDcwNy04LjA1Nzc5YTYzLjE5MTE4LDYzLjE5MTE4LDAsMCwxLS44ODAwNy05LjQ0NzQ4QTY4LjQwNzMxLDY4LjQwNzMxLDAsMCwxLDI4LjE0ODIsNjQuMDIwMTdjLjUwMTYxLTIuNTQ4MSwxLjAyMTI0LTUuMTg0MywxLjY4OTA1LTcuNzM2NEE2Ni4zMjE3Miw2Ni4zMjE3MiwwLDAsMSwzMy41OTI4MSw0NS43NjVjMS4zNjk2Ny0zLjAyODY4LDIuNzAzMjktNS42OTQ5Miw0LjA3Ni04LjE0OTlBODUuNjgxNDIsODUuNjgxNDIsMCwwLDEsNDkuMDcwNjIsMjIuMTIxMjdhNi44MzkxMiw2LjgzOTEyLDAsMCwwLDEuNTM1ODYtNy4wMzk1Niw4LjE3OSw4LjE3OSwwLDAsMC01Ljg2NTEyLTUuMTM1MjMsOS4zOTIzMyw5LjM5MjMzLDAsMCwwLTguMzg0MTksMS45OTI0MiwzNC4zMTM2NywzNC4zMTM2NywwLDAsMC01LjIzNzM2LDUuOTA3MTdsLS44MzcsMS4xMDAzNGE5OC40OTUsOTguNDk1LDAsMCwwLTguOTg0OTEsMTMuNTk0NTFjLTEuMTU2NDEsMi4xNTk2My0yLjI3Njc3LDQuMjgzMjEtMy4yNzIsNi41MjQ5M0MxNi43MjczMyw0MS45OTE0MSwxNS42NDYsNDQuOTM4LDE0LjQ2NjU4LDQ4LjIxMmE4MC42NTg4NCw4MC42NTg4NCwwLDAsMC0yLjI4MDc3LDcuOTc3NjlsLS4yMjQyNy44OTgxYy0uMjMyMjkuOTI3MTItLjM3MjQ2LDEuODUzMjUtLjUyMjY0LDIuODQwNDUtLjEwNjEzLjY5Nzg0LS4yMTIyNiwxLjM5NTY5LS4zNjY0NCwyLjA4MjUzYTQ3Ljg3MjQyLDQ3Ljg3MjQyLDAsMCwwLS44MSw1LjYxMTgxYy0uMTA1MTMsMS4wMTQyNC0uMjEwMjUsMi4wMjg0Ny0uMzUzNDMsMy4wMzk3YTI1LjI4ODg0LDI1LjI4ODg0LDAsMCwwLS4xMDgxMyw0LjQ1ODQxYy4wMi41NzQ3LjA0MDA1LDEuMTQ5NC4wNDAwNSwxLjY3NmE2Mi42NzAxNyw2Mi42NzAxNywwLDAsMCwuNzU2OTIsMTEuODUyNGMuMDg4MTEuNTY5NjkuMTY5MiwxLjE0MjM5LjI1MDMsMS43MTYwOGwuMDQyMDUuMjk5MzdjLjEzMjE2LjkzMTEzLjI2NTMzLDEuODYzMjYuNDIyNTIsMi43ODgzOWE3OC43MTA0NSw3OC43MTA0NSwwLDAsMCwzLjcyNzUzLDEzLjg5MTg3YzEuMDM5MjYsMi44MzA0NCwxLjk5MzQyLDUuMzc5NTQsMy4xNTA4Miw3Ljg5NzZhOTQuMTIyNDgsOTQuMTIyNDgsMCwwLDAsNy4zODQsMTMuMTE1OTMsMTAyLjAxODY0LDEwMi4wMTg2NCwwLDAsMCwxMC43MzYwNSwxMy41OTc1Miw5LjgyMTU3LDkuODIxNTcsMCwwLDAsNi42NjcxLDIuNTgxMTQsNi44NDE0NCw2Ljg0MTQ0LDAsMCwwLDEuOTgxNC0uMjcwMzNjMy4xMDI3Ny0uOTQ0MTUsNS4zMjA0Ny0yLjg5ODUyLDYuMDg0NC01LjM2MzUyYTcuMTc2NCw3LjE3NjQsMCwwLDAtMS44NjAyNi03LjAzMTU0QTEwMS40NTQxOCwxMDEuNDU0MTgsMCwwLDEsNDIuNDIyNTQsMTIzLjYyOTU5WiIgY2xhc3M9ImNscy0zIi8+PHBhdGggZD0iTTg1LjI5OTYzLDExMy45Njk4NWwtLjU5NTYuNDg1NDcuNTY4NTctLjUxODUxYy0uNTYxNjgtLjY5Mjg0LTEuMTI0MzctMS4zODQ2OC0xLjY0NS0yLjA5OTU1YTYxLjA3MTI3LDYxLjA3MTI3LDAsMCwxLTQuNzgwODEtNy44MDE0OCw2NS41Niw2NS41NiwwLDAsMS0zLjA1OTcxLTYuNTk4LDU4LjAzMzkxLDU4LjAzMzkxLDAsMCwxLTEuOTc5NDEtNi41ODNsLS4yMjcyOC0uODkzMDlhMzAuNTc0NDQsMzAuNTc0NDQsMCwwLDEtMS4wNzYzLTUuNjI5ODRjLS4wNTAwNi0uODc0MDYtLjExNzE1LTEuNzQ2MTItLjE4NTIzLTIuNjMxMTlhNDIuNDYxNjYsNDIuNDYxNjYsMCwwLDEtLjA4NDEtOC40NjQyOUw3Mi40NjksNzEuMjZBNjAuMzY4LDYwLjM2OCwwLDAsMSw3My42Mjg0NSw2My45MDRhNjAuMjQ4ODEsNjAuMjQ4ODEsMCwwLDEsNS4wNDAxMy0xMy42MzQ1N0E2NS43MzMsNjUuNzMzLDAsMCwxLDg2LjM5OCwzOC41NzEyNWMxLjU0ODg4LTEuODc3MjgsMi45ODE2Mi00LjIwMzExLDEuODY4MjctNy4yMTk3N2E3LjczOTI4LDcuNzM5MjgsMCwwLDAtNS45MDYxOC01LjIyMTM0Yy0zLjU2ODMzLS43Njg5NC02LjU2NS0uMDEzLTguNjYxNTIsMi4xODE2NUE2NS4zMDE5NCw2NS4zMDE5NCwwLDAsMCw2NC45OCw0MC4yNDYyOWE3NC4zNzU4Niw3NC4zNzU4NiwwLDAsMC02LjM0NjcxLDEzLjk0MjkzQTY5Ljk5MjI0LDY5Ljk5MjI0LDAsMCwwLDU1LjQ3ODQsNjcuNzgxNzRsLS4xMjYxNS45MTAxYTMxLjY3MjcyLDMxLjY3MjcyLDAsMCwwLS40MDY0OSw4LjM4MTE5YzAsLjQyODUyLS4wMTkuODczMDYtLjA0MDA1LDEuMzUyNjRhMTcuNzA4MTQsMTcuNzA4MTQsMCwwLDAsLjEwNzEzLDMuNjY1NDVjLjE3MDIsMS4wNDcyNy4yOTUzNiwyLjA5NzU1LjQzMjUyLDMuMjM1OTMuMTkzMjQsMS42MTUuMzkzNDgsMy4yODYuNzQ5OTEsNC45NDkuMTI2MTYuNTg3NzEuMjQxMywxLjE3NzQzLjM2MTQ0LDEuNzkxMTdBNDAuNjc5MzUsNDAuNjc5MzUsMCwwLDAsNTcuNjQzLDk2LjY1OTgyYTg3Ljc1NzU3LDg3Ljc1NzU3LDAsMCwwLDQuMjQ2MTYsMTEuMDY3NDUsNzkuODMwNCw3OS44MzA0LDAsMCwwLDExLjEzNTUzLDE3LjE3Njg2LDkuMDM0Niw5LjAzNDYsMCwwLDAsNy4xMjM2NSwzLjQ3ODIzaC4wMDRhMTEuMTM4NjYsMTEuMTM4NjYsMCwwLDAsMi4yODA3Ny0uMjQ2Myw4LjEzNzQ1LDguMTM3NDUsMCwwLDAsNS43ODctNC40Njc0Myw2LjYyMTQ4LDYuNjIxNDgsMCwwLDAtLjQ4NDU5LTYuNDgyODdBMzguOTM0MDcsMzguOTM0MDcsMCwwLDAsODUuMjk5NjMsMTEzLjk2OTg1WiIgY2xhc3M9ImNscy00Ii8+PHBhdGggZD0iTTExOS41MTExOSw4OS4xNzg3M2EzNi4xMzA4MiwzNi4xMzA4MiwwLDAsMS0yLjA3MzUxLTkuNDMwNDUsMzkuNTcyMjIsMzkuNTcyMjIsMCwwLDEsLjUzODY1LTEwLjI4MzVsLjA2NTA4LS4zMjQzOWEyNS44NzE3NSwyNS44NzE3NSwwLDAsMSwxLjE4MTQzLTQuNTYzNTUsNDUuODE3NzMsNDUuODE3NzMsMCwwLDEsNS4xOTczMi05Ljg1OWMxLjc5ODE4LTIuNTI3MDcsMi4xMzU1OS00Ljk3MSwxLjAwNDIyLTcuMjYxODNhOC4zMzkzOCw4LjMzOTM4LDAsMCwwLTcuMTkzNzQtNC43Njg3OSw4LjU1MTk0LDguNTUxOTQsMCwwLDAtNy43NDA0LDMuMDk5NzcsNTEuMTY0NTgsNTEuMTY0NTgsMCwwLDAtNC44NDE4OSw3Ljg3MzU2LDQ5Ljk4Mjc4LDQ5Ljk4Mjc4LDAsMCwwLTQuNjU3NjYsMTMuMTI0OTUsNDEuNzc0NDgsNDEuNzc0NDgsMCwwLDAtLjkzMTEzLDkuNzQwODMsNTAuNjMwNjgsNTAuNjMwNjgsMCwwLDAsMS4zNzk2OCwxMS44NDk0LDUxLjQyODA5LDUxLjQyODA5LDAsMCwwLDMuMzI0LDkuNDMwNDUsNTcuOTY0NjIsNTcuOTY0NjIsMCwwLDAsNC42Mzg2Myw4LjI4NDA3LDkuNzczODIsOS43NzM4MiwwLDAsMCw2LjgxODI5LDQuNzE0NzMsOS4wNTYwNyw5LjA1NjA3LDAsMCwwLDEuNDUwNzYuMTE1MTQsOS4yODQ1NSw5LjI4NDU1LDAsMCwwLDUuNDgyNjYtMS43OTIxOCw3LjA4ODI5LDcuMDg4MjksMCwwLDAsMi45OTQ2NC01LjEyMzIzLDguNzE5MjgsOC43MTkyOCwwLDAsMC0xLjk0NDM2LTUuODQ2MUEzNC42MDIwNiwzNC42MDIwNiwwLDAsMSwxMTkuNTExMTksODkuMTc4NzNaIiBjbGFzcz0iY2xzLTUiLz48L3N2Zz4=;sketch=1;fontFamily=IBM Plex Mono;fontSize=19;" parent="1" vertex="1">
                    <mxGeometry x="690" y="278.7" width="23" height="31.3" as="geometry"/>
                </mxCell>
                <mxCell id="xMlnUiTXEX7Q_oC-0Y35-35" value="" style="edgeStyle=none;rounded=0;orthogonalLoop=1;jettySize=auto;html=1;fontFamily=IBM Plex Mono;fontSize=11;dashed=1;sketch=1;entryX=0;entryY=0.5;entryDx=0;entryDy=0;exitX=1;exitY=0.5;exitDx=0;exitDy=0;exitPerimeter=0;" parent="1" source="xMlnUiTXEX7Q_oC-0Y35-23" target="xMlnUiTXEX7Q_oC-0Y35-27" edge="1">
                    <mxGeometry relative="1" as="geometry">
                        <mxPoint x="770" y="250" as="sourcePoint"/>
                    </mxGeometry>
                </mxCell>
                <mxCell id="6" value="" style="edgeStyle=none;html=1;dashed=1;fontFamily=IBM Plex Mono;rounded=0;sketch=1;" edge="1" parent="1" source="xMlnUiTXEX7Q_oC-0Y35-27" target="5">
                    <mxGeometry relative="1" as="geometry"/>
                </mxCell>
                <mxCell id="xMlnUiTXEX7Q_oC-0Y35-27" value="&lt;font style=&quot;font-size: 19px;&quot;&gt;Deploy&lt;br&gt;&lt;/font&gt;" style="rounded=1;whiteSpace=wrap;html=1;fontFamily=IBM Plex Mono;fontSize=19;fillColor=#f8cecc;strokeColor=#b85450;sketch=1;" parent="1" vertex="1">
                    <mxGeometry x="780" y="180" width="110" height="80" as="geometry"/>
                </mxCell>
                <mxCell id="xMlnUiTXEX7Q_oC-0Y35-30" style="edgeStyle=none;orthogonalLoop=1;jettySize=auto;html=1;fontFamily=IBM Plex Mono;fontSize=15;fillColor=#dae8fc;strokeColor=#6c8ebf;exitX=0.842;exitY=0.995;exitDx=0;exitDy=0;exitPerimeter=0;entryX=0.476;entryY=-0.009;entryDx=0;entryDy=0;entryPerimeter=0;endSize=10;strokeWidth=1;startSize=6;rounded=0;sketch=1;" parent="1" edge="1">
                    <mxGeometry relative="1" as="geometry">
                        <mxPoint x="647.0025000000002" y="259" as="sourcePoint"/>
                        <mxPoint x="647.34" y="428.67999999999995" as="targetPoint"/>
                    </mxGeometry>
                </mxCell>
                <mxCell id="xMlnUiTXEX7Q_oC-0Y35-38" value="&lt;font style=&quot;font-size: 15px;&quot;&gt;Trigger&lt;/font&gt;" style="rounded=1;whiteSpace=wrap;html=1;fontFamily=IBM Plex Mono;fontSize=19;fillColor=#f5f5f5;fontColor=#333333;strokeColor=#666666;sketch=1;" parent="1" vertex="1">
                    <mxGeometry x="781.5" y="380.8" width="81.5" height="40" as="geometry"/>
                </mxCell>
                <mxCell id="xMlnUiTXEX7Q_oC-0Y35-39" style="edgeStyle=none;orthogonalLoop=1;jettySize=auto;html=1;fontFamily=IBM Plex Mono;fontSize=19;fillColor=#dae8fc;strokeColor=#6c8ebf;entryX=0.182;entryY=1;entryDx=0;entryDy=0;entryPerimeter=0;exitX=0.213;exitY=-0.046;exitDx=0;exitDy=0;exitPerimeter=0;endSize=10;strokeWidth=1;startSize=6;rounded=0;sketch=1;" parent="1" source="xMlnUiTXEX7Q_oC-0Y35-40" edge="1">
                    <mxGeometry relative="1" as="geometry">
                        <mxPoint x="825" y="329.8" as="sourcePoint"/>
                        <mxPoint x="798.9975" y="260.8" as="targetPoint"/>
                    </mxGeometry>
                </mxCell>
                <mxCell id="xMlnUiTXEX7Q_oC-0Y35-40" value="&lt;font style=&quot;font-size: 15px;&quot;&gt;Policies&lt;/font&gt;" style="rounded=1;whiteSpace=wrap;html=1;fontFamily=IBM Plex Mono;fontSize=19;fillColor=#f5f5f5;fontColor=#333333;strokeColor=#666666;sketch=1;" parent="1" vertex="1">
                    <mxGeometry x="781.5" y="330.8" width="81.5" height="40" as="geometry"/>
                </mxCell>
                <mxCell id="xMlnUiTXEX7Q_oC-0Y35-41" value="" style="shape=image;verticalLabelPosition=bottom;verticalAlign=top;imageAspect=0;aspect=fixed;image=data:image/svg+xml,PHN2ZyB4bWxuczp4bGluaz0iaHR0cDovL3d3dy53My5vcmcvMTk5OS94bGluayIgeG1sbnM9Imh0dHA6Ly93d3cudzMub3JnLzIwMDAvc3ZnIiB2aWV3Qm94PSIwIDAgMTgzIDI0OSIgZGF0YS1uYW1lPSJMYXllciAxIiBpZD0iTGF5ZXJfMSI+PGRlZnM+PHN0eWxlPi5jbHMtMXtmaWxsOnVybCgjbGluZWFyLWdyYWRpZW50KTt9LmNscy0ye2ZpbGw6dXJsKCNsaW5lYXItZ3JhZGllbnQtMik7fS5jbHMtM3tmaWxsOnVybCgjbGluZWFyLWdyYWRpZW50LTMpO30uY2xzLTR7ZmlsbDp1cmwoI2xpbmVhci1ncmFkaWVudC00KTt9LmNscy01e2ZpbGw6dXJsKCNsaW5lYXItZ3JhZGllbnQtNSk7fTwvc3R5bGU+PGxpbmVhckdyYWRpZW50IGdyYWRpZW50VW5pdHM9InVzZXJTcGFjZU9uVXNlIiB5Mj0iNDMyLjYwMTI4IiB4Mj0iNDQ5LjExNjA0IiB5MT0iMTA5Ljg2NDE3IiB4MT0iLTkzLjM1Njk4IiBpZD0ibGluZWFyLWdyYWRpZW50Ij48c3RvcCBzdG9wLWNvbG9yPSIjMmUzMTkwIiBvZmZzZXQ9IjAiLz48c3RvcCBzdG9wLWNvbG9yPSIjNTBhNzkyIiBvZmZzZXQ9IjAuNTUwNjEiLz48c3RvcCBzdG9wLWNvbG9yPSIjMzliMzRhIiBvZmZzZXQ9IjEiLz48L2xpbmVhckdyYWRpZW50PjxsaW5lYXJHcmFkaWVudCB4bGluazpocmVmPSIjbGluZWFyLWdyYWRpZW50IiB5Mj0iMzYyLjEwNzc4IiB4Mj0iNDkxLjA1NTIxIiB5MT0iMzkuMzcwNjciIHgxPSItNTEuNDE3ODEiIGlkPSJsaW5lYXItZ3JhZGllbnQtMiIvPjxsaW5lYXJHcmFkaWVudCB4bGluazpocmVmPSIjbGluZWFyLWdyYWRpZW50IiB5Mj0iMzQ4LjY2MDM0IiB4Mj0iNDk5LjA1NTU5IiB5MT0iMjUuOTIzMjMiIHgxPSItNDMuNDE3NDMiIGlkPSJsaW5lYXItZ3JhZGllbnQtMyIvPjxsaW5lYXJHcmFkaWVudCB4bGluazpocmVmPSIjbGluZWFyLWdyYWRpZW50IiB5Mj0iMzMyLjEzNTQ4IiB4Mj0iNTA4Ljg4NjgzIiB5MT0iOS4zOTgzNyIgeDE9Ii0zMy41ODYxOCIgaWQ9ImxpbmVhci1ncmFkaWVudC00Ii8+PGxpbmVhckdyYWRpZW50IHhsaW5rOmhyZWY9IiNsaW5lYXItZ3JhZGllbnQiIHkyPSIzMTUuNDcyNTMiIHgyPSI1MTguODAwMjMiIHkxPSItNy4yNjQ1OCIgeDE9Ii0yMy42NzI3OCIgaWQ9ImxpbmVhci1ncmFkaWVudC01Ii8+PC9kZWZzPjxwYXRoIGQ9Ik03MS44ODAxMSwyMTUuNjM1MmE3Ljc0MTY3LDcuNzQxNjcsMCwwLDAtNC45ODY4LDEuMzYsMjcuNDk4ODQsMjcuNDk4ODQsMCwwLDEtMy43Nzc4NCwyLjU2OSwxNi4xMTEwNiwxNi4xMTEwNiwwLDAsMS00LjUzMzM5LDEuMzU5OSw0MC4xNjQ3Nyw0MC4xNjQ3NywwLDAsMS02LjQ5Nzg5LjQ1MzQzQTIxLjg0MDA3LDIxLjg0MDA3LDAsMCwxLDQwLjA3MDcyLDIxOC4wNTNhMjMuMDU2MjQsMjMuMDU2MjQsMCwwLDEtOC4xNjAxNi04Ljk4OTY3LDI3LjYwMTI1LDI3LjYwMTI1LDAsMCwxLTIuOTQ2NzEtMTIuOTIxNywyOC41MzY5NCwyOC41MzY5NCwwLDAsMSwyLjg3MTI0LTEzLjA2OTc2LDIyLjEzNjIyLDIyLjEzNjIyLDAsMCwxLDguMjM1NjMtOC45ODk2N0EyNC4zNTYsMjQuMzU2LDAsMCwxLDUzLjE0MiwxNzAuNzU3ODFhMzAuNTYyLDMwLjU2MiwwLDAsMSw0LjYwOS41MjcyNiwxMy44NTczOCwxMy44NTczOCwwLDAsMSw0LjYwOSwxLjQzNzEzLDE2LjA4ODY1LDE2LjA4ODY1LDAsMCwxLDIuODcxMTIsMS45NjQ1MSwxMC40OTI4NSwxMC40OTI4NSwwLDAsMCwyLjc5NTY0LDEuNzM2MjMsMTAuMjA3MjYsMTAuMjA3MjYsMCwwLDAsNC4wMDQ0OS42ODE1OCw2LjAwNTY3LDYuMDA1NjcsMCwwLDAsNS4yODc0My0yLjY0NjA5LDkuODI2MzksOS44MjYzOSwwLDAsMCwxLjgxMzMyLTUuNjY1MTMsMTAuMTk2NzQsMTAuMTk2NzQsMCwwLDAtMy41NTExOS03Ljc4NCwyNC40MzI1MywyNC40MzI1MywwLDAsMC05Ljk3MTg2LTUuMDYwNjUsNTUuNjM2NzksNTUuNjM2NzksMCwwLDAtMTUuMDM1NzctMS44MTM0NSwzOS41MTEsMzkuNTExLDAsMCwwLTIwLjYyNjkzLDUuMzYzLDM3LjU0NDU5LDM3LjU0NDU5LDAsMCwwLTE0LjA1MTk1LDE0LjgwOTExLDQ1LjUxNzYyLDQ1LjUxNzYyLDAsMCwwLTUuMDYyNCwyMS44MzQyOEE0Ni45Nzg0OCw0Ni45Nzg0OCwwLDAsMCwxNS41OTIsMjE3LjQ0ODUzLDM2Ljg2NzUxLDM2Ljg2NzUxLDAsMCwwLDI5LjExNSwyMzIuNDg1OTNRMzcuODc4LDIzOC4wMDMyNSw0OS44MTc1NiwyMzhhNTYuMTI2OTIsNTYuMTI2OTIsMCwwLDAsMTQuODg0NTgtMS44ODcyOSwzNC4wMzIzOCwzNC4wMzIzOCwwLDAsMCwxMS4xMDUyNC00Ljk4NjgxcTQuMjI5NTItMy4wOTYyLDQuMjMxMTQtNi44NzcyM2E5LjEzNDY1LDkuMTM0NjUsMCwwLDAtMi4xMTU1Ny02LjExODQzQTcuNDkwNjgsNy40OTA2OCwwLDAsMCw3MS44ODAxMSwyMTUuNjM1MloiIGNsYXNzPSJjbHMtMSIvPjxwYXRoIGQ9Ik0xNTguNjE0MzYsNjYuODY5NzJhOC42Nzc2Myw4LjY3NzYzLDAsMCwwLTYuNDk3ODksMi42NDYwOSw5LjA1NDIsOS4wNTQyLDAsMCwwLTIuNTY3MzcsNi41NzE3NHY4Ny40ODcyOGEzNi40NSwzNi40NSwwLDAsMC0yLjk0NjcxLTIuNDg4MjcsMzUuNjE5NDQsMzUuNjE5NDQsMCwwLDAtOS40NDQ2LTQuOTg2ODEsMzQuOTQ1NzUsMzQuOTQ1NzUsMCwwLDAtMTEuOTM3ODgtMS45NjQ1MSwzMy4zMTY1NSwzMy4zMTY1NSwwLDAsMC0xOC40MzU4OSw1LjM2MywzOC4xNDc1OCwzOC4xNDc1OCwwLDAsMC0xMy4yMjA4MSwxNC44MDkxMSw1MC42NjIxOCw1MC42NjIxOCwwLDAsMCwwLDQzLjUyMDYyLDM3LjcwMjQ4LDM3LjcwMjQ4LDAsMCwwLDEzLjM3MiwxNC44MDkxMkEzNC41NTQ1LDM0LjU1NDUsMCwwLDAsMTI1LjgyNDI3LDIzOGEyOS40Nzg0NCwyOS40Nzg0NCwwLDAsMCwxMC42NTM1Ny0xLjg4NzI5LDM1LjI5NjQ1LDM1LjI5NjQ1LDAsMCwwLDguNTM3ODctNC42MTA2LDMxLjgyMTA5LDMxLjgyMTA5LDAsMCwwLDQuNTQ2NTMtNC4wNzcsOS4wMjY1MSw5LjAyNjUxLDAsMCwwLDIuNTU0MjMsNi40MjA4LDkuMzA5MjIsOS4zMDkyMiwwLDAsMCwxMi45OTU3OCwwLDkuMDY0MzQsOS4wNjQzNCwwLDAsMCwyLjU2ODg3LTYuNTc1Vjc2LjA4NzU1YTkuMDAwNCw5LjAwMDQsMCwwLDAtMi41Njg4Ny02LjY0OUE4LjgxNzcsOC44MTc3LDAsMCwwLDE1OC42MTQzNiw2Ni44Njk3MlpNMTM5LjcyNjc5LDIxOC4wNTNhMjAuNDY5MzQsMjAuNDY5MzQsMCwwLDEtMTEuNjM1NzYsMy4zMjQ1NCwyMC4yMDQwNiwyMC4yMDQwNiwwLDAsMS0xMS40ODQ1OC0zLjMyNDU0LDIyLjQyOTMxLDIyLjQyOTMxLDAsMCwxLTcuNzgyMzMtOS4wNjY3NywyOC45MjA1MSwyOC45MjA1MSwwLDAsMS0yLjc5NC0xMi44NDQ2LDI5LjI4MjMyLDI5LjI4MjMyLDAsMCwxLDIuNzk0LTEyLjk5MjU0LDIyLjQzMDU4LDIyLjQzMDU4LDAsMCwxLDcuNzgyMzMtOS4wNjY4OSwyMC4yMjg5NCwyMC4yMjg5NCwwLDAsMSwxMS40ODQ1OC0zLjMyNDQxLDIwLjQ5NDMsMjAuNDk0MywwLDAsMSwxMS42MzU3NiwzLjMyNDQxLDIyLjQ1NjE4LDIyLjQ1NjE4LDAsMCwxLDcuNzgyMzMsOS4wNjY4OSwyOS4zMjkxMiwyOS4zMjkxMiwwLDAsMSwyLjc5NTUyLDEyLjk5MjU0LDI4Ljk2NzI4LDI4Ljk2NzI4LDAsMCwxLTIuNzk1NTIsMTIuODQ0NkEyMi40NTQ5MSwyMi40NTQ5MSwwLDAsMSwxMzkuNzI2NzksMjE4LjA1M1oiIGNsYXNzPSJjbHMtMiIvPjxwYXRoIGQ9Ik00Mi40MjI1NCwxMjMuNjI5NTlhODQuMDQ3NTMsODQuMDQ3NTMsMCwwLDEtOC44Mzk3NC0xNS41MTE4NSw4MC4wMjUwNiw4MC4wMjUwNiwwLDAsMS00LjA1NjkzLTExLjQ2MTkyYy0uNzMwODgtMi43MDgyOS0xLjI0NDUxLTUuNDY1NjQtMS43MDcwNy04LjA1Nzc5YTYzLjE5MTE4LDYzLjE5MTE4LDAsMCwxLS44ODAwNy05LjQ0NzQ4QTY4LjQwNzMxLDY4LjQwNzMxLDAsMCwxLDI4LjE0ODIsNjQuMDIwMTdjLjUwMTYxLTIuNTQ4MSwxLjAyMTI0LTUuMTg0MywxLjY4OTA1LTcuNzM2NEE2Ni4zMjE3Miw2Ni4zMjE3MiwwLDAsMSwzMy41OTI4MSw0NS43NjVjMS4zNjk2Ny0zLjAyODY4LDIuNzAzMjktNS42OTQ5Miw0LjA3Ni04LjE0OTlBODUuNjgxNDIsODUuNjgxNDIsMCwwLDEsNDkuMDcwNjIsMjIuMTIxMjdhNi44MzkxMiw2LjgzOTEyLDAsMCwwLDEuNTM1ODYtNy4wMzk1Niw4LjE3OSw4LjE3OSwwLDAsMC01Ljg2NTEyLTUuMTM1MjMsOS4zOTIzMyw5LjM5MjMzLDAsMCwwLTguMzg0MTksMS45OTI0MiwzNC4zMTM2NywzNC4zMTM2NywwLDAsMC01LjIzNzM2LDUuOTA3MTdsLS44MzcsMS4xMDAzNGE5OC40OTUsOTguNDk1LDAsMCwwLTguOTg0OTEsMTMuNTk0NTFjLTEuMTU2NDEsMi4xNTk2My0yLjI3Njc3LDQuMjgzMjEtMy4yNzIsNi41MjQ5M0MxNi43MjczMyw0MS45OTE0MSwxNS42NDYsNDQuOTM4LDE0LjQ2NjU4LDQ4LjIxMmE4MC42NTg4NCw4MC42NTg4NCwwLDAsMC0yLjI4MDc3LDcuOTc3NjlsLS4yMjQyNy44OTgxYy0uMjMyMjkuOTI3MTItLjM3MjQ2LDEuODUzMjUtLjUyMjY0LDIuODQwNDUtLjEwNjEzLjY5Nzg0LS4yMTIyNiwxLjM5NTY5LS4zNjY0NCwyLjA4MjUzYTQ3Ljg3MjQyLDQ3Ljg3MjQyLDAsMCwwLS44MSw1LjYxMTgxYy0uMTA1MTMsMS4wMTQyNC0uMjEwMjUsMi4wMjg0Ny0uMzUzNDMsMy4wMzk3YTI1LjI4ODg0LDI1LjI4ODg0LDAsMCwwLS4xMDgxMyw0LjQ1ODQxYy4wMi41NzQ3LjA0MDA1LDEuMTQ5NC4wNDAwNSwxLjY3NmE2Mi42NzAxNyw2Mi42NzAxNywwLDAsMCwuNzU2OTIsMTEuODUyNGMuMDg4MTEuNTY5NjkuMTY5MiwxLjE0MjM5LjI1MDMsMS43MTYwOGwuMDQyMDUuMjk5MzdjLjEzMjE2LjkzMTEzLjI2NTMzLDEuODYzMjYuNDIyNTIsMi43ODgzOWE3OC43MTA0NSw3OC43MTA0NSwwLDAsMCwzLjcyNzUzLDEzLjg5MTg3YzEuMDM5MjYsMi44MzA0NCwxLjk5MzQyLDUuMzc5NTQsMy4xNTA4Miw3Ljg5NzZhOTQuMTIyNDgsOTQuMTIyNDgsMCwwLDAsNy4zODQsMTMuMTE1OTMsMTAyLjAxODY0LDEwMi4wMTg2NCwwLDAsMCwxMC43MzYwNSwxMy41OTc1Miw5LjgyMTU3LDkuODIxNTcsMCwwLDAsNi42NjcxLDIuNTgxMTQsNi44NDE0NCw2Ljg0MTQ0LDAsMCwwLDEuOTgxNC0uMjcwMzNjMy4xMDI3Ny0uOTQ0MTUsNS4zMjA0Ny0yLjg5ODUyLDYuMDg0NC01LjM2MzUyYTcuMTc2NCw3LjE3NjQsMCwwLDAtMS44NjAyNi03LjAzMTU0QTEwMS40NTQxOCwxMDEuNDU0MTgsMCwwLDEsNDIuNDIyNTQsMTIzLjYyOTU5WiIgY2xhc3M9ImNscy0zIi8+PHBhdGggZD0iTTg1LjI5OTYzLDExMy45Njk4NWwtLjU5NTYuNDg1NDcuNTY4NTctLjUxODUxYy0uNTYxNjgtLjY5Mjg0LTEuMTI0MzctMS4zODQ2OC0xLjY0NS0yLjA5OTU1YTYxLjA3MTI3LDYxLjA3MTI3LDAsMCwxLTQuNzgwODEtNy44MDE0OCw2NS41Niw2NS41NiwwLDAsMS0zLjA1OTcxLTYuNTk4LDU4LjAzMzkxLDU4LjAzMzkxLDAsMCwxLTEuOTc5NDEtNi41ODNsLS4yMjcyOC0uODkzMDlhMzAuNTc0NDQsMzAuNTc0NDQsMCwwLDEtMS4wNzYzLTUuNjI5ODRjLS4wNTAwNi0uODc0MDYtLjExNzE1LTEuNzQ2MTItLjE4NTIzLTIuNjMxMTlhNDIuNDYxNjYsNDIuNDYxNjYsMCwwLDEtLjA4NDEtOC40NjQyOUw3Mi40NjksNzEuMjZBNjAuMzY4LDYwLjM2OCwwLDAsMSw3My42Mjg0NSw2My45MDRhNjAuMjQ4ODEsNjAuMjQ4ODEsMCwwLDEsNS4wNDAxMy0xMy42MzQ1N0E2NS43MzMsNjUuNzMzLDAsMCwxLDg2LjM5OCwzOC41NzEyNWMxLjU0ODg4LTEuODc3MjgsMi45ODE2Mi00LjIwMzExLDEuODY4MjctNy4yMTk3N2E3LjczOTI4LDcuNzM5MjgsMCwwLDAtNS45MDYxOC01LjIyMTM0Yy0zLjU2ODMzLS43Njg5NC02LjU2NS0uMDEzLTguNjYxNTIsMi4xODE2NUE2NS4zMDE5NCw2NS4zMDE5NCwwLDAsMCw2NC45OCw0MC4yNDYyOWE3NC4zNzU4Niw3NC4zNzU4NiwwLDAsMC02LjM0NjcxLDEzLjk0MjkzQTY5Ljk5MjI0LDY5Ljk5MjI0LDAsMCwwLDU1LjQ3ODQsNjcuNzgxNzRsLS4xMjYxNS45MTAxYTMxLjY3MjcyLDMxLjY3MjcyLDAsMCwwLS40MDY0OSw4LjM4MTE5YzAsLjQyODUyLS4wMTkuODczMDYtLjA0MDA1LDEuMzUyNjRhMTcuNzA4MTQsMTcuNzA4MTQsMCwwLDAsLjEwNzEzLDMuNjY1NDVjLjE3MDIsMS4wNDcyNy4yOTUzNiwyLjA5NzU1LjQzMjUyLDMuMjM1OTMuMTkzMjQsMS42MTUuMzkzNDgsMy4yODYuNzQ5OTEsNC45NDkuMTI2MTYuNTg3NzEuMjQxMywxLjE3NzQzLjM2MTQ0LDEuNzkxMTdBNDAuNjc5MzUsNDAuNjc5MzUsMCwwLDAsNTcuNjQzLDk2LjY1OTgyYTg3Ljc1NzU3LDg3Ljc1NzU3LDAsMCwwLDQuMjQ2MTYsMTEuMDY3NDUsNzkuODMwNCw3OS44MzA0LDAsMCwwLDExLjEzNTUzLDE3LjE3Njg2LDkuMDM0Niw5LjAzNDYsMCwwLDAsNy4xMjM2NSwzLjQ3ODIzaC4wMDRhMTEuMTM4NjYsMTEuMTM4NjYsMCwwLDAsMi4yODA3Ny0uMjQ2Myw4LjEzNzQ1LDguMTM3NDUsMCwwLDAsNS43ODctNC40Njc0Myw2LjYyMTQ4LDYuNjIxNDgsMCwwLDAtLjQ4NDU5LTYuNDgyODdBMzguOTM0MDcsMzguOTM0MDcsMCwwLDAsODUuMjk5NjMsMTEzLjk2OTg1WiIgY2xhc3M9ImNscy00Ii8+PHBhdGggZD0iTTExOS41MTExOSw4OS4xNzg3M2EzNi4xMzA4MiwzNi4xMzA4MiwwLDAsMS0yLjA3MzUxLTkuNDMwNDUsMzkuNTcyMjIsMzkuNTcyMjIsMCwwLDEsLjUzODY1LTEwLjI4MzVsLjA2NTA4LS4zMjQzOWEyNS44NzE3NSwyNS44NzE3NSwwLDAsMSwxLjE4MTQzLTQuNTYzNTUsNDUuODE3NzMsNDUuODE3NzMsMCwwLDEsNS4xOTczMi05Ljg1OWMxLjc5ODE4LTIuNTI3MDcsMi4xMzU1OS00Ljk3MSwxLjAwNDIyLTcuMjYxODNhOC4zMzkzOCw4LjMzOTM4LDAsMCwwLTcuMTkzNzQtNC43Njg3OSw4LjU1MTk0LDguNTUxOTQsMCwwLDAtNy43NDA0LDMuMDk5NzcsNTEuMTY0NTgsNTEuMTY0NTgsMCwwLDAtNC44NDE4OSw3Ljg3MzU2LDQ5Ljk4Mjc4LDQ5Ljk4Mjc4LDAsMCwwLTQuNjU3NjYsMTMuMTI0OTUsNDEuNzc0NDgsNDEuNzc0NDgsMCwwLDAtLjkzMTEzLDkuNzQwODMsNTAuNjMwNjgsNTAuNjMwNjgsMCwwLDAsMS4zNzk2OCwxMS44NDk0LDUxLjQyODA5LDUxLjQyODA5LDAsMCwwLDMuMzI0LDkuNDMwNDUsNTcuOTY0NjIsNTcuOTY0NjIsMCwwLDAsNC42Mzg2Myw4LjI4NDA3LDkuNzczODIsOS43NzM4MiwwLDAsMCw2LjgxODI5LDQuNzE0NzMsOS4wNTYwNyw5LjA1NjA3LDAsMCwwLDEuNDUwNzYuMTE1MTQsOS4yODQ1NSw5LjI4NDU1LDAsMCwwLDUuNDgyNjYtMS43OTIxOCw3LjA4ODI5LDcuMDg4MjksMCwwLDAsMi45OTQ2NC01LjEyMzIzLDguNzE5MjgsOC43MTkyOCwwLDAsMC0xLjk0NDM2LTUuODQ2MUEzNC42MDIwNiwzNC42MDIwNiwwLDAsMSwxMTkuNTExMTksODkuMTc4NzNaIiBjbGFzcz0iY2xzLTUiLz48L3N2Zz4=;sketch=1;fontFamily=IBM Plex Mono;fontSize=19;" parent="1" vertex="1">
                    <mxGeometry x="770" y="279.5" width="23" height="31.3" as="geometry"/>
                </mxCell>
                <mxCell id="xMlnUiTXEX7Q_oC-0Y35-43" value="" style="shape=image;verticalLabelPosition=bottom;verticalAlign=top;imageAspect=0;aspect=fixed;image=data:image/svg+xml,PHN2ZyB4bWxuczp4bGluaz0iaHR0cDovL3d3dy53My5vcmcvMTk5OS94bGluayIgeG1sbnM9Imh0dHA6Ly93d3cudzMub3JnLzIwMDAvc3ZnIiB2aWV3Qm94PSIwIDAgMTgzIDI0OSIgZGF0YS1uYW1lPSJMYXllciAxIiBpZD0iTGF5ZXJfMSI+PGRlZnM+PHN0eWxlPi5jbHMtMXtmaWxsOnVybCgjbGluZWFyLWdyYWRpZW50KTt9LmNscy0ye2ZpbGw6dXJsKCNsaW5lYXItZ3JhZGllbnQtMik7fS5jbHMtM3tmaWxsOnVybCgjbGluZWFyLWdyYWRpZW50LTMpO30uY2xzLTR7ZmlsbDp1cmwoI2xpbmVhci1ncmFkaWVudC00KTt9LmNscy01e2ZpbGw6dXJsKCNsaW5lYXItZ3JhZGllbnQtNSk7fTwvc3R5bGU+PGxpbmVhckdyYWRpZW50IGdyYWRpZW50VW5pdHM9InVzZXJTcGFjZU9uVXNlIiB5Mj0iNDMyLjYwMTI4IiB4Mj0iNDQ5LjExNjA0IiB5MT0iMTA5Ljg2NDE3IiB4MT0iLTkzLjM1Njk4IiBpZD0ibGluZWFyLWdyYWRpZW50Ij48c3RvcCBzdG9wLWNvbG9yPSIjMmUzMTkwIiBvZmZzZXQ9IjAiLz48c3RvcCBzdG9wLWNvbG9yPSIjNTBhNzkyIiBvZmZzZXQ9IjAuNTUwNjEiLz48c3RvcCBzdG9wLWNvbG9yPSIjMzliMzRhIiBvZmZzZXQ9IjEiLz48L2xpbmVhckdyYWRpZW50PjxsaW5lYXJHcmFkaWVudCB4bGluazpocmVmPSIjbGluZWFyLWdyYWRpZW50IiB5Mj0iMzYyLjEwNzc4IiB4Mj0iNDkxLjA1NTIxIiB5MT0iMzkuMzcwNjciIHgxPSItNTEuNDE3ODEiIGlkPSJsaW5lYXItZ3JhZGllbnQtMiIvPjxsaW5lYXJHcmFkaWVudCB4bGluazpocmVmPSIjbGluZWFyLWdyYWRpZW50IiB5Mj0iMzQ4LjY2MDM0IiB4Mj0iNDk5LjA1NTU5IiB5MT0iMjUuOTIzMjMiIHgxPSItNDMuNDE3NDMiIGlkPSJsaW5lYXItZ3JhZGllbnQtMyIvPjxsaW5lYXJHcmFkaWVudCB4bGluazpocmVmPSIjbGluZWFyLWdyYWRpZW50IiB5Mj0iMzMyLjEzNTQ4IiB4Mj0iNTA4Ljg4NjgzIiB5MT0iOS4zOTgzNyIgeDE9Ii0zMy41ODYxOCIgaWQ9ImxpbmVhci1ncmFkaWVudC00Ii8+PGxpbmVhckdyYWRpZW50IHhsaW5rOmhyZWY9IiNsaW5lYXItZ3JhZGllbnQiIHkyPSIzMTUuNDcyNTMiIHgyPSI1MTguODAwMjMiIHkxPSItNy4yNjQ1OCIgeDE9Ii0yMy42NzI3OCIgaWQ9ImxpbmVhci1ncmFkaWVudC01Ii8+PC9kZWZzPjxwYXRoIGQ9Ik03MS44ODAxMSwyMTUuNjM1MmE3Ljc0MTY3LDcuNzQxNjcsMCwwLDAtNC45ODY4LDEuMzYsMjcuNDk4ODQsMjcuNDk4ODQsMCwwLDEtMy43Nzc4NCwyLjU2OSwxNi4xMTEwNiwxNi4xMTEwNiwwLDAsMS00LjUzMzM5LDEuMzU5OSw0MC4xNjQ3Nyw0MC4xNjQ3NywwLDAsMS02LjQ5Nzg5LjQ1MzQzQTIxLjg0MDA3LDIxLjg0MDA3LDAsMCwxLDQwLjA3MDcyLDIxOC4wNTNhMjMuMDU2MjQsMjMuMDU2MjQsMCwwLDEtOC4xNjAxNi04Ljk4OTY3LDI3LjYwMTI1LDI3LjYwMTI1LDAsMCwxLTIuOTQ2NzEtMTIuOTIxNywyOC41MzY5NCwyOC41MzY5NCwwLDAsMSwyLjg3MTI0LTEzLjA2OTc2LDIyLjEzNjIyLDIyLjEzNjIyLDAsMCwxLDguMjM1NjMtOC45ODk2N0EyNC4zNTYsMjQuMzU2LDAsMCwxLDUzLjE0MiwxNzAuNzU3ODFhMzAuNTYyLDMwLjU2MiwwLDAsMSw0LjYwOS41MjcyNiwxMy44NTczOCwxMy44NTczOCwwLDAsMSw0LjYwOSwxLjQzNzEzLDE2LjA4ODY1LDE2LjA4ODY1LDAsMCwxLDIuODcxMTIsMS45NjQ1MSwxMC40OTI4NSwxMC40OTI4NSwwLDAsMCwyLjc5NTY0LDEuNzM2MjMsMTAuMjA3MjYsMTAuMjA3MjYsMCwwLDAsNC4wMDQ0OS42ODE1OCw2LjAwNTY3LDYuMDA1NjcsMCwwLDAsNS4yODc0My0yLjY0NjA5LDkuODI2MzksOS44MjYzOSwwLDAsMCwxLjgxMzMyLTUuNjY1MTMsMTAuMTk2NzQsMTAuMTk2NzQsMCwwLDAtMy41NTExOS03Ljc4NCwyNC40MzI1MywyNC40MzI1MywwLDAsMC05Ljk3MTg2LTUuMDYwNjUsNTUuNjM2NzksNTUuNjM2NzksMCwwLDAtMTUuMDM1NzctMS44MTM0NSwzOS41MTEsMzkuNTExLDAsMCwwLTIwLjYyNjkzLDUuMzYzLDM3LjU0NDU5LDM3LjU0NDU5LDAsMCwwLTE0LjA1MTk1LDE0LjgwOTExLDQ1LjUxNzYyLDQ1LjUxNzYyLDAsMCwwLTUuMDYyNCwyMS44MzQyOEE0Ni45Nzg0OCw0Ni45Nzg0OCwwLDAsMCwxNS41OTIsMjE3LjQ0ODUzLDM2Ljg2NzUxLDM2Ljg2NzUxLDAsMCwwLDI5LjExNSwyMzIuNDg1OTNRMzcuODc4LDIzOC4wMDMyNSw0OS44MTc1NiwyMzhhNTYuMTI2OTIsNTYuMTI2OTIsMCwwLDAsMTQuODg0NTgtMS44ODcyOSwzNC4wMzIzOCwzNC4wMzIzOCwwLDAsMCwxMS4xMDUyNC00Ljk4NjgxcTQuMjI5NTItMy4wOTYyLDQuMjMxMTQtNi44NzcyM2E5LjEzNDY1LDkuMTM0NjUsMCwwLDAtMi4xMTU1Ny02LjExODQzQTcuNDkwNjgsNy40OTA2OCwwLDAsMCw3MS44ODAxMSwyMTUuNjM1MloiIGNsYXNzPSJjbHMtMSIvPjxwYXRoIGQ9Ik0xNTguNjE0MzYsNjYuODY5NzJhOC42Nzc2Myw4LjY3NzYzLDAsMCwwLTYuNDk3ODksMi42NDYwOSw5LjA1NDIsOS4wNTQyLDAsMCwwLTIuNTY3MzcsNi41NzE3NHY4Ny40ODcyOGEzNi40NSwzNi40NSwwLDAsMC0yLjk0NjcxLTIuNDg4MjcsMzUuNjE5NDQsMzUuNjE5NDQsMCwwLDAtOS40NDQ2LTQuOTg2ODEsMzQuOTQ1NzUsMzQuOTQ1NzUsMCwwLDAtMTEuOTM3ODgtMS45NjQ1MSwzMy4zMTY1NSwzMy4zMTY1NSwwLDAsMC0xOC40MzU4OSw1LjM2MywzOC4xNDc1OCwzOC4xNDc1OCwwLDAsMC0xMy4yMjA4MSwxNC44MDkxMSw1MC42NjIxOCw1MC42NjIxOCwwLDAsMCwwLDQzLjUyMDYyLDM3LjcwMjQ4LDM3LjcwMjQ4LDAsMCwwLDEzLjM3MiwxNC44MDkxMkEzNC41NTQ1LDM0LjU1NDUsMCwwLDAsMTI1LjgyNDI3LDIzOGEyOS40Nzg0NCwyOS40Nzg0NCwwLDAsMCwxMC42NTM1Ny0xLjg4NzI5LDM1LjI5NjQ1LDM1LjI5NjQ1LDAsMCwwLDguNTM3ODctNC42MTA2LDMxLjgyMTA5LDMxLjgyMTA5LDAsMCwwLDQuNTQ2NTMtNC4wNzcsOS4wMjY1MSw5LjAyNjUxLDAsMCwwLDIuNTU0MjMsNi40MjA4LDkuMzA5MjIsOS4zMDkyMiwwLDAsMCwxMi45OTU3OCwwLDkuMDY0MzQsOS4wNjQzNCwwLDAsMCwyLjU2ODg3LTYuNTc1Vjc2LjA4NzU1YTkuMDAwNCw5LjAwMDQsMCwwLDAtMi41Njg4Ny02LjY0OUE4LjgxNzcsOC44MTc3LDAsMCwwLDE1OC42MTQzNiw2Ni44Njk3MlpNMTM5LjcyNjc5LDIxOC4wNTNhMjAuNDY5MzQsMjAuNDY5MzQsMCwwLDEtMTEuNjM1NzYsMy4zMjQ1NCwyMC4yMDQwNiwyMC4yMDQwNiwwLDAsMS0xMS40ODQ1OC0zLjMyNDU0LDIyLjQyOTMxLDIyLjQyOTMxLDAsMCwxLTcuNzgyMzMtOS4wNjY3NywyOC45MjA1MSwyOC45MjA1MSwwLDAsMS0yLjc5NC0xMi44NDQ2LDI5LjI4MjMyLDI5LjI4MjMyLDAsMCwxLDIuNzk0LTEyLjk5MjU0LDIyLjQzMDU4LDIyLjQzMDU4LDAsMCwxLDcuNzgyMzMtOS4wNjY4OSwyMC4yMjg5NCwyMC4yMjg5NCwwLDAsMSwxMS40ODQ1OC0zLjMyNDQxLDIwLjQ5NDMsMjAuNDk0MywwLDAsMSwxMS42MzU3NiwzLjMyNDQxLDIyLjQ1NjE4LDIyLjQ1NjE4LDAsMCwxLDcuNzgyMzMsOS4wNjY4OSwyOS4zMjkxMiwyOS4zMjkxMiwwLDAsMSwyLjc5NTUyLDEyLjk5MjU0LDI4Ljk2NzI4LDI4Ljk2NzI4LDAsMCwxLTIuNzk1NTIsMTIuODQ0NkEyMi40NTQ5MSwyMi40NTQ5MSwwLDAsMSwxMzkuNzI2NzksMjE4LjA1M1oiIGNsYXNzPSJjbHMtMiIvPjxwYXRoIGQ9Ik00Mi40MjI1NCwxMjMuNjI5NTlhODQuMDQ3NTMsODQuMDQ3NTMsMCwwLDEtOC44Mzk3NC0xNS41MTE4NSw4MC4wMjUwNiw4MC4wMjUwNiwwLDAsMS00LjA1NjkzLTExLjQ2MTkyYy0uNzMwODgtMi43MDgyOS0xLjI0NDUxLTUuNDY1NjQtMS43MDcwNy04LjA1Nzc5YTYzLjE5MTE4LDYzLjE5MTE4LDAsMCwxLS44ODAwNy05LjQ0NzQ4QTY4LjQwNzMxLDY4LjQwNzMxLDAsMCwxLDI4LjE0ODIsNjQuMDIwMTdjLjUwMTYxLTIuNTQ4MSwxLjAyMTI0LTUuMTg0MywxLjY4OTA1LTcuNzM2NEE2Ni4zMjE3Miw2Ni4zMjE3MiwwLDAsMSwzMy41OTI4MSw0NS43NjVjMS4zNjk2Ny0zLjAyODY4LDIuNzAzMjktNS42OTQ5Miw0LjA3Ni04LjE0OTlBODUuNjgxNDIsODUuNjgxNDIsMCwwLDEsNDkuMDcwNjIsMjIuMTIxMjdhNi44MzkxMiw2LjgzOTEyLDAsMCwwLDEuNTM1ODYtNy4wMzk1Niw4LjE3OSw4LjE3OSwwLDAsMC01Ljg2NTEyLTUuMTM1MjMsOS4zOTIzMyw5LjM5MjMzLDAsMCwwLTguMzg0MTksMS45OTI0MiwzNC4zMTM2NywzNC4zMTM2NywwLDAsMC01LjIzNzM2LDUuOTA3MTdsLS44MzcsMS4xMDAzNGE5OC40OTUsOTguNDk1LDAsMCwwLTguOTg0OTEsMTMuNTk0NTFjLTEuMTU2NDEsMi4xNTk2My0yLjI3Njc3LDQuMjgzMjEtMy4yNzIsNi41MjQ5M0MxNi43MjczMyw0MS45OTE0MSwxNS42NDYsNDQuOTM4LDE0LjQ2NjU4LDQ4LjIxMmE4MC42NTg4NCw4MC42NTg4NCwwLDAsMC0yLjI4MDc3LDcuOTc3NjlsLS4yMjQyNy44OTgxYy0uMjMyMjkuOTI3MTItLjM3MjQ2LDEuODUzMjUtLjUyMjY0LDIuODQwNDUtLjEwNjEzLjY5Nzg0LS4yMTIyNiwxLjM5NTY5LS4zNjY0NCwyLjA4MjUzYTQ3Ljg3MjQyLDQ3Ljg3MjQyLDAsMCwwLS44MSw1LjYxMTgxYy0uMTA1MTMsMS4wMTQyNC0uMjEwMjUsMi4wMjg0Ny0uMzUzNDMsMy4wMzk3YTI1LjI4ODg0LDI1LjI4ODg0LDAsMCwwLS4xMDgxMyw0LjQ1ODQxYy4wMi41NzQ3LjA0MDA1LDEuMTQ5NC4wNDAwNSwxLjY3NmE2Mi42NzAxNyw2Mi42NzAxNywwLDAsMCwuNzU2OTIsMTEuODUyNGMuMDg4MTEuNTY5NjkuMTY5MiwxLjE0MjM5LjI1MDMsMS43MTYwOGwuMDQyMDUuMjk5MzdjLjEzMjE2LjkzMTEzLjI2NTMzLDEuODYzMjYuNDIyNTIsMi43ODgzOWE3OC43MTA0NSw3OC43MTA0NSwwLDAsMCwzLjcyNzUzLDEzLjg5MTg3YzEuMDM5MjYsMi44MzA0NCwxLjk5MzQyLDUuMzc5NTQsMy4xNTA4Miw3Ljg5NzZhOTQuMTIyNDgsOTQuMTIyNDgsMCwwLDAsNy4zODQsMTMuMTE1OTMsMTAyLjAxODY0LDEwMi4wMTg2NCwwLDAsMCwxMC43MzYwNSwxMy41OTc1Miw5LjgyMTU3LDkuODIxNTcsMCwwLDAsNi42NjcxLDIuNTgxMTQsNi44NDE0NCw2Ljg0MTQ0LDAsMCwwLDEuOTgxNC0uMjcwMzNjMy4xMDI3Ny0uOTQ0MTUsNS4zMjA0Ny0yLjg5ODUyLDYuMDg0NC01LjM2MzUyYTcuMTc2NCw3LjE3NjQsMCwwLDAtMS44NjAyNi03LjAzMTU0QTEwMS40NTQxOCwxMDEuNDU0MTgsMCwwLDEsNDIuNDIyNTQsMTIzLjYyOTU5WiIgY2xhc3M9ImNscy0zIi8+PHBhdGggZD0iTTg1LjI5OTYzLDExMy45Njk4NWwtLjU5NTYuNDg1NDcuNTY4NTctLjUxODUxYy0uNTYxNjgtLjY5Mjg0LTEuMTI0MzctMS4zODQ2OC0xLjY0NS0yLjA5OTU1YTYxLjA3MTI3LDYxLjA3MTI3LDAsMCwxLTQuNzgwODEtNy44MDE0OCw2NS41Niw2NS41NiwwLDAsMS0zLjA1OTcxLTYuNTk4LDU4LjAzMzkxLDU4LjAzMzkxLDAsMCwxLTEuOTc5NDEtNi41ODNsLS4yMjcyOC0uODkzMDlhMzAuNTc0NDQsMzAuNTc0NDQsMCwwLDEtMS4wNzYzLTUuNjI5ODRjLS4wNTAwNi0uODc0MDYtLjExNzE1LTEuNzQ2MTItLjE4NTIzLTIuNjMxMTlhNDIuNDYxNjYsNDIuNDYxNjYsMCwwLDEtLjA4NDEtOC40NjQyOUw3Mi40NjksNzEuMjZBNjAuMzY4LDYwLjM2OCwwLDAsMSw3My42Mjg0NSw2My45MDRhNjAuMjQ4ODEsNjAuMjQ4ODEsMCwwLDEsNS4wNDAxMy0xMy42MzQ1N0E2NS43MzMsNjUuNzMzLDAsMCwxLDg2LjM5OCwzOC41NzEyNWMxLjU0ODg4LTEuODc3MjgsMi45ODE2Mi00LjIwMzExLDEuODY4MjctNy4yMTk3N2E3LjczOTI4LDcuNzM5MjgsMCwwLDAtNS45MDYxOC01LjIyMTM0Yy0zLjU2ODMzLS43Njg5NC02LjU2NS0uMDEzLTguNjYxNTIsMi4xODE2NUE2NS4zMDE5NCw2NS4zMDE5NCwwLDAsMCw2NC45OCw0MC4yNDYyOWE3NC4zNzU4Niw3NC4zNzU4NiwwLDAsMC02LjM0NjcxLDEzLjk0MjkzQTY5Ljk5MjI0LDY5Ljk5MjI0LDAsMCwwLDU1LjQ3ODQsNjcuNzgxNzRsLS4xMjYxNS45MTAxYTMxLjY3MjcyLDMxLjY3MjcyLDAsMCwwLS40MDY0OSw4LjM4MTE5YzAsLjQyODUyLS4wMTkuODczMDYtLjA0MDA1LDEuMzUyNjRhMTcuNzA4MTQsMTcuNzA4MTQsMCwwLDAsLjEwNzEzLDMuNjY1NDVjLjE3MDIsMS4wNDcyNy4yOTUzNiwyLjA5NzU1LjQzMjUyLDMuMjM1OTMuMTkzMjQsMS42MTUuMzkzNDgsMy4yODYuNzQ5OTEsNC45NDkuMTI2MTYuNTg3NzEuMjQxMywxLjE3NzQzLjM2MTQ0LDEuNzkxMTdBNDAuNjc5MzUsNDAuNjc5MzUsMCwwLDAsNTcuNjQzLDk2LjY1OTgyYTg3Ljc1NzU3LDg3Ljc1NzU3LDAsMCwwLDQuMjQ2MTYsMTEuMDY3NDUsNzkuODMwNCw3OS44MzA0LDAsMCwwLDExLjEzNTUzLDE3LjE3Njg2LDkuMDM0Niw5LjAzNDYsMCwwLDAsNy4xMjM2NSwzLjQ3ODIzaC4wMDRhMTEuMTM4NjYsMTEuMTM4NjYsMCwwLDAsMi4yODA3Ny0uMjQ2Myw4LjEzNzQ1LDguMTM3NDUsMCwwLDAsNS43ODctNC40Njc0Myw2LjYyMTQ4LDYuNjIxNDgsMCwwLDAtLjQ4NDU5LTYuNDgyODdBMzguOTM0MDcsMzguOTM0MDcsMCwwLDAsODUuMjk5NjMsMTEzLjk2OTg1WiIgY2xhc3M9ImNscy00Ii8+PHBhdGggZD0iTTExOS41MTExOSw4OS4xNzg3M2EzNi4xMzA4MiwzNi4xMzA4MiwwLDAsMS0yLjA3MzUxLTkuNDMwNDUsMzkuNTcyMjIsMzkuNTcyMjIsMCwwLDEsLjUzODY1LTEwLjI4MzVsLjA2NTA4LS4zMjQzOWEyNS44NzE3NSwyNS44NzE3NSwwLDAsMSwxLjE4MTQzLTQuNTYzNTUsNDUuODE3NzMsNDUuODE3NzMsMCwwLDEsNS4xOTczMi05Ljg1OWMxLjc5ODE4LTIuNTI3MDcsMi4xMzU1OS00Ljk3MSwxLjAwNDIyLTcuMjYxODNhOC4zMzkzOCw4LjMzOTM4LDAsMCwwLTcuMTkzNzQtNC43Njg3OSw4LjU1MTk0LDguNTUxOTQsMCwwLDAtNy43NDA0LDMuMDk5NzcsNTEuMTY0NTgsNTEuMTY0NTgsMCwwLDAtNC44NDE4OSw3Ljg3MzU2LDQ5Ljk4Mjc4LDQ5Ljk4Mjc4LDAsMCwwLTQuNjU3NjYsMTMuMTI0OTUsNDEuNzc0NDgsNDEuNzc0NDgsMCwwLDAtLjkzMTEzLDkuNzQwODMsNTAuNjMwNjgsNTAuNjMwNjgsMCwwLDAsMS4zNzk2OCwxMS44NDk0LDUxLjQyODA5LDUxLjQyODA5LDAsMCwwLDMuMzI0LDkuNDMwNDUsNTcuOTY0NjIsNTcuOTY0NjIsMCwwLDAsNC42Mzg2Myw4LjI4NDA3LDkuNzczODIsOS43NzM4MiwwLDAsMCw2LjgxODI5LDQuNzE0NzMsOS4wNTYwNyw5LjA1NjA3LDAsMCwwLDEuNDUwNzYuMTE1MTQsOS4yODQ1NSw5LjI4NDU1LDAsMCwwLDUuNDgyNjYtMS43OTIxOCw3LjA4ODI5LDcuMDg4MjksMCwwLDAsMi45OTQ2NC01LjEyMzIzLDguNzE5MjgsOC43MTkyOCwwLDAsMC0xLjk0NDM2LTUuODQ2MUEzNC42MDIwNiwzNC42MDIwNiwwLDAsMSwxMTkuNTExMTksODkuMTc4NzNaIiBjbGFzcz0iY2xzLTUiLz48L3N2Zz4=;sketch=1;fontFamily=IBM Plex Mono;fontSize=19;" parent="1" vertex="1">
                    <mxGeometry x="850" y="279.5" width="23" height="31.3" as="geometry"/>
                </mxCell>
                <mxCell id="xMlnUiTXEX7Q_oC-0Y35-44" style="edgeStyle=none;orthogonalLoop=1;jettySize=auto;html=1;fontFamily=IBM Plex Mono;fontSize=15;fillColor=#dae8fc;strokeColor=#6c8ebf;exitX=0.842;exitY=0.995;exitDx=0;exitDy=0;exitPerimeter=0;entryX=0.476;entryY=-0.009;entryDx=0;entryDy=0;entryPerimeter=0;endSize=10;strokeWidth=1;startSize=6;rounded=0;sketch=1;" parent="1" edge="1">
                    <mxGeometry relative="1" as="geometry">
                        <mxPoint x="877.0025" y="259.8" as="sourcePoint"/>
                        <mxPoint x="877.3400000000001" y="429.47999999999996" as="targetPoint"/>
                    </mxGeometry>
                </mxCell>
                <mxCell id="xMlnUiTXEX7Q_oC-0Y35-64" value="" style="edgeStyle=none;rounded=0;sketch=1;orthogonalLoop=1;jettySize=auto;html=1;strokeWidth=1;fontFamily=IBM Plex Mono;fontSize=11;endArrow=classic;endFill=1;startSize=6;endSize=10;" parent="1" source="xMlnUiTXEX7Q_oC-0Y35-46" edge="1">
                    <mxGeometry relative="1" as="geometry">
                        <mxPoint x="469" y="660" as="targetPoint"/>
                    </mxGeometry>
                </mxCell>
                <mxCell id="xMlnUiTXEX7Q_oC-0Y35-46" value="View" style="rounded=1;whiteSpace=wrap;html=1;fontFamily=IBM Plex Mono;fontSize=19;fillColor=#b0e3e6;strokeColor=#0e8088;sketch=1;" parent="1" vertex="1">
                    <mxGeometry x="398.5" y="540" width="141.5" height="80" as="geometry"/>
                </mxCell>
                <mxCell id="xMlnUiTXEX7Q_oC-0Y35-49" value="Store" style="rounded=1;whiteSpace=wrap;html=1;fontFamily=IBM Plex Mono;fontSize=19;fillColor=#b0e3e6;strokeColor=#0e8088;sketch=1;" parent="1" vertex="1">
                    <mxGeometry x="920" y="540" width="140" height="80" as="geometry"/>
                </mxCell>
                <mxCell id="xMlnUiTXEX7Q_oC-0Y35-57" style="edgeStyle=none;rounded=0;sketch=1;orthogonalLoop=1;jettySize=auto;html=1;strokeWidth=1;fontFamily=IBM Plex Mono;fontSize=11;endArrow=classic;endFill=1;startSize=6;endSize=10;exitX=0.5;exitY=1;exitDx=0;exitDy=0;" parent="1" source="xMlnUiTXEX7Q_oC-0Y35-50" edge="1">
                    <mxGeometry relative="1" as="geometry">
                        <mxPoint x="643" y="660" as="targetPoint"/>
                        <mxPoint x="640" y="620" as="sourcePoint"/>
                    </mxGeometry>
                </mxCell>
                <mxCell id="xMlnUiTXEX7Q_oC-0Y35-50" value="Notify" style="rounded=1;whiteSpace=wrap;html=1;fontFamily=IBM Plex Mono;fontSize=19;fillColor=#b0e3e6;strokeColor=#0e8088;sketch=1;" parent="1" vertex="1">
                    <mxGeometry x="573" y="540" width="140" height="80" as="geometry"/>
                </mxCell>
                <mxCell id="xMlnUiTXEX7Q_oC-0Y35-51" value="Metrics" style="rounded=1;whiteSpace=wrap;html=1;fontFamily=IBM Plex Mono;fontSize=19;fillColor=#b0e3e6;strokeColor=#0e8088;sketch=1;" parent="1" vertex="1">
                    <mxGeometry x="750" y="540" width="140" height="80" as="geometry"/>
                </mxCell>
                <mxCell id="xMlnUiTXEX7Q_oC-0Y35-53" style="edgeStyle=none;rounded=0;sketch=1;orthogonalLoop=1;jettySize=auto;html=1;entryX=0.5;entryY=0;entryDx=0;entryDy=0;strokeWidth=1;fontFamily=IBM Plex Mono;fontSize=11;endArrow=block;endFill=1;startSize=6;endSize=10;exitX=0.362;exitY=1.014;exitDx=0;exitDy=0;exitPerimeter=0;fillColor=#dae8fc;strokeColor=#6c8ebf;" parent="1" edge="1">
                    <mxGeometry relative="1" as="geometry">
                        <mxPoint x="454.6899999999999" y="480.69999999999993" as="sourcePoint"/>
                        <mxPoint x="455.31" y="540" as="targetPoint"/>
                    </mxGeometry>
                </mxCell>
                <mxCell id="xMlnUiTXEX7Q_oC-0Y35-54" style="edgeStyle=none;rounded=0;sketch=1;orthogonalLoop=1;jettySize=auto;html=1;entryX=0.5;entryY=0;entryDx=0;entryDy=0;strokeWidth=1;fontFamily=IBM Plex Mono;fontSize=11;endArrow=block;endFill=1;startSize=6;endSize=10;exitX=0.362;exitY=1.014;exitDx=0;exitDy=0;exitPerimeter=0;fillColor=#dae8fc;strokeColor=#6c8ebf;" parent="1" edge="1">
                    <mxGeometry relative="1" as="geometry">
                        <mxPoint x="642.9999999999998" y="480.69999999999993" as="sourcePoint"/>
                        <mxPoint x="643.6199999999999" y="540" as="targetPoint"/>
                    </mxGeometry>
                </mxCell>
                <mxCell id="xMlnUiTXEX7Q_oC-0Y35-55" style="edgeStyle=none;rounded=0;sketch=1;orthogonalLoop=1;jettySize=auto;html=1;entryX=0.5;entryY=0;entryDx=0;entryDy=0;strokeWidth=1;fontFamily=IBM Plex Mono;fontSize=11;endArrow=block;endFill=1;startSize=6;endSize=10;exitX=0.362;exitY=1.014;exitDx=0;exitDy=0;exitPerimeter=0;fillColor=#dae8fc;strokeColor=#6c8ebf;" parent="1" edge="1">
                    <mxGeometry relative="1" as="geometry">
                        <mxPoint x="821.7499999999998" y="480.7" as="sourcePoint"/>
                        <mxPoint x="822.3699999999999" y="540" as="targetPoint"/>
                    </mxGeometry>
                </mxCell>
                <mxCell id="xMlnUiTXEX7Q_oC-0Y35-56" value="" style="shape=umlActor;verticalLabelPosition=bottom;verticalAlign=top;html=1;outlineConnect=0;sketch=1;fontFamily=IBM Plex Mono;fontSize=19;" parent="1" vertex="1">
                    <mxGeometry x="628" y="670" width="30" height="60" as="geometry"/>
                </mxCell>
                <mxCell id="xMlnUiTXEX7Q_oC-0Y35-58" value="" style="shape=image;verticalLabelPosition=bottom;verticalAlign=top;imageAspect=0;aspect=fixed;image=data:image/svg+xml,PHN2ZyB4bWxuczp4bGluaz0iaHR0cDovL3d3dy53My5vcmcvMTk5OS94bGluayIgeG1sbnM9Imh0dHA6Ly93d3cudzMub3JnLzIwMDAvc3ZnIiB2aWV3Qm94PSIwIDAgMTgzIDI0OSIgZGF0YS1uYW1lPSJMYXllciAxIiBpZD0iTGF5ZXJfMSI+PGRlZnM+PHN0eWxlPi5jbHMtMXtmaWxsOnVybCgjbGluZWFyLWdyYWRpZW50KTt9LmNscy0ye2ZpbGw6dXJsKCNsaW5lYXItZ3JhZGllbnQtMik7fS5jbHMtM3tmaWxsOnVybCgjbGluZWFyLWdyYWRpZW50LTMpO30uY2xzLTR7ZmlsbDp1cmwoI2xpbmVhci1ncmFkaWVudC00KTt9LmNscy01e2ZpbGw6dXJsKCNsaW5lYXItZ3JhZGllbnQtNSk7fTwvc3R5bGU+PGxpbmVhckdyYWRpZW50IGdyYWRpZW50VW5pdHM9InVzZXJTcGFjZU9uVXNlIiB5Mj0iNDMyLjYwMTI4IiB4Mj0iNDQ5LjExNjA0IiB5MT0iMTA5Ljg2NDE3IiB4MT0iLTkzLjM1Njk4IiBpZD0ibGluZWFyLWdyYWRpZW50Ij48c3RvcCBzdG9wLWNvbG9yPSIjMmUzMTkwIiBvZmZzZXQ9IjAiLz48c3RvcCBzdG9wLWNvbG9yPSIjNTBhNzkyIiBvZmZzZXQ9IjAuNTUwNjEiLz48c3RvcCBzdG9wLWNvbG9yPSIjMzliMzRhIiBvZmZzZXQ9IjEiLz48L2xpbmVhckdyYWRpZW50PjxsaW5lYXJHcmFkaWVudCB4bGluazpocmVmPSIjbGluZWFyLWdyYWRpZW50IiB5Mj0iMzYyLjEwNzc4IiB4Mj0iNDkxLjA1NTIxIiB5MT0iMzkuMzcwNjciIHgxPSItNTEuNDE3ODEiIGlkPSJsaW5lYXItZ3JhZGllbnQtMiIvPjxsaW5lYXJHcmFkaWVudCB4bGluazpocmVmPSIjbGluZWFyLWdyYWRpZW50IiB5Mj0iMzQ4LjY2MDM0IiB4Mj0iNDk5LjA1NTU5IiB5MT0iMjUuOTIzMjMiIHgxPSItNDMuNDE3NDMiIGlkPSJsaW5lYXItZ3JhZGllbnQtMyIvPjxsaW5lYXJHcmFkaWVudCB4bGluazpocmVmPSIjbGluZWFyLWdyYWRpZW50IiB5Mj0iMzMyLjEzNTQ4IiB4Mj0iNTA4Ljg4NjgzIiB5MT0iOS4zOTgzNyIgeDE9Ii0zMy41ODYxOCIgaWQ9ImxpbmVhci1ncmFkaWVudC00Ii8+PGxpbmVhckdyYWRpZW50IHhsaW5rOmhyZWY9IiNsaW5lYXItZ3JhZGllbnQiIHkyPSIzMTUuNDcyNTMiIHgyPSI1MTguODAwMjMiIHkxPSItNy4yNjQ1OCIgeDE9Ii0yMy42NzI3OCIgaWQ9ImxpbmVhci1ncmFkaWVudC01Ii8+PC9kZWZzPjxwYXRoIGQ9Ik03MS44ODAxMSwyMTUuNjM1MmE3Ljc0MTY3LDcuNzQxNjcsMCwwLDAtNC45ODY4LDEuMzYsMjcuNDk4ODQsMjcuNDk4ODQsMCwwLDEtMy43Nzc4NCwyLjU2OSwxNi4xMTEwNiwxNi4xMTEwNiwwLDAsMS00LjUzMzM5LDEuMzU5OSw0MC4xNjQ3Nyw0MC4xNjQ3NywwLDAsMS02LjQ5Nzg5LjQ1MzQzQTIxLjg0MDA3LDIxLjg0MDA3LDAsMCwxLDQwLjA3MDcyLDIxOC4wNTNhMjMuMDU2MjQsMjMuMDU2MjQsMCwwLDEtOC4xNjAxNi04Ljk4OTY3LDI3LjYwMTI1LDI3LjYwMTI1LDAsMCwxLTIuOTQ2NzEtMTIuOTIxNywyOC41MzY5NCwyOC41MzY5NCwwLDAsMSwyLjg3MTI0LTEzLjA2OTc2LDIyLjEzNjIyLDIyLjEzNjIyLDAsMCwxLDguMjM1NjMtOC45ODk2N0EyNC4zNTYsMjQuMzU2LDAsMCwxLDUzLjE0MiwxNzAuNzU3ODFhMzAuNTYyLDMwLjU2MiwwLDAsMSw0LjYwOS41MjcyNiwxMy44NTczOCwxMy44NTczOCwwLDAsMSw0LjYwOSwxLjQzNzEzLDE2LjA4ODY1LDE2LjA4ODY1LDAsMCwxLDIuODcxMTIsMS45NjQ1MSwxMC40OTI4NSwxMC40OTI4NSwwLDAsMCwyLjc5NTY0LDEuNzM2MjMsMTAuMjA3MjYsMTAuMjA3MjYsMCwwLDAsNC4wMDQ0OS42ODE1OCw2LjAwNTY3LDYuMDA1NjcsMCwwLDAsNS4yODc0My0yLjY0NjA5LDkuODI2MzksOS44MjYzOSwwLDAsMCwxLjgxMzMyLTUuNjY1MTMsMTAuMTk2NzQsMTAuMTk2NzQsMCwwLDAtMy41NTExOS03Ljc4NCwyNC40MzI1MywyNC40MzI1MywwLDAsMC05Ljk3MTg2LTUuMDYwNjUsNTUuNjM2NzksNTUuNjM2NzksMCwwLDAtMTUuMDM1NzctMS44MTM0NSwzOS41MTEsMzkuNTExLDAsMCwwLTIwLjYyNjkzLDUuMzYzLDM3LjU0NDU5LDM3LjU0NDU5LDAsMCwwLTE0LjA1MTk1LDE0LjgwOTExLDQ1LjUxNzYyLDQ1LjUxNzYyLDAsMCwwLTUuMDYyNCwyMS44MzQyOEE0Ni45Nzg0OCw0Ni45Nzg0OCwwLDAsMCwxNS41OTIsMjE3LjQ0ODUzLDM2Ljg2NzUxLDM2Ljg2NzUxLDAsMCwwLDI5LjExNSwyMzIuNDg1OTNRMzcuODc4LDIzOC4wMDMyNSw0OS44MTc1NiwyMzhhNTYuMTI2OTIsNTYuMTI2OTIsMCwwLDAsMTQuODg0NTgtMS44ODcyOSwzNC4wMzIzOCwzNC4wMzIzOCwwLDAsMCwxMS4xMDUyNC00Ljk4NjgxcTQuMjI5NTItMy4wOTYyLDQuMjMxMTQtNi44NzcyM2E5LjEzNDY1LDkuMTM0NjUsMCwwLDAtMi4xMTU1Ny02LjExODQzQTcuNDkwNjgsNy40OTA2OCwwLDAsMCw3MS44ODAxMSwyMTUuNjM1MloiIGNsYXNzPSJjbHMtMSIvPjxwYXRoIGQ9Ik0xNTguNjE0MzYsNjYuODY5NzJhOC42Nzc2Myw4LjY3NzYzLDAsMCwwLTYuNDk3ODksMi42NDYwOSw5LjA1NDIsOS4wNTQyLDAsMCwwLTIuNTY3MzcsNi41NzE3NHY4Ny40ODcyOGEzNi40NSwzNi40NSwwLDAsMC0yLjk0NjcxLTIuNDg4MjcsMzUuNjE5NDQsMzUuNjE5NDQsMCwwLDAtOS40NDQ2LTQuOTg2ODEsMzQuOTQ1NzUsMzQuOTQ1NzUsMCwwLDAtMTEuOTM3ODgtMS45NjQ1MSwzMy4zMTY1NSwzMy4zMTY1NSwwLDAsMC0xOC40MzU4OSw1LjM2MywzOC4xNDc1OCwzOC4xNDc1OCwwLDAsMC0xMy4yMjA4MSwxNC44MDkxMSw1MC42NjIxOCw1MC42NjIxOCwwLDAsMCwwLDQzLjUyMDYyLDM3LjcwMjQ4LDM3LjcwMjQ4LDAsMCwwLDEzLjM3MiwxNC44MDkxMkEzNC41NTQ1LDM0LjU1NDUsMCwwLDAsMTI1LjgyNDI3LDIzOGEyOS40Nzg0NCwyOS40Nzg0NCwwLDAsMCwxMC42NTM1Ny0xLjg4NzI5LDM1LjI5NjQ1LDM1LjI5NjQ1LDAsMCwwLDguNTM3ODctNC42MTA2LDMxLjgyMTA5LDMxLjgyMTA5LDAsMCwwLDQuNTQ2NTMtNC4wNzcsOS4wMjY1MSw5LjAyNjUxLDAsMCwwLDIuNTU0MjMsNi40MjA4LDkuMzA5MjIsOS4zMDkyMiwwLDAsMCwxMi45OTU3OCwwLDkuMDY0MzQsOS4wNjQzNCwwLDAsMCwyLjU2ODg3LTYuNTc1Vjc2LjA4NzU1YTkuMDAwNCw5LjAwMDQsMCwwLDAtMi41Njg4Ny02LjY0OUE4LjgxNzcsOC44MTc3LDAsMCwwLDE1OC42MTQzNiw2Ni44Njk3MlpNMTM5LjcyNjc5LDIxOC4wNTNhMjAuNDY5MzQsMjAuNDY5MzQsMCwwLDEtMTEuNjM1NzYsMy4zMjQ1NCwyMC4yMDQwNiwyMC4yMDQwNiwwLDAsMS0xMS40ODQ1OC0zLjMyNDU0LDIyLjQyOTMxLDIyLjQyOTMxLDAsMCwxLTcuNzgyMzMtOS4wNjY3NywyOC45MjA1MSwyOC45MjA1MSwwLDAsMS0yLjc5NC0xMi44NDQ2LDI5LjI4MjMyLDI5LjI4MjMyLDAsMCwxLDIuNzk0LTEyLjk5MjU0LDIyLjQzMDU4LDIyLjQzMDU4LDAsMCwxLDcuNzgyMzMtOS4wNjY4OSwyMC4yMjg5NCwyMC4yMjg5NCwwLDAsMSwxMS40ODQ1OC0zLjMyNDQxLDIwLjQ5NDMsMjAuNDk0MywwLDAsMSwxMS42MzU3NiwzLjMyNDQxLDIyLjQ1NjE4LDIyLjQ1NjE4LDAsMCwxLDcuNzgyMzMsOS4wNjY4OSwyOS4zMjkxMiwyOS4zMjkxMiwwLDAsMSwyLjc5NTUyLDEyLjk5MjU0LDI4Ljk2NzI4LDI4Ljk2NzI4LDAsMCwxLTIuNzk1NTIsMTIuODQ0NkEyMi40NTQ5MSwyMi40NTQ5MSwwLDAsMSwxMzkuNzI2NzksMjE4LjA1M1oiIGNsYXNzPSJjbHMtMiIvPjxwYXRoIGQ9Ik00Mi40MjI1NCwxMjMuNjI5NTlhODQuMDQ3NTMsODQuMDQ3NTMsMCwwLDEtOC44Mzk3NC0xNS41MTE4NSw4MC4wMjUwNiw4MC4wMjUwNiwwLDAsMS00LjA1NjkzLTExLjQ2MTkyYy0uNzMwODgtMi43MDgyOS0xLjI0NDUxLTUuNDY1NjQtMS43MDcwNy04LjA1Nzc5YTYzLjE5MTE4LDYzLjE5MTE4LDAsMCwxLS44ODAwNy05LjQ0NzQ4QTY4LjQwNzMxLDY4LjQwNzMxLDAsMCwxLDI4LjE0ODIsNjQuMDIwMTdjLjUwMTYxLTIuNTQ4MSwxLjAyMTI0LTUuMTg0MywxLjY4OTA1LTcuNzM2NEE2Ni4zMjE3Miw2Ni4zMjE3MiwwLDAsMSwzMy41OTI4MSw0NS43NjVjMS4zNjk2Ny0zLjAyODY4LDIuNzAzMjktNS42OTQ5Miw0LjA3Ni04LjE0OTlBODUuNjgxNDIsODUuNjgxNDIsMCwwLDEsNDkuMDcwNjIsMjIuMTIxMjdhNi44MzkxMiw2LjgzOTEyLDAsMCwwLDEuNTM1ODYtNy4wMzk1Niw4LjE3OSw4LjE3OSwwLDAsMC01Ljg2NTEyLTUuMTM1MjMsOS4zOTIzMyw5LjM5MjMzLDAsMCwwLTguMzg0MTksMS45OTI0MiwzNC4zMTM2NywzNC4zMTM2NywwLDAsMC01LjIzNzM2LDUuOTA3MTdsLS44MzcsMS4xMDAzNGE5OC40OTUsOTguNDk1LDAsMCwwLTguOTg0OTEsMTMuNTk0NTFjLTEuMTU2NDEsMi4xNTk2My0yLjI3Njc3LDQuMjgzMjEtMy4yNzIsNi41MjQ5M0MxNi43MjczMyw0MS45OTE0MSwxNS42NDYsNDQuOTM4LDE0LjQ2NjU4LDQ4LjIxMmE4MC42NTg4NCw4MC42NTg4NCwwLDAsMC0yLjI4MDc3LDcuOTc3NjlsLS4yMjQyNy44OTgxYy0uMjMyMjkuOTI3MTItLjM3MjQ2LDEuODUzMjUtLjUyMjY0LDIuODQwNDUtLjEwNjEzLjY5Nzg0LS4yMTIyNiwxLjM5NTY5LS4zNjY0NCwyLjA4MjUzYTQ3Ljg3MjQyLDQ3Ljg3MjQyLDAsMCwwLS44MSw1LjYxMTgxYy0uMTA1MTMsMS4wMTQyNC0uMjEwMjUsMi4wMjg0Ny0uMzUzNDMsMy4wMzk3YTI1LjI4ODg0LDI1LjI4ODg0LDAsMCwwLS4xMDgxMyw0LjQ1ODQxYy4wMi41NzQ3LjA0MDA1LDEuMTQ5NC4wNDAwNSwxLjY3NmE2Mi42NzAxNyw2Mi42NzAxNywwLDAsMCwuNzU2OTIsMTEuODUyNGMuMDg4MTEuNTY5NjkuMTY5MiwxLjE0MjM5LjI1MDMsMS43MTYwOGwuMDQyMDUuMjk5MzdjLjEzMjE2LjkzMTEzLjI2NTMzLDEuODYzMjYuNDIyNTIsMi43ODgzOWE3OC43MTA0NSw3OC43MTA0NSwwLDAsMCwzLjcyNzUzLDEzLjg5MTg3YzEuMDM5MjYsMi44MzA0NCwxLjk5MzQyLDUuMzc5NTQsMy4xNTA4Miw3Ljg5NzZhOTQuMTIyNDgsOTQuMTIyNDgsMCwwLDAsNy4zODQsMTMuMTE1OTMsMTAyLjAxODY0LDEwMi4wMTg2NCwwLDAsMCwxMC43MzYwNSwxMy41OTc1Miw5LjgyMTU3LDkuODIxNTcsMCwwLDAsNi42NjcxLDIuNTgxMTQsNi44NDE0NCw2Ljg0MTQ0LDAsMCwwLDEuOTgxNC0uMjcwMzNjMy4xMDI3Ny0uOTQ0MTUsNS4zMjA0Ny0yLjg5ODUyLDYuMDg0NC01LjM2MzUyYTcuMTc2NCw3LjE3NjQsMCwwLDAtMS44NjAyNi03LjAzMTU0QTEwMS40NTQxOCwxMDEuNDU0MTgsMCwwLDEsNDIuNDIyNTQsMTIzLjYyOTU5WiIgY2xhc3M9ImNscy0zIi8+PHBhdGggZD0iTTg1LjI5OTYzLDExMy45Njk4NWwtLjU5NTYuNDg1NDcuNTY4NTctLjUxODUxYy0uNTYxNjgtLjY5Mjg0LTEuMTI0MzctMS4zODQ2OC0xLjY0NS0yLjA5OTU1YTYxLjA3MTI3LDYxLjA3MTI3LDAsMCwxLTQuNzgwODEtNy44MDE0OCw2NS41Niw2NS41NiwwLDAsMS0zLjA1OTcxLTYuNTk4LDU4LjAzMzkxLDU4LjAzMzkxLDAsMCwxLTEuOTc5NDEtNi41ODNsLS4yMjcyOC0uODkzMDlhMzAuNTc0NDQsMzAuNTc0NDQsMCwwLDEtMS4wNzYzLTUuNjI5ODRjLS4wNTAwNi0uODc0MDYtLjExNzE1LTEuNzQ2MTItLjE4NTIzLTIuNjMxMTlhNDIuNDYxNjYsNDIuNDYxNjYsMCwwLDEtLjA4NDEtOC40NjQyOUw3Mi40NjksNzEuMjZBNjAuMzY4LDYwLjM2OCwwLDAsMSw3My42Mjg0NSw2My45MDRhNjAuMjQ4ODEsNjAuMjQ4ODEsMCwwLDEsNS4wNDAxMy0xMy42MzQ1N0E2NS43MzMsNjUuNzMzLDAsMCwxLDg2LjM5OCwzOC41NzEyNWMxLjU0ODg4LTEuODc3MjgsMi45ODE2Mi00LjIwMzExLDEuODY4MjctNy4yMTk3N2E3LjczOTI4LDcuNzM5MjgsMCwwLDAtNS45MDYxOC01LjIyMTM0Yy0zLjU2ODMzLS43Njg5NC02LjU2NS0uMDEzLTguNjYxNTIsMi4xODE2NUE2NS4zMDE5NCw2NS4zMDE5NCwwLDAsMCw2NC45OCw0MC4yNDYyOWE3NC4zNzU4Niw3NC4zNzU4NiwwLDAsMC02LjM0NjcxLDEzLjk0MjkzQTY5Ljk5MjI0LDY5Ljk5MjI0LDAsMCwwLDU1LjQ3ODQsNjcuNzgxNzRsLS4xMjYxNS45MTAxYTMxLjY3MjcyLDMxLjY3MjcyLDAsMCwwLS40MDY0OSw4LjM4MTE5YzAsLjQyODUyLS4wMTkuODczMDYtLjA0MDA1LDEuMzUyNjRhMTcuNzA4MTQsMTcuNzA4MTQsMCwwLDAsLjEwNzEzLDMuNjY1NDVjLjE3MDIsMS4wNDcyNy4yOTUzNiwyLjA5NzU1LjQzMjUyLDMuMjM1OTMuMTkzMjQsMS42MTUuMzkzNDgsMy4yODYuNzQ5OTEsNC45NDkuMTI2MTYuNTg3NzEuMjQxMywxLjE3NzQzLjM2MTQ0LDEuNzkxMTdBNDAuNjc5MzUsNDAuNjc5MzUsMCwwLDAsNTcuNjQzLDk2LjY1OTgyYTg3Ljc1NzU3LDg3Ljc1NzU3LDAsMCwwLDQuMjQ2MTYsMTEuMDY3NDUsNzkuODMwNCw3OS44MzA0LDAsMCwwLDExLjEzNTUzLDE3LjE3Njg2LDkuMDM0Niw5LjAzNDYsMCwwLDAsNy4xMjM2NSwzLjQ3ODIzaC4wMDRhMTEuMTM4NjYsMTEuMTM4NjYsMCwwLDAsMi4yODA3Ny0uMjQ2Myw4LjEzNzQ1LDguMTM3NDUsMCwwLDAsNS43ODctNC40Njc0Myw2LjYyMTQ4LDYuNjIxNDgsMCwwLDAtLjQ4NDU5LTYuNDgyODdBMzguOTM0MDcsMzguOTM0MDcsMCwwLDAsODUuMjk5NjMsMTEzLjk2OTg1WiIgY2xhc3M9ImNscy00Ii8+PHBhdGggZD0iTTExOS41MTExOSw4OS4xNzg3M2EzNi4xMzA4MiwzNi4xMzA4MiwwLDAsMS0yLjA3MzUxLTkuNDMwNDUsMzkuNTcyMjIsMzkuNTcyMjIsMCwwLDEsLjUzODY1LTEwLjI4MzVsLjA2NTA4LS4zMjQzOWEyNS44NzE3NSwyNS44NzE3NSwwLDAsMSwxLjE4MTQzLTQuNTYzNTUsNDUuODE3NzMsNDUuODE3NzMsMCwwLDEsNS4xOTczMi05Ljg1OWMxLjc5ODE4LTIuNTI3MDcsMi4xMzU1OS00Ljk3MSwxLjAwNDIyLTcuMjYxODNhOC4zMzkzOCw4LjMzOTM4LDAsMCwwLTcuMTkzNzQtNC43Njg3OSw4LjU1MTk0LDguNTUxOTQsMCwwLDAtNy43NDA0LDMuMDk5NzcsNTEuMTY0NTgsNTEuMTY0NTgsMCwwLDAtNC44NDE4OSw3Ljg3MzU2LDQ5Ljk4Mjc4LDQ5Ljk4Mjc4LDAsMCwwLTQuNjU3NjYsMTMuMTI0OTUsNDEuNzc0NDgsNDEuNzc0NDgsMCwwLDAtLjkzMTEzLDkuNzQwODMsNTAuNjMwNjgsNTAuNjMwNjgsMCwwLDAsMS4zNzk2OCwxMS44NDk0LDUxLjQyODA5LDUxLjQyODA5LDAsMCwwLDMuMzI0LDkuNDMwNDUsNTcuOTY0NjIsNTcuOTY0NjIsMCwwLDAsNC42Mzg2Myw4LjI4NDA3LDkuNzczODIsOS43NzM4MiwwLDAsMCw2LjgxODI5LDQuNzE0NzMsOS4wNTYwNyw5LjA1NjA3LDAsMCwwLDEuNDUwNzYuMTE1MTQsOS4yODQ1NSw5LjI4NDU1LDAsMCwwLDUuNDgyNjYtMS43OTIxOCw3LjA4ODI5LDcuMDg4MjksMCwwLDAsMi45OTQ2NC01LjEyMzIzLDguNzE5MjgsOC43MTkyOCwwLDAsMC0xLjk0NDM2LTUuODQ2MUEzNC42MDIwNiwzNC42MDIwNiwwLDAsMSwxMTkuNTExMTksODkuMTc4NzNaIiBjbGFzcz0iY2xzLTUiLz48L3N2Zz4=;sketch=1;fontFamily=IBM Plex Mono;fontSize=19;" parent="1" vertex="1">
                    <mxGeometry x="427" y="490" width="23" height="31.3" as="geometry"/>
                </mxCell>
                <mxCell id="xMlnUiTXEX7Q_oC-0Y35-59" value="" style="shape=image;verticalLabelPosition=bottom;verticalAlign=top;imageAspect=0;aspect=fixed;image=data:image/svg+xml,PHN2ZyB4bWxuczp4bGluaz0iaHR0cDovL3d3dy53My5vcmcvMTk5OS94bGluayIgeG1sbnM9Imh0dHA6Ly93d3cudzMub3JnLzIwMDAvc3ZnIiB2aWV3Qm94PSIwIDAgMTgzIDI0OSIgZGF0YS1uYW1lPSJMYXllciAxIiBpZD0iTGF5ZXJfMSI+PGRlZnM+PHN0eWxlPi5jbHMtMXtmaWxsOnVybCgjbGluZWFyLWdyYWRpZW50KTt9LmNscy0ye2ZpbGw6dXJsKCNsaW5lYXItZ3JhZGllbnQtMik7fS5jbHMtM3tmaWxsOnVybCgjbGluZWFyLWdyYWRpZW50LTMpO30uY2xzLTR7ZmlsbDp1cmwoI2xpbmVhci1ncmFkaWVudC00KTt9LmNscy01e2ZpbGw6dXJsKCNsaW5lYXItZ3JhZGllbnQtNSk7fTwvc3R5bGU+PGxpbmVhckdyYWRpZW50IGdyYWRpZW50VW5pdHM9InVzZXJTcGFjZU9uVXNlIiB5Mj0iNDMyLjYwMTI4IiB4Mj0iNDQ5LjExNjA0IiB5MT0iMTA5Ljg2NDE3IiB4MT0iLTkzLjM1Njk4IiBpZD0ibGluZWFyLWdyYWRpZW50Ij48c3RvcCBzdG9wLWNvbG9yPSIjMmUzMTkwIiBvZmZzZXQ9IjAiLz48c3RvcCBzdG9wLWNvbG9yPSIjNTBhNzkyIiBvZmZzZXQ9IjAuNTUwNjEiLz48c3RvcCBzdG9wLWNvbG9yPSIjMzliMzRhIiBvZmZzZXQ9IjEiLz48L2xpbmVhckdyYWRpZW50PjxsaW5lYXJHcmFkaWVudCB4bGluazpocmVmPSIjbGluZWFyLWdyYWRpZW50IiB5Mj0iMzYyLjEwNzc4IiB4Mj0iNDkxLjA1NTIxIiB5MT0iMzkuMzcwNjciIHgxPSItNTEuNDE3ODEiIGlkPSJsaW5lYXItZ3JhZGllbnQtMiIvPjxsaW5lYXJHcmFkaWVudCB4bGluazpocmVmPSIjbGluZWFyLWdyYWRpZW50IiB5Mj0iMzQ4LjY2MDM0IiB4Mj0iNDk5LjA1NTU5IiB5MT0iMjUuOTIzMjMiIHgxPSItNDMuNDE3NDMiIGlkPSJsaW5lYXItZ3JhZGllbnQtMyIvPjxsaW5lYXJHcmFkaWVudCB4bGluazpocmVmPSIjbGluZWFyLWdyYWRpZW50IiB5Mj0iMzMyLjEzNTQ4IiB4Mj0iNTA4Ljg4NjgzIiB5MT0iOS4zOTgzNyIgeDE9Ii0zMy41ODYxOCIgaWQ9ImxpbmVhci1ncmFkaWVudC00Ii8+PGxpbmVhckdyYWRpZW50IHhsaW5rOmhyZWY9IiNsaW5lYXItZ3JhZGllbnQiIHkyPSIzMTUuNDcyNTMiIHgyPSI1MTguODAwMjMiIHkxPSItNy4yNjQ1OCIgeDE9Ii0yMy42NzI3OCIgaWQ9ImxpbmVhci1ncmFkaWVudC01Ii8+PC9kZWZzPjxwYXRoIGQ9Ik03MS44ODAxMSwyMTUuNjM1MmE3Ljc0MTY3LDcuNzQxNjcsMCwwLDAtNC45ODY4LDEuMzYsMjcuNDk4ODQsMjcuNDk4ODQsMCwwLDEtMy43Nzc4NCwyLjU2OSwxNi4xMTEwNiwxNi4xMTEwNiwwLDAsMS00LjUzMzM5LDEuMzU5OSw0MC4xNjQ3Nyw0MC4xNjQ3NywwLDAsMS02LjQ5Nzg5LjQ1MzQzQTIxLjg0MDA3LDIxLjg0MDA3LDAsMCwxLDQwLjA3MDcyLDIxOC4wNTNhMjMuMDU2MjQsMjMuMDU2MjQsMCwwLDEtOC4xNjAxNi04Ljk4OTY3LDI3LjYwMTI1LDI3LjYwMTI1LDAsMCwxLTIuOTQ2NzEtMTIuOTIxNywyOC41MzY5NCwyOC41MzY5NCwwLDAsMSwyLjg3MTI0LTEzLjA2OTc2LDIyLjEzNjIyLDIyLjEzNjIyLDAsMCwxLDguMjM1NjMtOC45ODk2N0EyNC4zNTYsMjQuMzU2LDAsMCwxLDUzLjE0MiwxNzAuNzU3ODFhMzAuNTYyLDMwLjU2MiwwLDAsMSw0LjYwOS41MjcyNiwxMy44NTczOCwxMy44NTczOCwwLDAsMSw0LjYwOSwxLjQzNzEzLDE2LjA4ODY1LDE2LjA4ODY1LDAsMCwxLDIuODcxMTIsMS45NjQ1MSwxMC40OTI4NSwxMC40OTI4NSwwLDAsMCwyLjc5NTY0LDEuNzM2MjMsMTAuMjA3MjYsMTAuMjA3MjYsMCwwLDAsNC4wMDQ0OS42ODE1OCw2LjAwNTY3LDYuMDA1NjcsMCwwLDAsNS4yODc0My0yLjY0NjA5LDkuODI2MzksOS44MjYzOSwwLDAsMCwxLjgxMzMyLTUuNjY1MTMsMTAuMTk2NzQsMTAuMTk2NzQsMCwwLDAtMy41NTExOS03Ljc4NCwyNC40MzI1MywyNC40MzI1MywwLDAsMC05Ljk3MTg2LTUuMDYwNjUsNTUuNjM2NzksNTUuNjM2NzksMCwwLDAtMTUuMDM1NzctMS44MTM0NSwzOS41MTEsMzkuNTExLDAsMCwwLTIwLjYyNjkzLDUuMzYzLDM3LjU0NDU5LDM3LjU0NDU5LDAsMCwwLTE0LjA1MTk1LDE0LjgwOTExLDQ1LjUxNzYyLDQ1LjUxNzYyLDAsMCwwLTUuMDYyNCwyMS44MzQyOEE0Ni45Nzg0OCw0Ni45Nzg0OCwwLDAsMCwxNS41OTIsMjE3LjQ0ODUzLDM2Ljg2NzUxLDM2Ljg2NzUxLDAsMCwwLDI5LjExNSwyMzIuNDg1OTNRMzcuODc4LDIzOC4wMDMyNSw0OS44MTc1NiwyMzhhNTYuMTI2OTIsNTYuMTI2OTIsMCwwLDAsMTQuODg0NTgtMS44ODcyOSwzNC4wMzIzOCwzNC4wMzIzOCwwLDAsMCwxMS4xMDUyNC00Ljk4NjgxcTQuMjI5NTItMy4wOTYyLDQuMjMxMTQtNi44NzcyM2E5LjEzNDY1LDkuMTM0NjUsMCwwLDAtMi4xMTU1Ny02LjExODQzQTcuNDkwNjgsNy40OTA2OCwwLDAsMCw3MS44ODAxMSwyMTUuNjM1MloiIGNsYXNzPSJjbHMtMSIvPjxwYXRoIGQ9Ik0xNTguNjE0MzYsNjYuODY5NzJhOC42Nzc2Myw4LjY3NzYzLDAsMCwwLTYuNDk3ODksMi42NDYwOSw5LjA1NDIsOS4wNTQyLDAsMCwwLTIuNTY3MzcsNi41NzE3NHY4Ny40ODcyOGEzNi40NSwzNi40NSwwLDAsMC0yLjk0NjcxLTIuNDg4MjcsMzUuNjE5NDQsMzUuNjE5NDQsMCwwLDAtOS40NDQ2LTQuOTg2ODEsMzQuOTQ1NzUsMzQuOTQ1NzUsMCwwLDAtMTEuOTM3ODgtMS45NjQ1MSwzMy4zMTY1NSwzMy4zMTY1NSwwLDAsMC0xOC40MzU4OSw1LjM2MywzOC4xNDc1OCwzOC4xNDc1OCwwLDAsMC0xMy4yMjA4MSwxNC44MDkxMSw1MC42NjIxOCw1MC42NjIxOCwwLDAsMCwwLDQzLjUyMDYyLDM3LjcwMjQ4LDM3LjcwMjQ4LDAsMCwwLDEzLjM3MiwxNC44MDkxMkEzNC41NTQ1LDM0LjU1NDUsMCwwLDAsMTI1LjgyNDI3LDIzOGEyOS40Nzg0NCwyOS40Nzg0NCwwLDAsMCwxMC42NTM1Ny0xLjg4NzI5LDM1LjI5NjQ1LDM1LjI5NjQ1LDAsMCwwLDguNTM3ODctNC42MTA2LDMxLjgyMTA5LDMxLjgyMTA5LDAsMCwwLDQuNTQ2NTMtNC4wNzcsOS4wMjY1MSw5LjAyNjUxLDAsMCwwLDIuNTU0MjMsNi40MjA4LDkuMzA5MjIsOS4zMDkyMiwwLDAsMCwxMi45OTU3OCwwLDkuMDY0MzQsOS4wNjQzNCwwLDAsMCwyLjU2ODg3LTYuNTc1Vjc2LjA4NzU1YTkuMDAwNCw5LjAwMDQsMCwwLDAtMi41Njg4Ny02LjY0OUE4LjgxNzcsOC44MTc3LDAsMCwwLDE1OC42MTQzNiw2Ni44Njk3MlpNMTM5LjcyNjc5LDIxOC4wNTNhMjAuNDY5MzQsMjAuNDY5MzQsMCwwLDEtMTEuNjM1NzYsMy4zMjQ1NCwyMC4yMDQwNiwyMC4yMDQwNiwwLDAsMS0xMS40ODQ1OC0zLjMyNDU0LDIyLjQyOTMxLDIyLjQyOTMxLDAsMCwxLTcuNzgyMzMtOS4wNjY3NywyOC45MjA1MSwyOC45MjA1MSwwLDAsMS0yLjc5NC0xMi44NDQ2LDI5LjI4MjMyLDI5LjI4MjMyLDAsMCwxLDIuNzk0LTEyLjk5MjU0LDIyLjQzMDU4LDIyLjQzMDU4LDAsMCwxLDcuNzgyMzMtOS4wNjY4OSwyMC4yMjg5NCwyMC4yMjg5NCwwLDAsMSwxMS40ODQ1OC0zLjMyNDQxLDIwLjQ5NDMsMjAuNDk0MywwLDAsMSwxMS42MzU3NiwzLjMyNDQxLDIyLjQ1NjE4LDIyLjQ1NjE4LDAsMCwxLDcuNzgyMzMsOS4wNjY4OSwyOS4zMjkxMiwyOS4zMjkxMiwwLDAsMSwyLjc5NTUyLDEyLjk5MjU0LDI4Ljk2NzI4LDI4Ljk2NzI4LDAsMCwxLTIuNzk1NTIsMTIuODQ0NkEyMi40NTQ5MSwyMi40NTQ5MSwwLDAsMSwxMzkuNzI2NzksMjE4LjA1M1oiIGNsYXNzPSJjbHMtMiIvPjxwYXRoIGQ9Ik00Mi40MjI1NCwxMjMuNjI5NTlhODQuMDQ3NTMsODQuMDQ3NTMsMCwwLDEtOC44Mzk3NC0xNS41MTE4NSw4MC4wMjUwNiw4MC4wMjUwNiwwLDAsMS00LjA1NjkzLTExLjQ2MTkyYy0uNzMwODgtMi43MDgyOS0xLjI0NDUxLTUuNDY1NjQtMS43MDcwNy04LjA1Nzc5YTYzLjE5MTE4LDYzLjE5MTE4LDAsMCwxLS44ODAwNy05LjQ0NzQ4QTY4LjQwNzMxLDY4LjQwNzMxLDAsMCwxLDI4LjE0ODIsNjQuMDIwMTdjLjUwMTYxLTIuNTQ4MSwxLjAyMTI0LTUuMTg0MywxLjY4OTA1LTcuNzM2NEE2Ni4zMjE3Miw2Ni4zMjE3MiwwLDAsMSwzMy41OTI4MSw0NS43NjVjMS4zNjk2Ny0zLjAyODY4LDIuNzAzMjktNS42OTQ5Miw0LjA3Ni04LjE0OTlBODUuNjgxNDIsODUuNjgxNDIsMCwwLDEsNDkuMDcwNjIsMjIuMTIxMjdhNi44MzkxMiw2LjgzOTEyLDAsMCwwLDEuNTM1ODYtNy4wMzk1Niw4LjE3OSw4LjE3OSwwLDAsMC01Ljg2NTEyLTUuMTM1MjMsOS4zOTIzMyw5LjM5MjMzLDAsMCwwLTguMzg0MTksMS45OTI0MiwzNC4zMTM2NywzNC4zMTM2NywwLDAsMC01LjIzNzM2LDUuOTA3MTdsLS44MzcsMS4xMDAzNGE5OC40OTUsOTguNDk1LDAsMCwwLTguOTg0OTEsMTMuNTk0NTFjLTEuMTU2NDEsMi4xNTk2My0yLjI3Njc3LDQuMjgzMjEtMy4yNzIsNi41MjQ5M0MxNi43MjczMyw0MS45OTE0MSwxNS42NDYsNDQuOTM4LDE0LjQ2NjU4LDQ4LjIxMmE4MC42NTg4NCw4MC42NTg4NCwwLDAsMC0yLjI4MDc3LDcuOTc3NjlsLS4yMjQyNy44OTgxYy0uMjMyMjkuOTI3MTItLjM3MjQ2LDEuODUzMjUtLjUyMjY0LDIuODQwNDUtLjEwNjEzLjY5Nzg0LS4yMTIyNiwxLjM5NTY5LS4zNjY0NCwyLjA4MjUzYTQ3Ljg3MjQyLDQ3Ljg3MjQyLDAsMCwwLS44MSw1LjYxMTgxYy0uMTA1MTMsMS4wMTQyNC0uMjEwMjUsMi4wMjg0Ny0uMzUzNDMsMy4wMzk3YTI1LjI4ODg0LDI1LjI4ODg0LDAsMCwwLS4xMDgxMyw0LjQ1ODQxYy4wMi41NzQ3LjA0MDA1LDEuMTQ5NC4wNDAwNSwxLjY3NmE2Mi42NzAxNyw2Mi42NzAxNywwLDAsMCwuNzU2OTIsMTEuODUyNGMuMDg4MTEuNTY5NjkuMTY5MiwxLjE0MjM5LjI1MDMsMS43MTYwOGwuMDQyMDUuMjk5MzdjLjEzMjE2LjkzMTEzLjI2NTMzLDEuODYzMjYuNDIyNTIsMi43ODgzOWE3OC43MTA0NSw3OC43MTA0NSwwLDAsMCwzLjcyNzUzLDEzLjg5MTg3YzEuMDM5MjYsMi44MzA0NCwxLjk5MzQyLDUuMzc5NTQsMy4xNTA4Miw3Ljg5NzZhOTQuMTIyNDgsOTQuMTIyNDgsMCwwLDAsNy4zODQsMTMuMTE1OTMsMTAyLjAxODY0LDEwMi4wMTg2NCwwLDAsMCwxMC43MzYwNSwxMy41OTc1Miw5LjgyMTU3LDkuODIxNTcsMCwwLDAsNi42NjcxLDIuNTgxMTQsNi44NDE0NCw2Ljg0MTQ0LDAsMCwwLDEuOTgxNC0uMjcwMzNjMy4xMDI3Ny0uOTQ0MTUsNS4zMjA0Ny0yLjg5ODUyLDYuMDg0NC01LjM2MzUyYTcuMTc2NCw3LjE3NjQsMCwwLDAtMS44NjAyNi03LjAzMTU0QTEwMS40NTQxOCwxMDEuNDU0MTgsMCwwLDEsNDIuNDIyNTQsMTIzLjYyOTU5WiIgY2xhc3M9ImNscy0zIi8+PHBhdGggZD0iTTg1LjI5OTYzLDExMy45Njk4NWwtLjU5NTYuNDg1NDcuNTY4NTctLjUxODUxYy0uNTYxNjgtLjY5Mjg0LTEuMTI0MzctMS4zODQ2OC0xLjY0NS0yLjA5OTU1YTYxLjA3MTI3LDYxLjA3MTI3LDAsMCwxLTQuNzgwODEtNy44MDE0OCw2NS41Niw2NS41NiwwLDAsMS0zLjA1OTcxLTYuNTk4LDU4LjAzMzkxLDU4LjAzMzkxLDAsMCwxLTEuOTc5NDEtNi41ODNsLS4yMjcyOC0uODkzMDlhMzAuNTc0NDQsMzAuNTc0NDQsMCwwLDEtMS4wNzYzLTUuNjI5ODRjLS4wNTAwNi0uODc0MDYtLjExNzE1LTEuNzQ2MTItLjE4NTIzLTIuNjMxMTlhNDIuNDYxNjYsNDIuNDYxNjYsMCwwLDEtLjA4NDEtOC40NjQyOUw3Mi40NjksNzEuMjZBNjAuMzY4LDYwLjM2OCwwLDAsMSw3My42Mjg0NSw2My45MDRhNjAuMjQ4ODEsNjAuMjQ4ODEsMCwwLDEsNS4wNDAxMy0xMy42MzQ1N0E2NS43MzMsNjUuNzMzLDAsMCwxLDg2LjM5OCwzOC41NzEyNWMxLjU0ODg4LTEuODc3MjgsMi45ODE2Mi00LjIwMzExLDEuODY4MjctNy4yMTk3N2E3LjczOTI4LDcuNzM5MjgsMCwwLDAtNS45MDYxOC01LjIyMTM0Yy0zLjU2ODMzLS43Njg5NC02LjU2NS0uMDEzLTguNjYxNTIsMi4xODE2NUE2NS4zMDE5NCw2NS4zMDE5NCwwLDAsMCw2NC45OCw0MC4yNDYyOWE3NC4zNzU4Niw3NC4zNzU4NiwwLDAsMC02LjM0NjcxLDEzLjk0MjkzQTY5Ljk5MjI0LDY5Ljk5MjI0LDAsMCwwLDU1LjQ3ODQsNjcuNzgxNzRsLS4xMjYxNS45MTAxYTMxLjY3MjcyLDMxLjY3MjcyLDAsMCwwLS40MDY0OSw4LjM4MTE5YzAsLjQyODUyLS4wMTkuODczMDYtLjA0MDA1LDEuMzUyNjRhMTcuNzA4MTQsMTcuNzA4MTQsMCwwLDAsLjEwNzEzLDMuNjY1NDVjLjE3MDIsMS4wNDcyNy4yOTUzNiwyLjA5NzU1LjQzMjUyLDMuMjM1OTMuMTkzMjQsMS42MTUuMzkzNDgsMy4yODYuNzQ5OTEsNC45NDkuMTI2MTYuNTg3NzEuMjQxMywxLjE3NzQzLjM2MTQ0LDEuNzkxMTdBNDAuNjc5MzUsNDAuNjc5MzUsMCwwLDAsNTcuNjQzLDk2LjY1OTgyYTg3Ljc1NzU3LDg3Ljc1NzU3LDAsMCwwLDQuMjQ2MTYsMTEuMDY3NDUsNzkuODMwNCw3OS44MzA0LDAsMCwwLDExLjEzNTUzLDE3LjE3Njg2LDkuMDM0Niw5LjAzNDYsMCwwLDAsNy4xMjM2NSwzLjQ3ODIzaC4wMDRhMTEuMTM4NjYsMTEuMTM4NjYsMCwwLDAsMi4yODA3Ny0uMjQ2Myw4LjEzNzQ1LDguMTM3NDUsMCwwLDAsNS43ODctNC40Njc0Myw2LjYyMTQ4LDYuNjIxNDgsMCwwLDAtLjQ4NDU5LTYuNDgyODdBMzguOTM0MDcsMzguOTM0MDcsMCwwLDAsODUuMjk5NjMsMTEzLjk2OTg1WiIgY2xhc3M9ImNscy00Ii8+PHBhdGggZD0iTTExOS41MTExOSw4OS4xNzg3M2EzNi4xMzA4MiwzNi4xMzA4MiwwLDAsMS0yLjA3MzUxLTkuNDMwNDUsMzkuNTcyMjIsMzkuNTcyMjIsMCwwLDEsLjUzODY1LTEwLjI4MzVsLjA2NTA4LS4zMjQzOWEyNS44NzE3NSwyNS44NzE3NSwwLDAsMSwxLjE4MTQzLTQuNTYzNTUsNDUuODE3NzMsNDUuODE3NzMsMCwwLDEsNS4xOTczMi05Ljg1OWMxLjc5ODE4LTIuNTI3MDcsMi4xMzU1OS00Ljk3MSwxLjAwNDIyLTcuMjYxODNhOC4zMzkzOCw4LjMzOTM4LDAsMCwwLTcuMTkzNzQtNC43Njg3OSw4LjU1MTk0LDguNTUxOTQsMCwwLDAtNy43NDA0LDMuMDk5NzcsNTEuMTY0NTgsNTEuMTY0NTgsMCwwLDAtNC44NDE4OSw3Ljg3MzU2LDQ5Ljk4Mjc4LDQ5Ljk4Mjc4LDAsMCwwLTQuNjU3NjYsMTMuMTI0OTUsNDEuNzc0NDgsNDEuNzc0NDgsMCwwLDAtLjkzMTEzLDkuNzQwODMsNTAuNjMwNjgsNTAuNjMwNjgsMCwwLDAsMS4zNzk2OCwxMS44NDk0LDUxLjQyODA5LDUxLjQyODA5LDAsMCwwLDMuMzI0LDkuNDMwNDUsNTcuOTY0NjIsNTcuOTY0NjIsMCwwLDAsNC42Mzg2Myw4LjI4NDA3LDkuNzczODIsOS43NzM4MiwwLDAsMCw2LjgxODI5LDQuNzE0NzMsOS4wNTYwNyw5LjA1NjA3LDAsMCwwLDEuNDUwNzYuMTE1MTQsOS4yODQ1NSw5LjI4NDU1LDAsMCwwLDUuNDgyNjYtMS43OTIxOCw3LjA4ODI5LDcuMDg4MjksMCwwLDAsMi45OTQ2NC01LjEyMzIzLDguNzE5MjgsOC43MTkyOCwwLDAsMC0xLjk0NDM2LTUuODQ2MUEzNC42MDIwNiwzNC42MDIwNiwwLDAsMSwxMTkuNTExMTksODkuMTc4NzNaIiBjbGFzcz0iY2xzLTUiLz48L3N2Zz4=;sketch=1;fontFamily=IBM Plex Mono;fontSize=19;" parent="1" vertex="1">
                    <mxGeometry x="960" y="490" width="23" height="31.3" as="geometry"/>
                </mxCell>
                <mxCell id="xMlnUiTXEX7Q_oC-0Y35-60" value="" style="shape=image;verticalLabelPosition=bottom;verticalAlign=top;imageAspect=0;aspect=fixed;image=data:image/svg+xml,PHN2ZyB4bWxuczp4bGluaz0iaHR0cDovL3d3dy53My5vcmcvMTk5OS94bGluayIgeG1sbnM9Imh0dHA6Ly93d3cudzMub3JnLzIwMDAvc3ZnIiB2aWV3Qm94PSIwIDAgMTgzIDI0OSIgZGF0YS1uYW1lPSJMYXllciAxIiBpZD0iTGF5ZXJfMSI+PGRlZnM+PHN0eWxlPi5jbHMtMXtmaWxsOnVybCgjbGluZWFyLWdyYWRpZW50KTt9LmNscy0ye2ZpbGw6dXJsKCNsaW5lYXItZ3JhZGllbnQtMik7fS5jbHMtM3tmaWxsOnVybCgjbGluZWFyLWdyYWRpZW50LTMpO30uY2xzLTR7ZmlsbDp1cmwoI2xpbmVhci1ncmFkaWVudC00KTt9LmNscy01e2ZpbGw6dXJsKCNsaW5lYXItZ3JhZGllbnQtNSk7fTwvc3R5bGU+PGxpbmVhckdyYWRpZW50IGdyYWRpZW50VW5pdHM9InVzZXJTcGFjZU9uVXNlIiB5Mj0iNDMyLjYwMTI4IiB4Mj0iNDQ5LjExNjA0IiB5MT0iMTA5Ljg2NDE3IiB4MT0iLTkzLjM1Njk4IiBpZD0ibGluZWFyLWdyYWRpZW50Ij48c3RvcCBzdG9wLWNvbG9yPSIjMmUzMTkwIiBvZmZzZXQ9IjAiLz48c3RvcCBzdG9wLWNvbG9yPSIjNTBhNzkyIiBvZmZzZXQ9IjAuNTUwNjEiLz48c3RvcCBzdG9wLWNvbG9yPSIjMzliMzRhIiBvZmZzZXQ9IjEiLz48L2xpbmVhckdyYWRpZW50PjxsaW5lYXJHcmFkaWVudCB4bGluazpocmVmPSIjbGluZWFyLWdyYWRpZW50IiB5Mj0iMzYyLjEwNzc4IiB4Mj0iNDkxLjA1NTIxIiB5MT0iMzkuMzcwNjciIHgxPSItNTEuNDE3ODEiIGlkPSJsaW5lYXItZ3JhZGllbnQtMiIvPjxsaW5lYXJHcmFkaWVudCB4bGluazpocmVmPSIjbGluZWFyLWdyYWRpZW50IiB5Mj0iMzQ4LjY2MDM0IiB4Mj0iNDk5LjA1NTU5IiB5MT0iMjUuOTIzMjMiIHgxPSItNDMuNDE3NDMiIGlkPSJsaW5lYXItZ3JhZGllbnQtMyIvPjxsaW5lYXJHcmFkaWVudCB4bGluazpocmVmPSIjbGluZWFyLWdyYWRpZW50IiB5Mj0iMzMyLjEzNTQ4IiB4Mj0iNTA4Ljg4NjgzIiB5MT0iOS4zOTgzNyIgeDE9Ii0zMy41ODYxOCIgaWQ9ImxpbmVhci1ncmFkaWVudC00Ii8+PGxpbmVhckdyYWRpZW50IHhsaW5rOmhyZWY9IiNsaW5lYXItZ3JhZGllbnQiIHkyPSIzMTUuNDcyNTMiIHgyPSI1MTguODAwMjMiIHkxPSItNy4yNjQ1OCIgeDE9Ii0yMy42NzI3OCIgaWQ9ImxpbmVhci1ncmFkaWVudC01Ii8+PC9kZWZzPjxwYXRoIGQ9Ik03MS44ODAxMSwyMTUuNjM1MmE3Ljc0MTY3LDcuNzQxNjcsMCwwLDAtNC45ODY4LDEuMzYsMjcuNDk4ODQsMjcuNDk4ODQsMCwwLDEtMy43Nzc4NCwyLjU2OSwxNi4xMTEwNiwxNi4xMTEwNiwwLDAsMS00LjUzMzM5LDEuMzU5OSw0MC4xNjQ3Nyw0MC4xNjQ3NywwLDAsMS02LjQ5Nzg5LjQ1MzQzQTIxLjg0MDA3LDIxLjg0MDA3LDAsMCwxLDQwLjA3MDcyLDIxOC4wNTNhMjMuMDU2MjQsMjMuMDU2MjQsMCwwLDEtOC4xNjAxNi04Ljk4OTY3LDI3LjYwMTI1LDI3LjYwMTI1LDAsMCwxLTIuOTQ2NzEtMTIuOTIxNywyOC41MzY5NCwyOC41MzY5NCwwLDAsMSwyLjg3MTI0LTEzLjA2OTc2LDIyLjEzNjIyLDIyLjEzNjIyLDAsMCwxLDguMjM1NjMtOC45ODk2N0EyNC4zNTYsMjQuMzU2LDAsMCwxLDUzLjE0MiwxNzAuNzU3ODFhMzAuNTYyLDMwLjU2MiwwLDAsMSw0LjYwOS41MjcyNiwxMy44NTczOCwxMy44NTczOCwwLDAsMSw0LjYwOSwxLjQzNzEzLDE2LjA4ODY1LDE2LjA4ODY1LDAsMCwxLDIuODcxMTIsMS45NjQ1MSwxMC40OTI4NSwxMC40OTI4NSwwLDAsMCwyLjc5NTY0LDEuNzM2MjMsMTAuMjA3MjYsMTAuMjA3MjYsMCwwLDAsNC4wMDQ0OS42ODE1OCw2LjAwNTY3LDYuMDA1NjcsMCwwLDAsNS4yODc0My0yLjY0NjA5LDkuODI2MzksOS44MjYzOSwwLDAsMCwxLjgxMzMyLTUuNjY1MTMsMTAuMTk2NzQsMTAuMTk2NzQsMCwwLDAtMy41NTExOS03Ljc4NCwyNC40MzI1MywyNC40MzI1MywwLDAsMC05Ljk3MTg2LTUuMDYwNjUsNTUuNjM2NzksNTUuNjM2NzksMCwwLDAtMTUuMDM1NzctMS44MTM0NSwzOS41MTEsMzkuNTExLDAsMCwwLTIwLjYyNjkzLDUuMzYzLDM3LjU0NDU5LDM3LjU0NDU5LDAsMCwwLTE0LjA1MTk1LDE0LjgwOTExLDQ1LjUxNzYyLDQ1LjUxNzYyLDAsMCwwLTUuMDYyNCwyMS44MzQyOEE0Ni45Nzg0OCw0Ni45Nzg0OCwwLDAsMCwxNS41OTIsMjE3LjQ0ODUzLDM2Ljg2NzUxLDM2Ljg2NzUxLDAsMCwwLDI5LjExNSwyMzIuNDg1OTNRMzcuODc4LDIzOC4wMDMyNSw0OS44MTc1NiwyMzhhNTYuMTI2OTIsNTYuMTI2OTIsMCwwLDAsMTQuODg0NTgtMS44ODcyOSwzNC4wMzIzOCwzNC4wMzIzOCwwLDAsMCwxMS4xMDUyNC00Ljk4NjgxcTQuMjI5NTItMy4wOTYyLDQuMjMxMTQtNi44NzcyM2E5LjEzNDY1LDkuMTM0NjUsMCwwLDAtMi4xMTU1Ny02LjExODQzQTcuNDkwNjgsNy40OTA2OCwwLDAsMCw3MS44ODAxMSwyMTUuNjM1MloiIGNsYXNzPSJjbHMtMSIvPjxwYXRoIGQ9Ik0xNTguNjE0MzYsNjYuODY5NzJhOC42Nzc2Myw4LjY3NzYzLDAsMCwwLTYuNDk3ODksMi42NDYwOSw5LjA1NDIsOS4wNTQyLDAsMCwwLTIuNTY3MzcsNi41NzE3NHY4Ny40ODcyOGEzNi40NSwzNi40NSwwLDAsMC0yLjk0NjcxLTIuNDg4MjcsMzUuNjE5NDQsMzUuNjE5NDQsMCwwLDAtOS40NDQ2LTQuOTg2ODEsMzQuOTQ1NzUsMzQuOTQ1NzUsMCwwLDAtMTEuOTM3ODgtMS45NjQ1MSwzMy4zMTY1NSwzMy4zMTY1NSwwLDAsMC0xOC40MzU4OSw1LjM2MywzOC4xNDc1OCwzOC4xNDc1OCwwLDAsMC0xMy4yMjA4MSwxNC44MDkxMSw1MC42NjIxOCw1MC42NjIxOCwwLDAsMCwwLDQzLjUyMDYyLDM3LjcwMjQ4LDM3LjcwMjQ4LDAsMCwwLDEzLjM3MiwxNC44MDkxMkEzNC41NTQ1LDM0LjU1NDUsMCwwLDAsMTI1LjgyNDI3LDIzOGEyOS40Nzg0NCwyOS40Nzg0NCwwLDAsMCwxMC42NTM1Ny0xLjg4NzI5LDM1LjI5NjQ1LDM1LjI5NjQ1LDAsMCwwLDguNTM3ODctNC42MTA2LDMxLjgyMTA5LDMxLjgyMTA5LDAsMCwwLDQuNTQ2NTMtNC4wNzcsOS4wMjY1MSw5LjAyNjUxLDAsMCwwLDIuNTU0MjMsNi40MjA4LDkuMzA5MjIsOS4zMDkyMiwwLDAsMCwxMi45OTU3OCwwLDkuMDY0MzQsOS4wNjQzNCwwLDAsMCwyLjU2ODg3LTYuNTc1Vjc2LjA4NzU1YTkuMDAwNCw5LjAwMDQsMCwwLDAtMi41Njg4Ny02LjY0OUE4LjgxNzcsOC44MTc3LDAsMCwwLDE1OC42MTQzNiw2Ni44Njk3MlpNMTM5LjcyNjc5LDIxOC4wNTNhMjAuNDY5MzQsMjAuNDY5MzQsMCwwLDEtMTEuNjM1NzYsMy4zMjQ1NCwyMC4yMDQwNiwyMC4yMDQwNiwwLDAsMS0xMS40ODQ1OC0zLjMyNDU0LDIyLjQyOTMxLDIyLjQyOTMxLDAsMCwxLTcuNzgyMzMtOS4wNjY3NywyOC45MjA1MSwyOC45MjA1MSwwLDAsMS0yLjc5NC0xMi44NDQ2LDI5LjI4MjMyLDI5LjI4MjMyLDAsMCwxLDIuNzk0LTEyLjk5MjU0LDIyLjQzMDU4LDIyLjQzMDU4LDAsMCwxLDcuNzgyMzMtOS4wNjY4OSwyMC4yMjg5NCwyMC4yMjg5NCwwLDAsMSwxMS40ODQ1OC0zLjMyNDQxLDIwLjQ5NDMsMjAuNDk0MywwLDAsMSwxMS42MzU3NiwzLjMyNDQxLDIyLjQ1NjE4LDIyLjQ1NjE4LDAsMCwxLDcuNzgyMzMsOS4wNjY4OSwyOS4zMjkxMiwyOS4zMjkxMiwwLDAsMSwyLjc5NTUyLDEyLjk5MjU0LDI4Ljk2NzI4LDI4Ljk2NzI4LDAsMCwxLTIuNzk1NTIsMTIuODQ0NkEyMi40NTQ5MSwyMi40NTQ5MSwwLDAsMSwxMzkuNzI2NzksMjE4LjA1M1oiIGNsYXNzPSJjbHMtMiIvPjxwYXRoIGQ9Ik00Mi40MjI1NCwxMjMuNjI5NTlhODQuMDQ3NTMsODQuMDQ3NTMsMCwwLDEtOC44Mzk3NC0xNS41MTE4NSw4MC4wMjUwNiw4MC4wMjUwNiwwLDAsMS00LjA1NjkzLTExLjQ2MTkyYy0uNzMwODgtMi43MDgyOS0xLjI0NDUxLTUuNDY1NjQtMS43MDcwNy04LjA1Nzc5YTYzLjE5MTE4LDYzLjE5MTE4LDAsMCwxLS44ODAwNy05LjQ0NzQ4QTY4LjQwNzMxLDY4LjQwNzMxLDAsMCwxLDI4LjE0ODIsNjQuMDIwMTdjLjUwMTYxLTIuNTQ4MSwxLjAyMTI0LTUuMTg0MywxLjY4OTA1LTcuNzM2NEE2Ni4zMjE3Miw2Ni4zMjE3MiwwLDAsMSwzMy41OTI4MSw0NS43NjVjMS4zNjk2Ny0zLjAyODY4LDIuNzAzMjktNS42OTQ5Miw0LjA3Ni04LjE0OTlBODUuNjgxNDIsODUuNjgxNDIsMCwwLDEsNDkuMDcwNjIsMjIuMTIxMjdhNi44MzkxMiw2LjgzOTEyLDAsMCwwLDEuNTM1ODYtNy4wMzk1Niw4LjE3OSw4LjE3OSwwLDAsMC01Ljg2NTEyLTUuMTM1MjMsOS4zOTIzMyw5LjM5MjMzLDAsMCwwLTguMzg0MTksMS45OTI0MiwzNC4zMTM2NywzNC4zMTM2NywwLDAsMC01LjIzNzM2LDUuOTA3MTdsLS44MzcsMS4xMDAzNGE5OC40OTUsOTguNDk1LDAsMCwwLTguOTg0OTEsMTMuNTk0NTFjLTEuMTU2NDEsMi4xNTk2My0yLjI3Njc3LDQuMjgzMjEtMy4yNzIsNi41MjQ5M0MxNi43MjczMyw0MS45OTE0MSwxNS42NDYsNDQuOTM4LDE0LjQ2NjU4LDQ4LjIxMmE4MC42NTg4NCw4MC42NTg4NCwwLDAsMC0yLjI4MDc3LDcuOTc3NjlsLS4yMjQyNy44OTgxYy0uMjMyMjkuOTI3MTItLjM3MjQ2LDEuODUzMjUtLjUyMjY0LDIuODQwNDUtLjEwNjEzLjY5Nzg0LS4yMTIyNiwxLjM5NTY5LS4zNjY0NCwyLjA4MjUzYTQ3Ljg3MjQyLDQ3Ljg3MjQyLDAsMCwwLS44MSw1LjYxMTgxYy0uMTA1MTMsMS4wMTQyNC0uMjEwMjUsMi4wMjg0Ny0uMzUzNDMsMy4wMzk3YTI1LjI4ODg0LDI1LjI4ODg0LDAsMCwwLS4xMDgxMyw0LjQ1ODQxYy4wMi41NzQ3LjA0MDA1LDEuMTQ5NC4wNDAwNSwxLjY3NmE2Mi42NzAxNyw2Mi42NzAxNywwLDAsMCwuNzU2OTIsMTEuODUyNGMuMDg4MTEuNTY5NjkuMTY5MiwxLjE0MjM5LjI1MDMsMS43MTYwOGwuMDQyMDUuMjk5MzdjLjEzMjE2LjkzMTEzLjI2NTMzLDEuODYzMjYuNDIyNTIsMi43ODgzOWE3OC43MTA0NSw3OC43MTA0NSwwLDAsMCwzLjcyNzUzLDEzLjg5MTg3YzEuMDM5MjYsMi44MzA0NCwxLjk5MzQyLDUuMzc5NTQsMy4xNTA4Miw3Ljg5NzZhOTQuMTIyNDgsOTQuMTIyNDgsMCwwLDAsNy4zODQsMTMuMTE1OTMsMTAyLjAxODY0LDEwMi4wMTg2NCwwLDAsMCwxMC43MzYwNSwxMy41OTc1Miw5LjgyMTU3LDkuODIxNTcsMCwwLDAsNi42NjcxLDIuNTgxMTQsNi44NDE0NCw2Ljg0MTQ0LDAsMCwwLDEuOTgxNC0uMjcwMzNjMy4xMDI3Ny0uOTQ0MTUsNS4zMjA0Ny0yLjg5ODUyLDYuMDg0NC01LjM2MzUyYTcuMTc2NCw3LjE3NjQsMCwwLDAtMS44NjAyNi03LjAzMTU0QTEwMS40NTQxOCwxMDEuNDU0MTgsMCwwLDEsNDIuNDIyNTQsMTIzLjYyOTU5WiIgY2xhc3M9ImNscy0zIi8+PHBhdGggZD0iTTg1LjI5OTYzLDExMy45Njk4NWwtLjU5NTYuNDg1NDcuNTY4NTctLjUxODUxYy0uNTYxNjgtLjY5Mjg0LTEuMTI0MzctMS4zODQ2OC0xLjY0NS0yLjA5OTU1YTYxLjA3MTI3LDYxLjA3MTI3LDAsMCwxLTQuNzgwODEtNy44MDE0OCw2NS41Niw2NS41NiwwLDAsMS0zLjA1OTcxLTYuNTk4LDU4LjAzMzkxLDU4LjAzMzkxLDAsMCwxLTEuOTc5NDEtNi41ODNsLS4yMjcyOC0uODkzMDlhMzAuNTc0NDQsMzAuNTc0NDQsMCwwLDEtMS4wNzYzLTUuNjI5ODRjLS4wNTAwNi0uODc0MDYtLjExNzE1LTEuNzQ2MTItLjE4NTIzLTIuNjMxMTlhNDIuNDYxNjYsNDIuNDYxNjYsMCwwLDEtLjA4NDEtOC40NjQyOUw3Mi40NjksNzEuMjZBNjAuMzY4LDYwLjM2OCwwLDAsMSw3My42Mjg0NSw2My45MDRhNjAuMjQ4ODEsNjAuMjQ4ODEsMCwwLDEsNS4wNDAxMy0xMy42MzQ1N0E2NS43MzMsNjUuNzMzLDAsMCwxLDg2LjM5OCwzOC41NzEyNWMxLjU0ODg4LTEuODc3MjgsMi45ODE2Mi00LjIwMzExLDEuODY4MjctNy4yMTk3N2E3LjczOTI4LDcuNzM5MjgsMCwwLDAtNS45MDYxOC01LjIyMTM0Yy0zLjU2ODMzLS43Njg5NC02LjU2NS0uMDEzLTguNjYxNTIsMi4xODE2NUE2NS4zMDE5NCw2NS4zMDE5NCwwLDAsMCw2NC45OCw0MC4yNDYyOWE3NC4zNzU4Niw3NC4zNzU4NiwwLDAsMC02LjM0NjcxLDEzLjk0MjkzQTY5Ljk5MjI0LDY5Ljk5MjI0LDAsMCwwLDU1LjQ3ODQsNjcuNzgxNzRsLS4xMjYxNS45MTAxYTMxLjY3MjcyLDMxLjY3MjcyLDAsMCwwLS40MDY0OSw4LjM4MTE5YzAsLjQyODUyLS4wMTkuODczMDYtLjA0MDA1LDEuMzUyNjRhMTcuNzA4MTQsMTcuNzA4MTQsMCwwLDAsLjEwNzEzLDMuNjY1NDVjLjE3MDIsMS4wNDcyNy4yOTUzNiwyLjA5NzU1LjQzMjUyLDMuMjM1OTMuMTkzMjQsMS42MTUuMzkzNDgsMy4yODYuNzQ5OTEsNC45NDkuMTI2MTYuNTg3NzEuMjQxMywxLjE3NzQzLjM2MTQ0LDEuNzkxMTdBNDAuNjc5MzUsNDAuNjc5MzUsMCwwLDAsNTcuNjQzLDk2LjY1OTgyYTg3Ljc1NzU3LDg3Ljc1NzU3LDAsMCwwLDQuMjQ2MTYsMTEuMDY3NDUsNzkuODMwNCw3OS44MzA0LDAsMCwwLDExLjEzNTUzLDE3LjE3Njg2LDkuMDM0Niw5LjAzNDYsMCwwLDAsNy4xMjM2NSwzLjQ3ODIzaC4wMDRhMTEuMTM4NjYsMTEuMTM4NjYsMCwwLDAsMi4yODA3Ny0uMjQ2Myw4LjEzNzQ1LDguMTM3NDUsMCwwLDAsNS43ODctNC40Njc0Myw2LjYyMTQ4LDYuNjIxNDgsMCwwLDAtLjQ4NDU5LTYuNDgyODdBMzguOTM0MDcsMzguOTM0MDcsMCwwLDAsODUuMjk5NjMsMTEzLjk2OTg1WiIgY2xhc3M9ImNscy00Ii8+PHBhdGggZD0iTTExOS41MTExOSw4OS4xNzg3M2EzNi4xMzA4MiwzNi4xMzA4MiwwLDAsMS0yLjA3MzUxLTkuNDMwNDUsMzkuNTcyMjIsMzkuNTcyMjIsMCwwLDEsLjUzODY1LTEwLjI4MzVsLjA2NTA4LS4zMjQzOWEyNS44NzE3NSwyNS44NzE3NSwwLDAsMSwxLjE4MTQzLTQuNTYzNTUsNDUuODE3NzMsNDUuODE3NzMsMCwwLDEsNS4xOTczMi05Ljg1OWMxLjc5ODE4LTIuNTI3MDcsMi4xMzU1OS00Ljk3MSwxLjAwNDIyLTcuMjYxODNhOC4zMzkzOCw4LjMzOTM4LDAsMCwwLTcuMTkzNzQtNC43Njg3OSw4LjU1MTk0LDguNTUxOTQsMCwwLDAtNy43NDA0LDMuMDk5NzcsNTEuMTY0NTgsNTEuMTY0NTgsMCwwLDAtNC44NDE4OSw3Ljg3MzU2LDQ5Ljk4Mjc4LDQ5Ljk4Mjc4LDAsMCwwLTQuNjU3NjYsMTMuMTI0OTUsNDEuNzc0NDgsNDEuNzc0NDgsMCwwLDAtLjkzMTEzLDkuNzQwODMsNTAuNjMwNjgsNTAuNjMwNjgsMCwwLDAsMS4zNzk2OCwxMS44NDk0LDUxLjQyODA5LDUxLjQyODA5LDAsMCwwLDMuMzI0LDkuNDMwNDUsNTcuOTY0NjIsNTcuOTY0NjIsMCwwLDAsNC42Mzg2Myw4LjI4NDA3LDkuNzczODIsOS43NzM4MiwwLDAsMCw2LjgxODI5LDQuNzE0NzMsOS4wNTYwNyw5LjA1NjA3LDAsMCwwLDEuNDUwNzYuMTE1MTQsOS4yODQ1NSw5LjI4NDU1LDAsMCwwLDUuNDgyNjYtMS43OTIxOCw3LjA4ODI5LDcuMDg4MjksMCwwLDAsMi45OTQ2NC01LjEyMzIzLDguNzE5MjgsOC43MTkyOCwwLDAsMC0xLjk0NDM2LTUuODQ2MUEzNC42MDIwNiwzNC42MDIwNiwwLDAsMSwxMTkuNTExMTksODkuMTc4NzNaIiBjbGFzcz0iY2xzLTUiLz48L3N2Zz4=;sketch=1;fontFamily=IBM Plex Mono;fontSize=19;" parent="1" vertex="1">
                    <mxGeometry x="620" y="490" width="23" height="31.3" as="geometry"/>
                </mxCell>
                <mxCell id="xMlnUiTXEX7Q_oC-0Y35-61" value="" style="shape=image;verticalLabelPosition=bottom;verticalAlign=top;imageAspect=0;aspect=fixed;image=data:image/svg+xml,PHN2ZyB4bWxuczp4bGluaz0iaHR0cDovL3d3dy53My5vcmcvMTk5OS94bGluayIgeG1sbnM9Imh0dHA6Ly93d3cudzMub3JnLzIwMDAvc3ZnIiB2aWV3Qm94PSIwIDAgMTgzIDI0OSIgZGF0YS1uYW1lPSJMYXllciAxIiBpZD0iTGF5ZXJfMSI+PGRlZnM+PHN0eWxlPi5jbHMtMXtmaWxsOnVybCgjbGluZWFyLWdyYWRpZW50KTt9LmNscy0ye2ZpbGw6dXJsKCNsaW5lYXItZ3JhZGllbnQtMik7fS5jbHMtM3tmaWxsOnVybCgjbGluZWFyLWdyYWRpZW50LTMpO30uY2xzLTR7ZmlsbDp1cmwoI2xpbmVhci1ncmFkaWVudC00KTt9LmNscy01e2ZpbGw6dXJsKCNsaW5lYXItZ3JhZGllbnQtNSk7fTwvc3R5bGU+PGxpbmVhckdyYWRpZW50IGdyYWRpZW50VW5pdHM9InVzZXJTcGFjZU9uVXNlIiB5Mj0iNDMyLjYwMTI4IiB4Mj0iNDQ5LjExNjA0IiB5MT0iMTA5Ljg2NDE3IiB4MT0iLTkzLjM1Njk4IiBpZD0ibGluZWFyLWdyYWRpZW50Ij48c3RvcCBzdG9wLWNvbG9yPSIjMmUzMTkwIiBvZmZzZXQ9IjAiLz48c3RvcCBzdG9wLWNvbG9yPSIjNTBhNzkyIiBvZmZzZXQ9IjAuNTUwNjEiLz48c3RvcCBzdG9wLWNvbG9yPSIjMzliMzRhIiBvZmZzZXQ9IjEiLz48L2xpbmVhckdyYWRpZW50PjxsaW5lYXJHcmFkaWVudCB4bGluazpocmVmPSIjbGluZWFyLWdyYWRpZW50IiB5Mj0iMzYyLjEwNzc4IiB4Mj0iNDkxLjA1NTIxIiB5MT0iMzkuMzcwNjciIHgxPSItNTEuNDE3ODEiIGlkPSJsaW5lYXItZ3JhZGllbnQtMiIvPjxsaW5lYXJHcmFkaWVudCB4bGluazpocmVmPSIjbGluZWFyLWdyYWRpZW50IiB5Mj0iMzQ4LjY2MDM0IiB4Mj0iNDk5LjA1NTU5IiB5MT0iMjUuOTIzMjMiIHgxPSItNDMuNDE3NDMiIGlkPSJsaW5lYXItZ3JhZGllbnQtMyIvPjxsaW5lYXJHcmFkaWVudCB4bGluazpocmVmPSIjbGluZWFyLWdyYWRpZW50IiB5Mj0iMzMyLjEzNTQ4IiB4Mj0iNTA4Ljg4NjgzIiB5MT0iOS4zOTgzNyIgeDE9Ii0zMy41ODYxOCIgaWQ9ImxpbmVhci1ncmFkaWVudC00Ii8+PGxpbmVhckdyYWRpZW50IHhsaW5rOmhyZWY9IiNsaW5lYXItZ3JhZGllbnQiIHkyPSIzMTUuNDcyNTMiIHgyPSI1MTguODAwMjMiIHkxPSItNy4yNjQ1OCIgeDE9Ii0yMy42NzI3OCIgaWQ9ImxpbmVhci1ncmFkaWVudC01Ii8+PC9kZWZzPjxwYXRoIGQ9Ik03MS44ODAxMSwyMTUuNjM1MmE3Ljc0MTY3LDcuNzQxNjcsMCwwLDAtNC45ODY4LDEuMzYsMjcuNDk4ODQsMjcuNDk4ODQsMCwwLDEtMy43Nzc4NCwyLjU2OSwxNi4xMTEwNiwxNi4xMTEwNiwwLDAsMS00LjUzMzM5LDEuMzU5OSw0MC4xNjQ3Nyw0MC4xNjQ3NywwLDAsMS02LjQ5Nzg5LjQ1MzQzQTIxLjg0MDA3LDIxLjg0MDA3LDAsMCwxLDQwLjA3MDcyLDIxOC4wNTNhMjMuMDU2MjQsMjMuMDU2MjQsMCwwLDEtOC4xNjAxNi04Ljk4OTY3LDI3LjYwMTI1LDI3LjYwMTI1LDAsMCwxLTIuOTQ2NzEtMTIuOTIxNywyOC41MzY5NCwyOC41MzY5NCwwLDAsMSwyLjg3MTI0LTEzLjA2OTc2LDIyLjEzNjIyLDIyLjEzNjIyLDAsMCwxLDguMjM1NjMtOC45ODk2N0EyNC4zNTYsMjQuMzU2LDAsMCwxLDUzLjE0MiwxNzAuNzU3ODFhMzAuNTYyLDMwLjU2MiwwLDAsMSw0LjYwOS41MjcyNiwxMy44NTczOCwxMy44NTczOCwwLDAsMSw0LjYwOSwxLjQzNzEzLDE2LjA4ODY1LDE2LjA4ODY1LDAsMCwxLDIuODcxMTIsMS45NjQ1MSwxMC40OTI4NSwxMC40OTI4NSwwLDAsMCwyLjc5NTY0LDEuNzM2MjMsMTAuMjA3MjYsMTAuMjA3MjYsMCwwLDAsNC4wMDQ0OS42ODE1OCw2LjAwNTY3LDYuMDA1NjcsMCwwLDAsNS4yODc0My0yLjY0NjA5LDkuODI2MzksOS44MjYzOSwwLDAsMCwxLjgxMzMyLTUuNjY1MTMsMTAuMTk2NzQsMTAuMTk2NzQsMCwwLDAtMy41NTExOS03Ljc4NCwyNC40MzI1MywyNC40MzI1MywwLDAsMC05Ljk3MTg2LTUuMDYwNjUsNTUuNjM2NzksNTUuNjM2NzksMCwwLDAtMTUuMDM1NzctMS44MTM0NSwzOS41MTEsMzkuNTExLDAsMCwwLTIwLjYyNjkzLDUuMzYzLDM3LjU0NDU5LDM3LjU0NDU5LDAsMCwwLTE0LjA1MTk1LDE0LjgwOTExLDQ1LjUxNzYyLDQ1LjUxNzYyLDAsMCwwLTUuMDYyNCwyMS44MzQyOEE0Ni45Nzg0OCw0Ni45Nzg0OCwwLDAsMCwxNS41OTIsMjE3LjQ0ODUzLDM2Ljg2NzUxLDM2Ljg2NzUxLDAsMCwwLDI5LjExNSwyMzIuNDg1OTNRMzcuODc4LDIzOC4wMDMyNSw0OS44MTc1NiwyMzhhNTYuMTI2OTIsNTYuMTI2OTIsMCwwLDAsMTQuODg0NTgtMS44ODcyOSwzNC4wMzIzOCwzNC4wMzIzOCwwLDAsMCwxMS4xMDUyNC00Ljk4NjgxcTQuMjI5NTItMy4wOTYyLDQuMjMxMTQtNi44NzcyM2E5LjEzNDY1LDkuMTM0NjUsMCwwLDAtMi4xMTU1Ny02LjExODQzQTcuNDkwNjgsNy40OTA2OCwwLDAsMCw3MS44ODAxMSwyMTUuNjM1MloiIGNsYXNzPSJjbHMtMSIvPjxwYXRoIGQ9Ik0xNTguNjE0MzYsNjYuODY5NzJhOC42Nzc2Myw4LjY3NzYzLDAsMCwwLTYuNDk3ODksMi42NDYwOSw5LjA1NDIsOS4wNTQyLDAsMCwwLTIuNTY3MzcsNi41NzE3NHY4Ny40ODcyOGEzNi40NSwzNi40NSwwLDAsMC0yLjk0NjcxLTIuNDg4MjcsMzUuNjE5NDQsMzUuNjE5NDQsMCwwLDAtOS40NDQ2LTQuOTg2ODEsMzQuOTQ1NzUsMzQuOTQ1NzUsMCwwLDAtMTEuOTM3ODgtMS45NjQ1MSwzMy4zMTY1NSwzMy4zMTY1NSwwLDAsMC0xOC40MzU4OSw1LjM2MywzOC4xNDc1OCwzOC4xNDc1OCwwLDAsMC0xMy4yMjA4MSwxNC44MDkxMSw1MC42NjIxOCw1MC42NjIxOCwwLDAsMCwwLDQzLjUyMDYyLDM3LjcwMjQ4LDM3LjcwMjQ4LDAsMCwwLDEzLjM3MiwxNC44MDkxMkEzNC41NTQ1LDM0LjU1NDUsMCwwLDAsMTI1LjgyNDI3LDIzOGEyOS40Nzg0NCwyOS40Nzg0NCwwLDAsMCwxMC42NTM1Ny0xLjg4NzI5LDM1LjI5NjQ1LDM1LjI5NjQ1LDAsMCwwLDguNTM3ODctNC42MTA2LDMxLjgyMTA5LDMxLjgyMTA5LDAsMCwwLDQuNTQ2NTMtNC4wNzcsOS4wMjY1MSw5LjAyNjUxLDAsMCwwLDIuNTU0MjMsNi40MjA4LDkuMzA5MjIsOS4zMDkyMiwwLDAsMCwxMi45OTU3OCwwLDkuMDY0MzQsOS4wNjQzNCwwLDAsMCwyLjU2ODg3LTYuNTc1Vjc2LjA4NzU1YTkuMDAwNCw5LjAwMDQsMCwwLDAtMi41Njg4Ny02LjY0OUE4LjgxNzcsOC44MTc3LDAsMCwwLDE1OC42MTQzNiw2Ni44Njk3MlpNMTM5LjcyNjc5LDIxOC4wNTNhMjAuNDY5MzQsMjAuNDY5MzQsMCwwLDEtMTEuNjM1NzYsMy4zMjQ1NCwyMC4yMDQwNiwyMC4yMDQwNiwwLDAsMS0xMS40ODQ1OC0zLjMyNDU0LDIyLjQyOTMxLDIyLjQyOTMxLDAsMCwxLTcuNzgyMzMtOS4wNjY3NywyOC45MjA1MSwyOC45MjA1MSwwLDAsMS0yLjc5NC0xMi44NDQ2LDI5LjI4MjMyLDI5LjI4MjMyLDAsMCwxLDIuNzk0LTEyLjk5MjU0LDIyLjQzMDU4LDIyLjQzMDU4LDAsMCwxLDcuNzgyMzMtOS4wNjY4OSwyMC4yMjg5NCwyMC4yMjg5NCwwLDAsMSwxMS40ODQ1OC0zLjMyNDQxLDIwLjQ5NDMsMjAuNDk0MywwLDAsMSwxMS42MzU3NiwzLjMyNDQxLDIyLjQ1NjE4LDIyLjQ1NjE4LDAsMCwxLDcuNzgyMzMsOS4wNjY4OSwyOS4zMjkxMiwyOS4zMjkxMiwwLDAsMSwyLjc5NTUyLDEyLjk5MjU0LDI4Ljk2NzI4LDI4Ljk2NzI4LDAsMCwxLTIuNzk1NTIsMTIuODQ0NkEyMi40NTQ5MSwyMi40NTQ5MSwwLDAsMSwxMzkuNzI2NzksMjE4LjA1M1oiIGNsYXNzPSJjbHMtMiIvPjxwYXRoIGQ9Ik00Mi40MjI1NCwxMjMuNjI5NTlhODQuMDQ3NTMsODQuMDQ3NTMsMCwwLDEtOC44Mzk3NC0xNS41MTE4NSw4MC4wMjUwNiw4MC4wMjUwNiwwLDAsMS00LjA1NjkzLTExLjQ2MTkyYy0uNzMwODgtMi43MDgyOS0xLjI0NDUxLTUuNDY1NjQtMS43MDcwNy04LjA1Nzc5YTYzLjE5MTE4LDYzLjE5MTE4LDAsMCwxLS44ODAwNy05LjQ0NzQ4QTY4LjQwNzMxLDY4LjQwNzMxLDAsMCwxLDI4LjE0ODIsNjQuMDIwMTdjLjUwMTYxLTIuNTQ4MSwxLjAyMTI0LTUuMTg0MywxLjY4OTA1LTcuNzM2NEE2Ni4zMjE3Miw2Ni4zMjE3MiwwLDAsMSwzMy41OTI4MSw0NS43NjVjMS4zNjk2Ny0zLjAyODY4LDIuNzAzMjktNS42OTQ5Miw0LjA3Ni04LjE0OTlBODUuNjgxNDIsODUuNjgxNDIsMCwwLDEsNDkuMDcwNjIsMjIuMTIxMjdhNi44MzkxMiw2LjgzOTEyLDAsMCwwLDEuNTM1ODYtNy4wMzk1Niw4LjE3OSw4LjE3OSwwLDAsMC01Ljg2NTEyLTUuMTM1MjMsOS4zOTIzMyw5LjM5MjMzLDAsMCwwLTguMzg0MTksMS45OTI0MiwzNC4zMTM2NywzNC4zMTM2NywwLDAsMC01LjIzNzM2LDUuOTA3MTdsLS44MzcsMS4xMDAzNGE5OC40OTUsOTguNDk1LDAsMCwwLTguOTg0OTEsMTMuNTk0NTFjLTEuMTU2NDEsMi4xNTk2My0yLjI3Njc3LDQuMjgzMjEtMy4yNzIsNi41MjQ5M0MxNi43MjczMyw0MS45OTE0MSwxNS42NDYsNDQuOTM4LDE0LjQ2NjU4LDQ4LjIxMmE4MC42NTg4NCw4MC42NTg4NCwwLDAsMC0yLjI4MDc3LDcuOTc3NjlsLS4yMjQyNy44OTgxYy0uMjMyMjkuOTI3MTItLjM3MjQ2LDEuODUzMjUtLjUyMjY0LDIuODQwNDUtLjEwNjEzLjY5Nzg0LS4yMTIyNiwxLjM5NTY5LS4zNjY0NCwyLjA4MjUzYTQ3Ljg3MjQyLDQ3Ljg3MjQyLDAsMCwwLS44MSw1LjYxMTgxYy0uMTA1MTMsMS4wMTQyNC0uMjEwMjUsMi4wMjg0Ny0uMzUzNDMsMy4wMzk3YTI1LjI4ODg0LDI1LjI4ODg0LDAsMCwwLS4xMDgxMyw0LjQ1ODQxYy4wMi41NzQ3LjA0MDA1LDEuMTQ5NC4wNDAwNSwxLjY3NmE2Mi42NzAxNyw2Mi42NzAxNywwLDAsMCwuNzU2OTIsMTEuODUyNGMuMDg4MTEuNTY5NjkuMTY5MiwxLjE0MjM5LjI1MDMsMS43MTYwOGwuMDQyMDUuMjk5MzdjLjEzMjE2LjkzMTEzLjI2NTMzLDEuODYzMjYuNDIyNTIsMi43ODgzOWE3OC43MTA0NSw3OC43MTA0NSwwLDAsMCwzLjcyNzUzLDEzLjg5MTg3YzEuMDM5MjYsMi44MzA0NCwxLjk5MzQyLDUuMzc5NTQsMy4xNTA4Miw3Ljg5NzZhOTQuMTIyNDgsOTQuMTIyNDgsMCwwLDAsNy4zODQsMTMuMTE1OTMsMTAyLjAxODY0LDEwMi4wMTg2NCwwLDAsMCwxMC43MzYwNSwxMy41OTc1Miw5LjgyMTU3LDkuODIxNTcsMCwwLDAsNi42NjcxLDIuNTgxMTQsNi44NDE0NCw2Ljg0MTQ0LDAsMCwwLDEuOTgxNC0uMjcwMzNjMy4xMDI3Ny0uOTQ0MTUsNS4zMjA0Ny0yLjg5ODUyLDYuMDg0NC01LjM2MzUyYTcuMTc2NCw3LjE3NjQsMCwwLDAtMS44NjAyNi03LjAzMTU0QTEwMS40NTQxOCwxMDEuNDU0MTgsMCwwLDEsNDIuNDIyNTQsMTIzLjYyOTU5WiIgY2xhc3M9ImNscy0zIi8+PHBhdGggZD0iTTg1LjI5OTYzLDExMy45Njk4NWwtLjU5NTYuNDg1NDcuNTY4NTctLjUxODUxYy0uNTYxNjgtLjY5Mjg0LTEuMTI0MzctMS4zODQ2OC0xLjY0NS0yLjA5OTU1YTYxLjA3MTI3LDYxLjA3MTI3LDAsMCwxLTQuNzgwODEtNy44MDE0OCw2NS41Niw2NS41NiwwLDAsMS0zLjA1OTcxLTYuNTk4LDU4LjAzMzkxLDU4LjAzMzkxLDAsMCwxLTEuOTc5NDEtNi41ODNsLS4yMjcyOC0uODkzMDlhMzAuNTc0NDQsMzAuNTc0NDQsMCwwLDEtMS4wNzYzLTUuNjI5ODRjLS4wNTAwNi0uODc0MDYtLjExNzE1LTEuNzQ2MTItLjE4NTIzLTIuNjMxMTlhNDIuNDYxNjYsNDIuNDYxNjYsMCwwLDEtLjA4NDEtOC40NjQyOUw3Mi40NjksNzEuMjZBNjAuMzY4LDYwLjM2OCwwLDAsMSw3My42Mjg0NSw2My45MDRhNjAuMjQ4ODEsNjAuMjQ4ODEsMCwwLDEsNS4wNDAxMy0xMy42MzQ1N0E2NS43MzMsNjUuNzMzLDAsMCwxLDg2LjM5OCwzOC41NzEyNWMxLjU0ODg4LTEuODc3MjgsMi45ODE2Mi00LjIwMzExLDEuODY4MjctNy4yMTk3N2E3LjczOTI4LDcuNzM5MjgsMCwwLDAtNS45MDYxOC01LjIyMTM0Yy0zLjU2ODMzLS43Njg5NC02LjU2NS0uMDEzLTguNjYxNTIsMi4xODE2NUE2NS4zMDE5NCw2NS4zMDE5NCwwLDAsMCw2NC45OCw0MC4yNDYyOWE3NC4zNzU4Niw3NC4zNzU4NiwwLDAsMC02LjM0NjcxLDEzLjk0MjkzQTY5Ljk5MjI0LDY5Ljk5MjI0LDAsMCwwLDU1LjQ3ODQsNjcuNzgxNzRsLS4xMjYxNS45MTAxYTMxLjY3MjcyLDMxLjY3MjcyLDAsMCwwLS40MDY0OSw4LjM4MTE5YzAsLjQyODUyLS4wMTkuODczMDYtLjA0MDA1LDEuMzUyNjRhMTcuNzA4MTQsMTcuNzA4MTQsMCwwLDAsLjEwNzEzLDMuNjY1NDVjLjE3MDIsMS4wNDcyNy4yOTUzNiwyLjA5NzU1LjQzMjUyLDMuMjM1OTMuMTkzMjQsMS42MTUuMzkzNDgsMy4yODYuNzQ5OTEsNC45NDkuMTI2MTYuNTg3NzEuMjQxMywxLjE3NzQzLjM2MTQ0LDEuNzkxMTdBNDAuNjc5MzUsNDAuNjc5MzUsMCwwLDAsNTcuNjQzLDk2LjY1OTgyYTg3Ljc1NzU3LDg3Ljc1NzU3LDAsMCwwLDQuMjQ2MTYsMTEuMDY3NDUsNzkuODMwNCw3OS44MzA0LDAsMCwwLDExLjEzNTUzLDE3LjE3Njg2LDkuMDM0Niw5LjAzNDYsMCwwLDAsNy4xMjM2NSwzLjQ3ODIzaC4wMDRhMTEuMTM4NjYsMTEuMTM4NjYsMCwwLDAsMi4yODA3Ny0uMjQ2Myw4LjEzNzQ1LDguMTM3NDUsMCwwLDAsNS43ODctNC40Njc0Myw2LjYyMTQ4LDYuNjIxNDgsMCwwLDAtLjQ4NDU5LTYuNDgyODdBMzguOTM0MDcsMzguOTM0MDcsMCwwLDAsODUuMjk5NjMsMTEzLjk2OTg1WiIgY2xhc3M9ImNscy00Ii8+PHBhdGggZD0iTTExOS41MTExOSw4OS4xNzg3M2EzNi4xMzA4MiwzNi4xMzA4MiwwLDAsMS0yLjA3MzUxLTkuNDMwNDUsMzkuNTcyMjIsMzkuNTcyMjIsMCwwLDEsLjUzODY1LTEwLjI4MzVsLjA2NTA4LS4zMjQzOWEyNS44NzE3NSwyNS44NzE3NSwwLDAsMSwxLjE4MTQzLTQuNTYzNTUsNDUuODE3NzMsNDUuODE3NzMsMCwwLDEsNS4xOTczMi05Ljg1OWMxLjc5ODE4LTIuNTI3MDcsMi4xMzU1OS00Ljk3MSwxLjAwNDIyLTcuMjYxODNhOC4zMzkzOCw4LjMzOTM4LDAsMCwwLTcuMTkzNzQtNC43Njg3OSw4LjU1MTk0LDguNTUxOTQsMCwwLDAtNy43NDA0LDMuMDk5NzcsNTEuMTY0NTgsNTEuMTY0NTgsMCwwLDAtNC44NDE4OSw3Ljg3MzU2LDQ5Ljk4Mjc4LDQ5Ljk4Mjc4LDAsMCwwLTQuNjU3NjYsMTMuMTI0OTUsNDEuNzc0NDgsNDEuNzc0NDgsMCwwLDAtLjkzMTEzLDkuNzQwODMsNTAuNjMwNjgsNTAuNjMwNjgsMCwwLDAsMS4zNzk2OCwxMS44NDk0LDUxLjQyODA5LDUxLjQyODA5LDAsMCwwLDMuMzI0LDkuNDMwNDUsNTcuOTY0NjIsNTcuOTY0NjIsMCwwLDAsNC42Mzg2Myw4LjI4NDA3LDkuNzczODIsOS43NzM4MiwwLDAsMCw2LjgxODI5LDQuNzE0NzMsOS4wNTYwNyw5LjA1NjA3LDAsMCwwLDEuNDUwNzYuMTE1MTQsOS4yODQ1NSw5LjI4NDU1LDAsMCwwLDUuNDgyNjYtMS43OTIxOCw3LjA4ODI5LDcuMDg4MjksMCwwLDAsMi45OTQ2NC01LjEyMzIzLDguNzE5MjgsOC43MTkyOCwwLDAsMC0xLjk0NDM2LTUuODQ2MUEzNC42MDIwNiwzNC42MDIwNiwwLDAsMSwxMTkuNTExMTksODkuMTc4NzNaIiBjbGFzcz0iY2xzLTUiLz48L3N2Zz4=;sketch=1;fontFamily=IBM Plex Mono;fontSize=19;" parent="1" vertex="1">
                    <mxGeometry x="793" y="490" width="23" height="31.3" as="geometry"/>
                </mxCell>
                <mxCell id="xMlnUiTXEX7Q_oC-0Y35-63" value="" style="shape=umlActor;verticalLabelPosition=bottom;verticalAlign=top;html=1;outlineConnect=0;sketch=1;fontFamily=IBM Plex Mono;fontSize=19;" parent="1" vertex="1">
                    <mxGeometry x="450" y="670" width="30" height="60" as="geometry"/>
                </mxCell>
                <mxCell id="5" value="&lt;font style=&quot;font-size: 19px;&quot;&gt;Monitor&lt;br&gt;&lt;/font&gt;" style="rounded=1;whiteSpace=wrap;html=1;fontFamily=IBM Plex Mono;fontSize=19;fillColor=#b1ddf0;strokeColor=#10739e;sketch=1;" vertex="1" parent="1">
                    <mxGeometry x="935" y="180" width="110" height="80" as="geometry"/>
                </mxCell>
                <mxCell id="7" value="&lt;font style=&quot;font-size: 15px;&quot;&gt;Trigger&lt;/font&gt;" style="rounded=1;whiteSpace=wrap;html=1;fontFamily=IBM Plex Mono;fontSize=19;fillColor=#f5f5f5;fontColor=#333333;strokeColor=#666666;sketch=1;" vertex="1" parent="1">
                    <mxGeometry x="941.5" y="381" width="81.5" height="40" as="geometry"/>
                </mxCell>
                <mxCell id="8" style="edgeStyle=none;orthogonalLoop=1;jettySize=auto;html=1;fontFamily=IBM Plex Mono;fontSize=19;fillColor=#dae8fc;strokeColor=#6c8ebf;entryX=0.182;entryY=1;entryDx=0;entryDy=0;entryPerimeter=0;exitX=0.213;exitY=-0.046;exitDx=0;exitDy=0;exitPerimeter=0;endSize=10;strokeWidth=1;startSize=6;rounded=0;sketch=1;" edge="1" parent="1" source="9">
                    <mxGeometry relative="1" as="geometry">
                        <mxPoint x="985" y="330" as="sourcePoint"/>
                        <mxPoint x="958.9975" y="260.99999999999994" as="targetPoint"/>
                    </mxGeometry>
                </mxCell>
                <mxCell id="9" value="&lt;font style=&quot;font-size: 15px;&quot;&gt;Policies&lt;/font&gt;" style="rounded=1;whiteSpace=wrap;html=1;fontFamily=IBM Plex Mono;fontSize=19;fillColor=#f5f5f5;fontColor=#333333;strokeColor=#666666;sketch=1;" vertex="1" parent="1">
                    <mxGeometry x="941.5" y="331" width="81.5" height="40" as="geometry"/>
                </mxCell>
                <mxCell id="10" value="" style="shape=image;verticalLabelPosition=bottom;verticalAlign=top;imageAspect=0;aspect=fixed;image=data:image/svg+xml,PHN2ZyB4bWxuczp4bGluaz0iaHR0cDovL3d3dy53My5vcmcvMTk5OS94bGluayIgeG1sbnM9Imh0dHA6Ly93d3cudzMub3JnLzIwMDAvc3ZnIiB2aWV3Qm94PSIwIDAgMTgzIDI0OSIgZGF0YS1uYW1lPSJMYXllciAxIiBpZD0iTGF5ZXJfMSI+PGRlZnM+PHN0eWxlPi5jbHMtMXtmaWxsOnVybCgjbGluZWFyLWdyYWRpZW50KTt9LmNscy0ye2ZpbGw6dXJsKCNsaW5lYXItZ3JhZGllbnQtMik7fS5jbHMtM3tmaWxsOnVybCgjbGluZWFyLWdyYWRpZW50LTMpO30uY2xzLTR7ZmlsbDp1cmwoI2xpbmVhci1ncmFkaWVudC00KTt9LmNscy01e2ZpbGw6dXJsKCNsaW5lYXItZ3JhZGllbnQtNSk7fTwvc3R5bGU+PGxpbmVhckdyYWRpZW50IGdyYWRpZW50VW5pdHM9InVzZXJTcGFjZU9uVXNlIiB5Mj0iNDMyLjYwMTI4IiB4Mj0iNDQ5LjExNjA0IiB5MT0iMTA5Ljg2NDE3IiB4MT0iLTkzLjM1Njk4IiBpZD0ibGluZWFyLWdyYWRpZW50Ij48c3RvcCBzdG9wLWNvbG9yPSIjMmUzMTkwIiBvZmZzZXQ9IjAiLz48c3RvcCBzdG9wLWNvbG9yPSIjNTBhNzkyIiBvZmZzZXQ9IjAuNTUwNjEiLz48c3RvcCBzdG9wLWNvbG9yPSIjMzliMzRhIiBvZmZzZXQ9IjEiLz48L2xpbmVhckdyYWRpZW50PjxsaW5lYXJHcmFkaWVudCB4bGluazpocmVmPSIjbGluZWFyLWdyYWRpZW50IiB5Mj0iMzYyLjEwNzc4IiB4Mj0iNDkxLjA1NTIxIiB5MT0iMzkuMzcwNjciIHgxPSItNTEuNDE3ODEiIGlkPSJsaW5lYXItZ3JhZGllbnQtMiIvPjxsaW5lYXJHcmFkaWVudCB4bGluazpocmVmPSIjbGluZWFyLWdyYWRpZW50IiB5Mj0iMzQ4LjY2MDM0IiB4Mj0iNDk5LjA1NTU5IiB5MT0iMjUuOTIzMjMiIHgxPSItNDMuNDE3NDMiIGlkPSJsaW5lYXItZ3JhZGllbnQtMyIvPjxsaW5lYXJHcmFkaWVudCB4bGluazpocmVmPSIjbGluZWFyLWdyYWRpZW50IiB5Mj0iMzMyLjEzNTQ4IiB4Mj0iNTA4Ljg4NjgzIiB5MT0iOS4zOTgzNyIgeDE9Ii0zMy41ODYxOCIgaWQ9ImxpbmVhci1ncmFkaWVudC00Ii8+PGxpbmVhckdyYWRpZW50IHhsaW5rOmhyZWY9IiNsaW5lYXItZ3JhZGllbnQiIHkyPSIzMTUuNDcyNTMiIHgyPSI1MTguODAwMjMiIHkxPSItNy4yNjQ1OCIgeDE9Ii0yMy42NzI3OCIgaWQ9ImxpbmVhci1ncmFkaWVudC01Ii8+PC9kZWZzPjxwYXRoIGQ9Ik03MS44ODAxMSwyMTUuNjM1MmE3Ljc0MTY3LDcuNzQxNjcsMCwwLDAtNC45ODY4LDEuMzYsMjcuNDk4ODQsMjcuNDk4ODQsMCwwLDEtMy43Nzc4NCwyLjU2OSwxNi4xMTEwNiwxNi4xMTEwNiwwLDAsMS00LjUzMzM5LDEuMzU5OSw0MC4xNjQ3Nyw0MC4xNjQ3NywwLDAsMS02LjQ5Nzg5LjQ1MzQzQTIxLjg0MDA3LDIxLjg0MDA3LDAsMCwxLDQwLjA3MDcyLDIxOC4wNTNhMjMuMDU2MjQsMjMuMDU2MjQsMCwwLDEtOC4xNjAxNi04Ljk4OTY3LDI3LjYwMTI1LDI3LjYwMTI1LDAsMCwxLTIuOTQ2NzEtMTIuOTIxNywyOC41MzY5NCwyOC41MzY5NCwwLDAsMSwyLjg3MTI0LTEzLjA2OTc2LDIyLjEzNjIyLDIyLjEzNjIyLDAsMCwxLDguMjM1NjMtOC45ODk2N0EyNC4zNTYsMjQuMzU2LDAsMCwxLDUzLjE0MiwxNzAuNzU3ODFhMzAuNTYyLDMwLjU2MiwwLDAsMSw0LjYwOS41MjcyNiwxMy44NTczOCwxMy44NTczOCwwLDAsMSw0LjYwOSwxLjQzNzEzLDE2LjA4ODY1LDE2LjA4ODY1LDAsMCwxLDIuODcxMTIsMS45NjQ1MSwxMC40OTI4NSwxMC40OTI4NSwwLDAsMCwyLjc5NTY0LDEuNzM2MjMsMTAuMjA3MjYsMTAuMjA3MjYsMCwwLDAsNC4wMDQ0OS42ODE1OCw2LjAwNTY3LDYuMDA1NjcsMCwwLDAsNS4yODc0My0yLjY0NjA5LDkuODI2MzksOS44MjYzOSwwLDAsMCwxLjgxMzMyLTUuNjY1MTMsMTAuMTk2NzQsMTAuMTk2NzQsMCwwLDAtMy41NTExOS03Ljc4NCwyNC40MzI1MywyNC40MzI1MywwLDAsMC05Ljk3MTg2LTUuMDYwNjUsNTUuNjM2NzksNTUuNjM2NzksMCwwLDAtMTUuMDM1NzctMS44MTM0NSwzOS41MTEsMzkuNTExLDAsMCwwLTIwLjYyNjkzLDUuMzYzLDM3LjU0NDU5LDM3LjU0NDU5LDAsMCwwLTE0LjA1MTk1LDE0LjgwOTExLDQ1LjUxNzYyLDQ1LjUxNzYyLDAsMCwwLTUuMDYyNCwyMS44MzQyOEE0Ni45Nzg0OCw0Ni45Nzg0OCwwLDAsMCwxNS41OTIsMjE3LjQ0ODUzLDM2Ljg2NzUxLDM2Ljg2NzUxLDAsMCwwLDI5LjExNSwyMzIuNDg1OTNRMzcuODc4LDIzOC4wMDMyNSw0OS44MTc1NiwyMzhhNTYuMTI2OTIsNTYuMTI2OTIsMCwwLDAsMTQuODg0NTgtMS44ODcyOSwzNC4wMzIzOCwzNC4wMzIzOCwwLDAsMCwxMS4xMDUyNC00Ljk4NjgxcTQuMjI5NTItMy4wOTYyLDQuMjMxMTQtNi44NzcyM2E5LjEzNDY1LDkuMTM0NjUsMCwwLDAtMi4xMTU1Ny02LjExODQzQTcuNDkwNjgsNy40OTA2OCwwLDAsMCw3MS44ODAxMSwyMTUuNjM1MloiIGNsYXNzPSJjbHMtMSIvPjxwYXRoIGQ9Ik0xNTguNjE0MzYsNjYuODY5NzJhOC42Nzc2Myw4LjY3NzYzLDAsMCwwLTYuNDk3ODksMi42NDYwOSw5LjA1NDIsOS4wNTQyLDAsMCwwLTIuNTY3MzcsNi41NzE3NHY4Ny40ODcyOGEzNi40NSwzNi40NSwwLDAsMC0yLjk0NjcxLTIuNDg4MjcsMzUuNjE5NDQsMzUuNjE5NDQsMCwwLDAtOS40NDQ2LTQuOTg2ODEsMzQuOTQ1NzUsMzQuOTQ1NzUsMCwwLDAtMTEuOTM3ODgtMS45NjQ1MSwzMy4zMTY1NSwzMy4zMTY1NSwwLDAsMC0xOC40MzU4OSw1LjM2MywzOC4xNDc1OCwzOC4xNDc1OCwwLDAsMC0xMy4yMjA4MSwxNC44MDkxMSw1MC42NjIxOCw1MC42NjIxOCwwLDAsMCwwLDQzLjUyMDYyLDM3LjcwMjQ4LDM3LjcwMjQ4LDAsMCwwLDEzLjM3MiwxNC44MDkxMkEzNC41NTQ1LDM0LjU1NDUsMCwwLDAsMTI1LjgyNDI3LDIzOGEyOS40Nzg0NCwyOS40Nzg0NCwwLDAsMCwxMC42NTM1Ny0xLjg4NzI5LDM1LjI5NjQ1LDM1LjI5NjQ1LDAsMCwwLDguNTM3ODctNC42MTA2LDMxLjgyMTA5LDMxLjgyMTA5LDAsMCwwLDQuNTQ2NTMtNC4wNzcsOS4wMjY1MSw5LjAyNjUxLDAsMCwwLDIuNTU0MjMsNi40MjA4LDkuMzA5MjIsOS4zMDkyMiwwLDAsMCwxMi45OTU3OCwwLDkuMDY0MzQsOS4wNjQzNCwwLDAsMCwyLjU2ODg3LTYuNTc1Vjc2LjA4NzU1YTkuMDAwNCw5LjAwMDQsMCwwLDAtMi41Njg4Ny02LjY0OUE4LjgxNzcsOC44MTc3LDAsMCwwLDE1OC42MTQzNiw2Ni44Njk3MlpNMTM5LjcyNjc5LDIxOC4wNTNhMjAuNDY5MzQsMjAuNDY5MzQsMCwwLDEtMTEuNjM1NzYsMy4zMjQ1NCwyMC4yMDQwNiwyMC4yMDQwNiwwLDAsMS0xMS40ODQ1OC0zLjMyNDU0LDIyLjQyOTMxLDIyLjQyOTMxLDAsMCwxLTcuNzgyMzMtOS4wNjY3NywyOC45MjA1MSwyOC45MjA1MSwwLDAsMS0yLjc5NC0xMi44NDQ2LDI5LjI4MjMyLDI5LjI4MjMyLDAsMCwxLDIuNzk0LTEyLjk5MjU0LDIyLjQzMDU4LDIyLjQzMDU4LDAsMCwxLDcuNzgyMzMtOS4wNjY4OSwyMC4yMjg5NCwyMC4yMjg5NCwwLDAsMSwxMS40ODQ1OC0zLjMyNDQxLDIwLjQ5NDMsMjAuNDk0MywwLDAsMSwxMS42MzU3NiwzLjMyNDQxLDIyLjQ1NjE4LDIyLjQ1NjE4LDAsMCwxLDcuNzgyMzMsOS4wNjY4OSwyOS4zMjkxMiwyOS4zMjkxMiwwLDAsMSwyLjc5NTUyLDEyLjk5MjU0LDI4Ljk2NzI4LDI4Ljk2NzI4LDAsMCwxLTIuNzk1NTIsMTIuODQ0NkEyMi40NTQ5MSwyMi40NTQ5MSwwLDAsMSwxMzkuNzI2NzksMjE4LjA1M1oiIGNsYXNzPSJjbHMtMiIvPjxwYXRoIGQ9Ik00Mi40MjI1NCwxMjMuNjI5NTlhODQuMDQ3NTMsODQuMDQ3NTMsMCwwLDEtOC44Mzk3NC0xNS41MTE4NSw4MC4wMjUwNiw4MC4wMjUwNiwwLDAsMS00LjA1NjkzLTExLjQ2MTkyYy0uNzMwODgtMi43MDgyOS0xLjI0NDUxLTUuNDY1NjQtMS43MDcwNy04LjA1Nzc5YTYzLjE5MTE4LDYzLjE5MTE4LDAsMCwxLS44ODAwNy05LjQ0NzQ4QTY4LjQwNzMxLDY4LjQwNzMxLDAsMCwxLDI4LjE0ODIsNjQuMDIwMTdjLjUwMTYxLTIuNTQ4MSwxLjAyMTI0LTUuMTg0MywxLjY4OTA1LTcuNzM2NEE2Ni4zMjE3Miw2Ni4zMjE3MiwwLDAsMSwzMy41OTI4MSw0NS43NjVjMS4zNjk2Ny0zLjAyODY4LDIuNzAzMjktNS42OTQ5Miw0LjA3Ni04LjE0OTlBODUuNjgxNDIsODUuNjgxNDIsMCwwLDEsNDkuMDcwNjIsMjIuMTIxMjdhNi44MzkxMiw2LjgzOTEyLDAsMCwwLDEuNTM1ODYtNy4wMzk1Niw4LjE3OSw4LjE3OSwwLDAsMC01Ljg2NTEyLTUuMTM1MjMsOS4zOTIzMyw5LjM5MjMzLDAsMCwwLTguMzg0MTksMS45OTI0MiwzNC4zMTM2NywzNC4zMTM2NywwLDAsMC01LjIzNzM2LDUuOTA3MTdsLS44MzcsMS4xMDAzNGE5OC40OTUsOTguNDk1LDAsMCwwLTguOTg0OTEsMTMuNTk0NTFjLTEuMTU2NDEsMi4xNTk2My0yLjI3Njc3LDQuMjgzMjEtMy4yNzIsNi41MjQ5M0MxNi43MjczMyw0MS45OTE0MSwxNS42NDYsNDQuOTM4LDE0LjQ2NjU4LDQ4LjIxMmE4MC42NTg4NCw4MC42NTg4NCwwLDAsMC0yLjI4MDc3LDcuOTc3NjlsLS4yMjQyNy44OTgxYy0uMjMyMjkuOTI3MTItLjM3MjQ2LDEuODUzMjUtLjUyMjY0LDIuODQwNDUtLjEwNjEzLjY5Nzg0LS4yMTIyNiwxLjM5NTY5LS4zNjY0NCwyLjA4MjUzYTQ3Ljg3MjQyLDQ3Ljg3MjQyLDAsMCwwLS44MSw1LjYxMTgxYy0uMTA1MTMsMS4wMTQyNC0uMjEwMjUsMi4wMjg0Ny0uMzUzNDMsMy4wMzk3YTI1LjI4ODg0LDI1LjI4ODg0LDAsMCwwLS4xMDgxMyw0LjQ1ODQxYy4wMi41NzQ3LjA0MDA1LDEuMTQ5NC4wNDAwNSwxLjY3NmE2Mi42NzAxNyw2Mi42NzAxNywwLDAsMCwuNzU2OTIsMTEuODUyNGMuMDg4MTEuNTY5NjkuMTY5MiwxLjE0MjM5LjI1MDMsMS43MTYwOGwuMDQyMDUuMjk5MzdjLjEzMjE2LjkzMTEzLjI2NTMzLDEuODYzMjYuNDIyNTIsMi43ODgzOWE3OC43MTA0NSw3OC43MTA0NSwwLDAsMCwzLjcyNzUzLDEzLjg5MTg3YzEuMDM5MjYsMi44MzA0NCwxLjk5MzQyLDUuMzc5NTQsMy4xNTA4Miw3Ljg5NzZhOTQuMTIyNDgsOTQuMTIyNDgsMCwwLDAsNy4zODQsMTMuMTE1OTMsMTAyLjAxODY0LDEwMi4wMTg2NCwwLDAsMCwxMC43MzYwNSwxMy41OTc1Miw5LjgyMTU3LDkuODIxNTcsMCwwLDAsNi42NjcxLDIuNTgxMTQsNi44NDE0NCw2Ljg0MTQ0LDAsMCwwLDEuOTgxNC0uMjcwMzNjMy4xMDI3Ny0uOTQ0MTUsNS4zMjA0Ny0yLjg5ODUyLDYuMDg0NC01LjM2MzUyYTcuMTc2NCw3LjE3NjQsMCwwLDAtMS44NjAyNi03LjAzMTU0QTEwMS40NTQxOCwxMDEuNDU0MTgsMCwwLDEsNDIuNDIyNTQsMTIzLjYyOTU5WiIgY2xhc3M9ImNscy0zIi8+PHBhdGggZD0iTTg1LjI5OTYzLDExMy45Njk4NWwtLjU5NTYuNDg1NDcuNTY4NTctLjUxODUxYy0uNTYxNjgtLjY5Mjg0LTEuMTI0MzctMS4zODQ2OC0xLjY0NS0yLjA5OTU1YTYxLjA3MTI3LDYxLjA3MTI3LDAsMCwxLTQuNzgwODEtNy44MDE0OCw2NS41Niw2NS41NiwwLDAsMS0zLjA1OTcxLTYuNTk4LDU4LjAzMzkxLDU4LjAzMzkxLDAsMCwxLTEuOTc5NDEtNi41ODNsLS4yMjcyOC0uODkzMDlhMzAuNTc0NDQsMzAuNTc0NDQsMCwwLDEtMS4wNzYzLTUuNjI5ODRjLS4wNTAwNi0uODc0MDYtLjExNzE1LTEuNzQ2MTItLjE4NTIzLTIuNjMxMTlhNDIuNDYxNjYsNDIuNDYxNjYsMCwwLDEtLjA4NDEtOC40NjQyOUw3Mi40NjksNzEuMjZBNjAuMzY4LDYwLjM2OCwwLDAsMSw3My42Mjg0NSw2My45MDRhNjAuMjQ4ODEsNjAuMjQ4ODEsMCwwLDEsNS4wNDAxMy0xMy42MzQ1N0E2NS43MzMsNjUuNzMzLDAsMCwxLDg2LjM5OCwzOC41NzEyNWMxLjU0ODg4LTEuODc3MjgsMi45ODE2Mi00LjIwMzExLDEuODY4MjctNy4yMTk3N2E3LjczOTI4LDcuNzM5MjgsMCwwLDAtNS45MDYxOC01LjIyMTM0Yy0zLjU2ODMzLS43Njg5NC02LjU2NS0uMDEzLTguNjYxNTIsMi4xODE2NUE2NS4zMDE5NCw2NS4zMDE5NCwwLDAsMCw2NC45OCw0MC4yNDYyOWE3NC4zNzU4Niw3NC4zNzU4NiwwLDAsMC02LjM0NjcxLDEzLjk0MjkzQTY5Ljk5MjI0LDY5Ljk5MjI0LDAsMCwwLDU1LjQ3ODQsNjcuNzgxNzRsLS4xMjYxNS45MTAxYTMxLjY3MjcyLDMxLjY3MjcyLDAsMCwwLS40MDY0OSw4LjM4MTE5YzAsLjQyODUyLS4wMTkuODczMDYtLjA0MDA1LDEuMzUyNjRhMTcuNzA4MTQsMTcuNzA4MTQsMCwwLDAsLjEwNzEzLDMuNjY1NDVjLjE3MDIsMS4wNDcyNy4yOTUzNiwyLjA5NzU1LjQzMjUyLDMuMjM1OTMuMTkzMjQsMS42MTUuMzkzNDgsMy4yODYuNzQ5OTEsNC45NDkuMTI2MTYuNTg3NzEuMjQxMywxLjE3NzQzLjM2MTQ0LDEuNzkxMTdBNDAuNjc5MzUsNDAuNjc5MzUsMCwwLDAsNTcuNjQzLDk2LjY1OTgyYTg3Ljc1NzU3LDg3Ljc1NzU3LDAsMCwwLDQuMjQ2MTYsMTEuMDY3NDUsNzkuODMwNCw3OS44MzA0LDAsMCwwLDExLjEzNTUzLDE3LjE3Njg2LDkuMDM0Niw5LjAzNDYsMCwwLDAsNy4xMjM2NSwzLjQ3ODIzaC4wMDRhMTEuMTM4NjYsMTEuMTM4NjYsMCwwLDAsMi4yODA3Ny0uMjQ2Myw4LjEzNzQ1LDguMTM3NDUsMCwwLDAsNS43ODctNC40Njc0Myw2LjYyMTQ4LDYuNjIxNDgsMCwwLDAtLjQ4NDU5LTYuNDgyODdBMzguOTM0MDcsMzguOTM0MDcsMCwwLDAsODUuMjk5NjMsMTEzLjk2OTg1WiIgY2xhc3M9ImNscy00Ii8+PHBhdGggZD0iTTExOS41MTExOSw4OS4xNzg3M2EzNi4xMzA4MiwzNi4xMzA4MiwwLDAsMS0yLjA3MzUxLTkuNDMwNDUsMzkuNTcyMjIsMzkuNTcyMjIsMCwwLDEsLjUzODY1LTEwLjI4MzVsLjA2NTA4LS4zMjQzOWEyNS44NzE3NSwyNS44NzE3NSwwLDAsMSwxLjE4MTQzLTQuNTYzNTUsNDUuODE3NzMsNDUuODE3NzMsMCwwLDEsNS4xOTczMi05Ljg1OWMxLjc5ODE4LTIuNTI3MDcsMi4xMzU1OS00Ljk3MSwxLjAwNDIyLTcuMjYxODNhOC4zMzkzOCw4LjMzOTM4LDAsMCwwLTcuMTkzNzQtNC43Njg3OSw4LjU1MTk0LDguNTUxOTQsMCwwLDAtNy43NDA0LDMuMDk5NzcsNTEuMTY0NTgsNTEuMTY0NTgsMCwwLDAtNC44NDE4OSw3Ljg3MzU2LDQ5Ljk4Mjc4LDQ5Ljk4Mjc4LDAsMCwwLTQuNjU3NjYsMTMuMTI0OTUsNDEuNzc0NDgsNDEuNzc0NDgsMCwwLDAtLjkzMTEzLDkuNzQwODMsNTAuNjMwNjgsNTAuNjMwNjgsMCwwLDAsMS4zNzk2OCwxMS44NDk0LDUxLjQyODA5LDUxLjQyODA5LDAsMCwwLDMuMzI0LDkuNDMwNDUsNTcuOTY0NjIsNTcuOTY0NjIsMCwwLDAsNC42Mzg2Myw4LjI4NDA3LDkuNzczODIsOS43NzM4MiwwLDAsMCw2LjgxODI5LDQuNzE0NzMsOS4wNTYwNyw5LjA1NjA3LDAsMCwwLDEuNDUwNzYuMTE1MTQsOS4yODQ1NSw5LjI4NDU1LDAsMCwwLDUuNDgyNjYtMS43OTIxOCw3LjA4ODI5LDcuMDg4MjksMCwwLDAsMi45OTQ2NC01LjEyMzIzLDguNzE5MjgsOC43MTkyOCwwLDAsMC0xLjk0NDM2LTUuODQ2MUEzNC42MDIwNiwzNC42MDIwNiwwLDAsMSwxMTkuNTExMTksODkuMTc4NzNaIiBjbGFzcz0iY2xzLTUiLz48L3N2Zz4=;sketch=1;fontFamily=IBM Plex Mono;fontSize=19;" vertex="1" parent="1">
                    <mxGeometry x="930" y="279.7" width="23" height="31.3" as="geometry"/>
                </mxCell>
                <mxCell id="11" value="" style="shape=image;verticalLabelPosition=bottom;verticalAlign=top;imageAspect=0;aspect=fixed;image=data:image/svg+xml,PHN2ZyB4bWxuczp4bGluaz0iaHR0cDovL3d3dy53My5vcmcvMTk5OS94bGluayIgeG1sbnM9Imh0dHA6Ly93d3cudzMub3JnLzIwMDAvc3ZnIiB2aWV3Qm94PSIwIDAgMTgzIDI0OSIgZGF0YS1uYW1lPSJMYXllciAxIiBpZD0iTGF5ZXJfMSI+PGRlZnM+PHN0eWxlPi5jbHMtMXtmaWxsOnVybCgjbGluZWFyLWdyYWRpZW50KTt9LmNscy0ye2ZpbGw6dXJsKCNsaW5lYXItZ3JhZGllbnQtMik7fS5jbHMtM3tmaWxsOnVybCgjbGluZWFyLWdyYWRpZW50LTMpO30uY2xzLTR7ZmlsbDp1cmwoI2xpbmVhci1ncmFkaWVudC00KTt9LmNscy01e2ZpbGw6dXJsKCNsaW5lYXItZ3JhZGllbnQtNSk7fTwvc3R5bGU+PGxpbmVhckdyYWRpZW50IGdyYWRpZW50VW5pdHM9InVzZXJTcGFjZU9uVXNlIiB5Mj0iNDMyLjYwMTI4IiB4Mj0iNDQ5LjExNjA0IiB5MT0iMTA5Ljg2NDE3IiB4MT0iLTkzLjM1Njk4IiBpZD0ibGluZWFyLWdyYWRpZW50Ij48c3RvcCBzdG9wLWNvbG9yPSIjMmUzMTkwIiBvZmZzZXQ9IjAiLz48c3RvcCBzdG9wLWNvbG9yPSIjNTBhNzkyIiBvZmZzZXQ9IjAuNTUwNjEiLz48c3RvcCBzdG9wLWNvbG9yPSIjMzliMzRhIiBvZmZzZXQ9IjEiLz48L2xpbmVhckdyYWRpZW50PjxsaW5lYXJHcmFkaWVudCB4bGluazpocmVmPSIjbGluZWFyLWdyYWRpZW50IiB5Mj0iMzYyLjEwNzc4IiB4Mj0iNDkxLjA1NTIxIiB5MT0iMzkuMzcwNjciIHgxPSItNTEuNDE3ODEiIGlkPSJsaW5lYXItZ3JhZGllbnQtMiIvPjxsaW5lYXJHcmFkaWVudCB4bGluazpocmVmPSIjbGluZWFyLWdyYWRpZW50IiB5Mj0iMzQ4LjY2MDM0IiB4Mj0iNDk5LjA1NTU5IiB5MT0iMjUuOTIzMjMiIHgxPSItNDMuNDE3NDMiIGlkPSJsaW5lYXItZ3JhZGllbnQtMyIvPjxsaW5lYXJHcmFkaWVudCB4bGluazpocmVmPSIjbGluZWFyLWdyYWRpZW50IiB5Mj0iMzMyLjEzNTQ4IiB4Mj0iNTA4Ljg4NjgzIiB5MT0iOS4zOTgzNyIgeDE9Ii0zMy41ODYxOCIgaWQ9ImxpbmVhci1ncmFkaWVudC00Ii8+PGxpbmVhckdyYWRpZW50IHhsaW5rOmhyZWY9IiNsaW5lYXItZ3JhZGllbnQiIHkyPSIzMTUuNDcyNTMiIHgyPSI1MTguODAwMjMiIHkxPSItNy4yNjQ1OCIgeDE9Ii0yMy42NzI3OCIgaWQ9ImxpbmVhci1ncmFkaWVudC01Ii8+PC9kZWZzPjxwYXRoIGQ9Ik03MS44ODAxMSwyMTUuNjM1MmE3Ljc0MTY3LDcuNzQxNjcsMCwwLDAtNC45ODY4LDEuMzYsMjcuNDk4ODQsMjcuNDk4ODQsMCwwLDEtMy43Nzc4NCwyLjU2OSwxNi4xMTEwNiwxNi4xMTEwNiwwLDAsMS00LjUzMzM5LDEuMzU5OSw0MC4xNjQ3Nyw0MC4xNjQ3NywwLDAsMS02LjQ5Nzg5LjQ1MzQzQTIxLjg0MDA3LDIxLjg0MDA3LDAsMCwxLDQwLjA3MDcyLDIxOC4wNTNhMjMuMDU2MjQsMjMuMDU2MjQsMCwwLDEtOC4xNjAxNi04Ljk4OTY3LDI3LjYwMTI1LDI3LjYwMTI1LDAsMCwxLTIuOTQ2NzEtMTIuOTIxNywyOC41MzY5NCwyOC41MzY5NCwwLDAsMSwyLjg3MTI0LTEzLjA2OTc2LDIyLjEzNjIyLDIyLjEzNjIyLDAsMCwxLDguMjM1NjMtOC45ODk2N0EyNC4zNTYsMjQuMzU2LDAsMCwxLDUzLjE0MiwxNzAuNzU3ODFhMzAuNTYyLDMwLjU2MiwwLDAsMSw0LjYwOS41MjcyNiwxMy44NTczOCwxMy44NTczOCwwLDAsMSw0LjYwOSwxLjQzNzEzLDE2LjA4ODY1LDE2LjA4ODY1LDAsMCwxLDIuODcxMTIsMS45NjQ1MSwxMC40OTI4NSwxMC40OTI4NSwwLDAsMCwyLjc5NTY0LDEuNzM2MjMsMTAuMjA3MjYsMTAuMjA3MjYsMCwwLDAsNC4wMDQ0OS42ODE1OCw2LjAwNTY3LDYuMDA1NjcsMCwwLDAsNS4yODc0My0yLjY0NjA5LDkuODI2MzksOS44MjYzOSwwLDAsMCwxLjgxMzMyLTUuNjY1MTMsMTAuMTk2NzQsMTAuMTk2NzQsMCwwLDAtMy41NTExOS03Ljc4NCwyNC40MzI1MywyNC40MzI1MywwLDAsMC05Ljk3MTg2LTUuMDYwNjUsNTUuNjM2NzksNTUuNjM2NzksMCwwLDAtMTUuMDM1NzctMS44MTM0NSwzOS41MTEsMzkuNTExLDAsMCwwLTIwLjYyNjkzLDUuMzYzLDM3LjU0NDU5LDM3LjU0NDU5LDAsMCwwLTE0LjA1MTk1LDE0LjgwOTExLDQ1LjUxNzYyLDQ1LjUxNzYyLDAsMCwwLTUuMDYyNCwyMS44MzQyOEE0Ni45Nzg0OCw0Ni45Nzg0OCwwLDAsMCwxNS41OTIsMjE3LjQ0ODUzLDM2Ljg2NzUxLDM2Ljg2NzUxLDAsMCwwLDI5LjExNSwyMzIuNDg1OTNRMzcuODc4LDIzOC4wMDMyNSw0OS44MTc1NiwyMzhhNTYuMTI2OTIsNTYuMTI2OTIsMCwwLDAsMTQuODg0NTgtMS44ODcyOSwzNC4wMzIzOCwzNC4wMzIzOCwwLDAsMCwxMS4xMDUyNC00Ljk4NjgxcTQuMjI5NTItMy4wOTYyLDQuMjMxMTQtNi44NzcyM2E5LjEzNDY1LDkuMTM0NjUsMCwwLDAtMi4xMTU1Ny02LjExODQzQTcuNDkwNjgsNy40OTA2OCwwLDAsMCw3MS44ODAxMSwyMTUuNjM1MloiIGNsYXNzPSJjbHMtMSIvPjxwYXRoIGQ9Ik0xNTguNjE0MzYsNjYuODY5NzJhOC42Nzc2Myw4LjY3NzYzLDAsMCwwLTYuNDk3ODksMi42NDYwOSw5LjA1NDIsOS4wNTQyLDAsMCwwLTIuNTY3MzcsNi41NzE3NHY4Ny40ODcyOGEzNi40NSwzNi40NSwwLDAsMC0yLjk0NjcxLTIuNDg4MjcsMzUuNjE5NDQsMzUuNjE5NDQsMCwwLDAtOS40NDQ2LTQuOTg2ODEsMzQuOTQ1NzUsMzQuOTQ1NzUsMCwwLDAtMTEuOTM3ODgtMS45NjQ1MSwzMy4zMTY1NSwzMy4zMTY1NSwwLDAsMC0xOC40MzU4OSw1LjM2MywzOC4xNDc1OCwzOC4xNDc1OCwwLDAsMC0xMy4yMjA4MSwxNC44MDkxMSw1MC42NjIxOCw1MC42NjIxOCwwLDAsMCwwLDQzLjUyMDYyLDM3LjcwMjQ4LDM3LjcwMjQ4LDAsMCwwLDEzLjM3MiwxNC44MDkxMkEzNC41NTQ1LDM0LjU1NDUsMCwwLDAsMTI1LjgyNDI3LDIzOGEyOS40Nzg0NCwyOS40Nzg0NCwwLDAsMCwxMC42NTM1Ny0xLjg4NzI5LDM1LjI5NjQ1LDM1LjI5NjQ1LDAsMCwwLDguNTM3ODctNC42MTA2LDMxLjgyMTA5LDMxLjgyMTA5LDAsMCwwLDQuNTQ2NTMtNC4wNzcsOS4wMjY1MSw5LjAyNjUxLDAsMCwwLDIuNTU0MjMsNi40MjA4LDkuMzA5MjIsOS4zMDkyMiwwLDAsMCwxMi45OTU3OCwwLDkuMDY0MzQsOS4wNjQzNCwwLDAsMCwyLjU2ODg3LTYuNTc1Vjc2LjA4NzU1YTkuMDAwNCw5LjAwMDQsMCwwLDAtMi41Njg4Ny02LjY0OUE4LjgxNzcsOC44MTc3LDAsMCwwLDE1OC42MTQzNiw2Ni44Njk3MlpNMTM5LjcyNjc5LDIxOC4wNTNhMjAuNDY5MzQsMjAuNDY5MzQsMCwwLDEtMTEuNjM1NzYsMy4zMjQ1NCwyMC4yMDQwNiwyMC4yMDQwNiwwLDAsMS0xMS40ODQ1OC0zLjMyNDU0LDIyLjQyOTMxLDIyLjQyOTMxLDAsMCwxLTcuNzgyMzMtOS4wNjY3NywyOC45MjA1MSwyOC45MjA1MSwwLDAsMS0yLjc5NC0xMi44NDQ2LDI5LjI4MjMyLDI5LjI4MjMyLDAsMCwxLDIuNzk0LTEyLjk5MjU0LDIyLjQzMDU4LDIyLjQzMDU4LDAsMCwxLDcuNzgyMzMtOS4wNjY4OSwyMC4yMjg5NCwyMC4yMjg5NCwwLDAsMSwxMS40ODQ1OC0zLjMyNDQxLDIwLjQ5NDMsMjAuNDk0MywwLDAsMSwxMS42MzU3NiwzLjMyNDQxLDIyLjQ1NjE4LDIyLjQ1NjE4LDAsMCwxLDcuNzgyMzMsOS4wNjY4OSwyOS4zMjkxMiwyOS4zMjkxMiwwLDAsMSwyLjc5NTUyLDEyLjk5MjU0LDI4Ljk2NzI4LDI4Ljk2NzI4LDAsMCwxLTIuNzk1NTIsMTIuODQ0NkEyMi40NTQ5MSwyMi40NTQ5MSwwLDAsMSwxMzkuNzI2NzksMjE4LjA1M1oiIGNsYXNzPSJjbHMtMiIvPjxwYXRoIGQ9Ik00Mi40MjI1NCwxMjMuNjI5NTlhODQuMDQ3NTMsODQuMDQ3NTMsMCwwLDEtOC44Mzk3NC0xNS41MTE4NSw4MC4wMjUwNiw4MC4wMjUwNiwwLDAsMS00LjA1NjkzLTExLjQ2MTkyYy0uNzMwODgtMi43MDgyOS0xLjI0NDUxLTUuNDY1NjQtMS43MDcwNy04LjA1Nzc5YTYzLjE5MTE4LDYzLjE5MTE4LDAsMCwxLS44ODAwNy05LjQ0NzQ4QTY4LjQwNzMxLDY4LjQwNzMxLDAsMCwxLDI4LjE0ODIsNjQuMDIwMTdjLjUwMTYxLTIuNTQ4MSwxLjAyMTI0LTUuMTg0MywxLjY4OTA1LTcuNzM2NEE2Ni4zMjE3Miw2Ni4zMjE3MiwwLDAsMSwzMy41OTI4MSw0NS43NjVjMS4zNjk2Ny0zLjAyODY4LDIuNzAzMjktNS42OTQ5Miw0LjA3Ni04LjE0OTlBODUuNjgxNDIsODUuNjgxNDIsMCwwLDEsNDkuMDcwNjIsMjIuMTIxMjdhNi44MzkxMiw2LjgzOTEyLDAsMCwwLDEuNTM1ODYtNy4wMzk1Niw4LjE3OSw4LjE3OSwwLDAsMC01Ljg2NTEyLTUuMTM1MjMsOS4zOTIzMyw5LjM5MjMzLDAsMCwwLTguMzg0MTksMS45OTI0MiwzNC4zMTM2NywzNC4zMTM2NywwLDAsMC01LjIzNzM2LDUuOTA3MTdsLS44MzcsMS4xMDAzNGE5OC40OTUsOTguNDk1LDAsMCwwLTguOTg0OTEsMTMuNTk0NTFjLTEuMTU2NDEsMi4xNTk2My0yLjI3Njc3LDQuMjgzMjEtMy4yNzIsNi41MjQ5M0MxNi43MjczMyw0MS45OTE0MSwxNS42NDYsNDQuOTM4LDE0LjQ2NjU4LDQ4LjIxMmE4MC42NTg4NCw4MC42NTg4NCwwLDAsMC0yLjI4MDc3LDcuOTc3NjlsLS4yMjQyNy44OTgxYy0uMjMyMjkuOTI3MTItLjM3MjQ2LDEuODUzMjUtLjUyMjY0LDIuODQwNDUtLjEwNjEzLjY5Nzg0LS4yMTIyNiwxLjM5NTY5LS4zNjY0NCwyLjA4MjUzYTQ3Ljg3MjQyLDQ3Ljg3MjQyLDAsMCwwLS44MSw1LjYxMTgxYy0uMTA1MTMsMS4wMTQyNC0uMjEwMjUsMi4wMjg0Ny0uMzUzNDMsMy4wMzk3YTI1LjI4ODg0LDI1LjI4ODg0LDAsMCwwLS4xMDgxMyw0LjQ1ODQxYy4wMi41NzQ3LjA0MDA1LDEuMTQ5NC4wNDAwNSwxLjY3NmE2Mi42NzAxNyw2Mi42NzAxNywwLDAsMCwuNzU2OTIsMTEuODUyNGMuMDg4MTEuNTY5NjkuMTY5MiwxLjE0MjM5LjI1MDMsMS43MTYwOGwuMDQyMDUuMjk5MzdjLjEzMjE2LjkzMTEzLjI2NTMzLDEuODYzMjYuNDIyNTIsMi43ODgzOWE3OC43MTA0NSw3OC43MTA0NSwwLDAsMCwzLjcyNzUzLDEzLjg5MTg3YzEuMDM5MjYsMi44MzA0NCwxLjk5MzQyLDUuMzc5NTQsMy4xNTA4Miw3Ljg5NzZhOTQuMTIyNDgsOTQuMTIyNDgsMCwwLDAsNy4zODQsMTMuMTE1OTMsMTAyLjAxODY0LDEwMi4wMTg2NCwwLDAsMCwxMC43MzYwNSwxMy41OTc1Miw5LjgyMTU3LDkuODIxNTcsMCwwLDAsNi42NjcxLDIuNTgxMTQsNi44NDE0NCw2Ljg0MTQ0LDAsMCwwLDEuOTgxNC0uMjcwMzNjMy4xMDI3Ny0uOTQ0MTUsNS4zMjA0Ny0yLjg5ODUyLDYuMDg0NC01LjM2MzUyYTcuMTc2NCw3LjE3NjQsMCwwLDAtMS44NjAyNi03LjAzMTU0QTEwMS40NTQxOCwxMDEuNDU0MTgsMCwwLDEsNDIuNDIyNTQsMTIzLjYyOTU5WiIgY2xhc3M9ImNscy0zIi8+PHBhdGggZD0iTTg1LjI5OTYzLDExMy45Njk4NWwtLjU5NTYuNDg1NDcuNTY4NTctLjUxODUxYy0uNTYxNjgtLjY5Mjg0LTEuMTI0MzctMS4zODQ2OC0xLjY0NS0yLjA5OTU1YTYxLjA3MTI3LDYxLjA3MTI3LDAsMCwxLTQuNzgwODEtNy44MDE0OCw2NS41Niw2NS41NiwwLDAsMS0zLjA1OTcxLTYuNTk4LDU4LjAzMzkxLDU4LjAzMzkxLDAsMCwxLTEuOTc5NDEtNi41ODNsLS4yMjcyOC0uODkzMDlhMzAuNTc0NDQsMzAuNTc0NDQsMCwwLDEtMS4wNzYzLTUuNjI5ODRjLS4wNTAwNi0uODc0MDYtLjExNzE1LTEuNzQ2MTItLjE4NTIzLTIuNjMxMTlhNDIuNDYxNjYsNDIuNDYxNjYsMCwwLDEtLjA4NDEtOC40NjQyOUw3Mi40NjksNzEuMjZBNjAuMzY4LDYwLjM2OCwwLDAsMSw3My42Mjg0NSw2My45MDRhNjAuMjQ4ODEsNjAuMjQ4ODEsMCwwLDEsNS4wNDAxMy0xMy42MzQ1N0E2NS43MzMsNjUuNzMzLDAsMCwxLDg2LjM5OCwzOC41NzEyNWMxLjU0ODg4LTEuODc3MjgsMi45ODE2Mi00LjIwMzExLDEuODY4MjctNy4yMTk3N2E3LjczOTI4LDcuNzM5MjgsMCwwLDAtNS45MDYxOC01LjIyMTM0Yy0zLjU2ODMzLS43Njg5NC02LjU2NS0uMDEzLTguNjYxNTIsMi4xODE2NUE2NS4zMDE5NCw2NS4zMDE5NCwwLDAsMCw2NC45OCw0MC4yNDYyOWE3NC4zNzU4Niw3NC4zNzU4NiwwLDAsMC02LjM0NjcxLDEzLjk0MjkzQTY5Ljk5MjI0LDY5Ljk5MjI0LDAsMCwwLDU1LjQ3ODQsNjcuNzgxNzRsLS4xMjYxNS45MTAxYTMxLjY3MjcyLDMxLjY3MjcyLDAsMCwwLS40MDY0OSw4LjM4MTE5YzAsLjQyODUyLS4wMTkuODczMDYtLjA0MDA1LDEuMzUyNjRhMTcuNzA4MTQsMTcuNzA4MTQsMCwwLDAsLjEwNzEzLDMuNjY1NDVjLjE3MDIsMS4wNDcyNy4yOTUzNiwyLjA5NzU1LjQzMjUyLDMuMjM1OTMuMTkzMjQsMS42MTUuMzkzNDgsMy4yODYuNzQ5OTEsNC45NDkuMTI2MTYuNTg3NzEuMjQxMywxLjE3NzQzLjM2MTQ0LDEuNzkxMTdBNDAuNjc5MzUsNDAuNjc5MzUsMCwwLDAsNTcuNjQzLDk2LjY1OTgyYTg3Ljc1NzU3LDg3Ljc1NzU3LDAsMCwwLDQuMjQ2MTYsMTEuMDY3NDUsNzkuODMwNCw3OS44MzA0LDAsMCwwLDExLjEzNTUzLDE3LjE3Njg2LDkuMDM0Niw5LjAzNDYsMCwwLDAsNy4xMjM2NSwzLjQ3ODIzaC4wMDRhMTEuMTM4NjYsMTEuMTM4NjYsMCwwLDAsMi4yODA3Ny0uMjQ2Myw4LjEzNzQ1LDguMTM3NDUsMCwwLDAsNS43ODctNC40Njc0Myw2LjYyMTQ4LDYuNjIxNDgsMCwwLDAtLjQ4NDU5LTYuNDgyODdBMzguOTM0MDcsMzguOTM0MDcsMCwwLDAsODUuMjk5NjMsMTEzLjk2OTg1WiIgY2xhc3M9ImNscy00Ii8+PHBhdGggZD0iTTExOS41MTExOSw4OS4xNzg3M2EzNi4xMzA4MiwzNi4xMzA4MiwwLDAsMS0yLjA3MzUxLTkuNDMwNDUsMzkuNTcyMjIsMzkuNTcyMjIsMCwwLDEsLjUzODY1LTEwLjI4MzVsLjA2NTA4LS4zMjQzOWEyNS44NzE3NSwyNS44NzE3NSwwLDAsMSwxLjE4MTQzLTQuNTYzNTUsNDUuODE3NzMsNDUuODE3NzMsMCwwLDEsNS4xOTczMi05Ljg1OWMxLjc5ODE4LTIuNTI3MDcsMi4xMzU1OS00Ljk3MSwxLjAwNDIyLTcuMjYxODNhOC4zMzkzOCw4LjMzOTM4LDAsMCwwLTcuMTkzNzQtNC43Njg3OSw4LjU1MTk0LDguNTUxOTQsMCwwLDAtNy43NDA0LDMuMDk5NzcsNTEuMTY0NTgsNTEuMTY0NTgsMCwwLDAtNC44NDE4OSw3Ljg3MzU2LDQ5Ljk4Mjc4LDQ5Ljk4Mjc4LDAsMCwwLTQuNjU3NjYsMTMuMTI0OTUsNDEuNzc0NDgsNDEuNzc0NDgsMCwwLDAtLjkzMTEzLDkuNzQwODMsNTAuNjMwNjgsNTAuNjMwNjgsMCwwLDAsMS4zNzk2OCwxMS44NDk0LDUxLjQyODA5LDUxLjQyODA5LDAsMCwwLDMuMzI0LDkuNDMwNDUsNTcuOTY0NjIsNTcuOTY0NjIsMCwwLDAsNC42Mzg2Myw4LjI4NDA3LDkuNzczODIsOS43NzM4MiwwLDAsMCw2LjgxODI5LDQuNzE0NzMsOS4wNTYwNyw5LjA1NjA3LDAsMCwwLDEuNDUwNzYuMTE1MTQsOS4yODQ1NSw5LjI4NDU1LDAsMCwwLDUuNDgyNjYtMS43OTIxOCw3LjA4ODI5LDcuMDg4MjksMCwwLDAsMi45OTQ2NC01LjEyMzIzLDguNzE5MjgsOC43MTkyOCwwLDAsMC0xLjk0NDM2LTUuODQ2MUEzNC42MDIwNiwzNC42MDIwNiwwLDAsMSwxMTkuNTExMTksODkuMTc4NzNaIiBjbGFzcz0iY2xzLTUiLz48L3N2Zz4=;sketch=1;fontFamily=IBM Plex Mono;fontSize=19;" vertex="1" parent="1">
                    <mxGeometry x="1010" y="279.7" width="23" height="31.3" as="geometry"/>
                </mxCell>
                <mxCell id="12" style="edgeStyle=none;orthogonalLoop=1;jettySize=auto;html=1;fontFamily=IBM Plex Mono;fontSize=15;fillColor=#dae8fc;strokeColor=#6c8ebf;exitX=0.842;exitY=0.995;exitDx=0;exitDy=0;exitPerimeter=0;entryX=0.476;entryY=-0.009;entryDx=0;entryDy=0;entryPerimeter=0;endSize=10;strokeWidth=1;startSize=6;rounded=0;sketch=1;" edge="1" parent="1">
                    <mxGeometry relative="1" as="geometry">
                        <mxPoint x="1037.0025" y="259.99999999999994" as="sourcePoint"/>
                        <mxPoint x="1037.3400000000001" y="429.68" as="targetPoint"/>
                    </mxGeometry>
                </mxCell>
                <mxCell id="16" value="" style="edgeStyle=orthogonalEdgeStyle;rounded=0;orthogonalLoop=1;jettySize=auto;html=1;fontFamily=IBM Plex Mono;fontSize=19;sketch=1;endSize=10;" edge="1" parent="1" source="17">
                    <mxGeometry relative="1" as="geometry">
                        <mxPoint x="990" y="180" as="targetPoint"/>
                    </mxGeometry>
                </mxCell>
                <mxCell id="17" value="" style="shape=umlActor;verticalLabelPosition=bottom;verticalAlign=top;html=1;outlineConnect=0;sketch=1;fontFamily=IBM Plex Mono;fontSize=19;" vertex="1" parent="1">
                    <mxGeometry x="975" y="80" width="30" height="60" as="geometry"/>
                </mxCell>
            </root>
        </mxGraphModel>
    </diagram>
    <diagram id="9L02dB79JJJKlVwwH9bZ" name="banner">
        <mxGraphModel dx="1452" dy="1031" grid="1" gridSize="10" guides="1" tooltips="1" connect="1" arrows="1" fold="1" page="1" pageScale="1" pageWidth="1169" pageHeight="827" math="0" shadow="0">
            <root>
                <mxCell id="0"/>
                <mxCell id="1" parent="0"/>
                <mxCell id="v7oIN5Jdeb75s9D7p3Ma-1" value="" style="shape=image;verticalLabelPosition=bottom;labelBackgroundColor=default;verticalAlign=top;aspect=fixed;imageAspect=0;image=/System/Volumes/Data/go/src/github.com/afrittoli/cdevents_roadmap/img/cdevents_horizontal-color.png;" vertex="1" parent="1">
                    <mxGeometry x="380" y="250" width="409.26" height="170" as="geometry"/>
                </mxCell>
                <mxCell id="v7oIN5Jdeb75s9D7p3Ma-3" value="0.1" style="text;html=1;align=center;verticalAlign=middle;whiteSpace=wrap;rounded=1;sketch=1;fontFamily=IBM Plex Mono;fontSize=70;labelBackgroundColor=none;labelBorderColor=none;shadow=0;glass=0;fillColor=#d5e8d4;strokeColor=none;fontColor=#50A792;" vertex="1" parent="1">
                    <mxGeometry x="800" y="344" width="140" height="70" as="geometry"/>
                </mxCell>
            </root>
        </mxGraphModel>
    </diagram>
</mxfile>